<?xml version="1.0" encoding="utf-8"?>
<!-- Generator: Adobe Illustrator 18.1.0, SVG Export Plug-In . SVG Version: 6.00 Build 0)  -->
<svg version="1.1" id="_x36_0px_Arrows" xmlns="http://www.w3.org/2000/svg" xmlns:xlink="http://www.w3.org/1999/xlink" x="0px"
	 y="0px" viewBox="0 0 54 58" enable-background="new 0 0 54 58" xml:space="preserve">
<g>
	<path fill="#59595C" d="M27,24c-2.8,0-5,2.2-5,5s2.2,5,5,5c2.8,0,5-2.2,5-5S29.8,24,27,24z"/>
	<path fill="#59595C" d="M27,12c-2.8,0-5,2.2-5,5s2.2,5,5,5c2.8,0,5-2.2,5-5S29.8,12,27,12z"/>
	<path fill="#59595C" d="M27,0c-2.8,0-5,2.2-5,5s2.2,5,5,5c2.8,0,5-2.2,5-5S29.8,0,27,0z"/>
	<path fill="#59595C" d="M39,8c-2.8,0-5,2.2-5,5s2.2,5,5,5c2.8,0,5-2.2,5-5S41.8,8,39,8z"/>
	<path fill="#59595C" d="M49,16c-2.8,0-5,2.2-5,5s2.2,5,5,5c2.8,0,5-2.2,5-5S51.8,16,49,16z"/>
	<path fill="#59595C" d="M15,8c-2.8,0-5,2.2-5,5s2.2,5,5,5c2.8,0,5-2.2,5-5S17.8,8,15,8z"/>
	<path fill="#59595C" d="M5,16c-2.8,0-5,2.2-5,5s2.2,5,5,5c2.8,0,5-2.2,5-5S7.8,16,5,16z"/>
	<path fill="#59595C" d="M27,36c-2.8,0-5,2.2-5,5s2.2,5,5,5c2.8,0,5-2.2,5-5S29.8,36,27,36z"/>
	<path fill="#59595C" d="M27,48c-2.8,0-5,2.2-5,5s2.2,5,5,5c2.8,0,5-2.2,5-5S29.8,48,27,48z"/>
</g>
</svg>
