<?xml version="1.0" encoding="utf-8"?>
<!-- Generator: Adobe Illustrator 19.1.0, SVG Export Plug-In . SVG Version: 6.00 Build 0)  -->
<svg version="1.1" id="Layer_1" xmlns="http://www.w3.org/2000/svg" xmlns:xlink="http://www.w3.org/1999/xlink" x="0px" y="0px"
	 viewBox="881.1 145 345.8 345.8" style="enable-background:new 881.1 145 345.8 345.8;" xml:space="preserve">
<path d="M1054,145c-95.3,0-172.9,77.6-172.9,172.9c0,95.4,77.6,172.9,172.9,172.9s172.9-77.6,172.9-172.9S1149.3,145,1054,145z
	 M1174.5,420.3c-2.8-14.1-6.8-25.8-12.2-31c-7.2-7-54.5-24.2-68.6-30.1c-14.1-5.8-17.1-12-17.1-17.5v-5
	c19.2-15.2,32.5-40.1,32.5-70.1c0-31.8-22.5-62.6-57.6-62.6c-35,0-57.6,30.8-57.6,62.6c0,30,13.3,55,32.5,70.1v5
	c0,5.4-3,11.9-17.1,17.5c-14.1,5.6-61.4,23.1-68.6,30.1c-4.8,4.6-8.5,14.5-11.2,26.5c-21.3-27-34.1-60.9-34.1-97.8
	c0-87.3,71-158.3,158.3-158.3S1212,230.7,1212,318C1212.3,356.9,1198,392.7,1174.5,420.3z"/>
</svg>
