<?xml version="1.0" encoding="utf-8"?>
<!-- Generator: Adobe Illustrator 19.1.0, SVG Export Plug-In . SVG Version: 6.00 Build 0)  -->
<svg version="1.1" id="Layer_1" xmlns="http://www.w3.org/2000/svg" xmlns:xlink="http://www.w3.org/1999/xlink" x="0px" y="0px"
	 viewBox="0 0 39.3 39.3" enable-background="new 0 0 39.3 39.3" xml:space="preserve">
<g id="TsTfYo.tif">
	
		<image overflow="visible" width="1692" height="860" id="Layer_0_1_" xlink:href="5DE41A6F581FD417.png"  transform="matrix(0.4024 0 0 0.4024 61.2772 -99.5224)">
	</image>
</g>
<g id="walking_1_">
	<path fill="#666666" d="M20.9-95c-1.9,0-3.2-1.5-3.2-3.8c0-2.3,1.2-3.8,3.2-3.8c1.9,0,3.2,1.5,3.2,3.8C24.1-96.5,22.9-95,20.9-95z"
		/>
	<path fill="#666666" d="M30.7-84.1l-4-1.8c-0.4-0.2-0.7-0.5-1.2-1.4L24-90.8c-0.8-1.6-2.1-2.2-2.1-2.2c-1-0.4-2.1-0.6-3.3-0.6
		c-2,0-3.5,0.6-3.5,0.6l-3.5,1.2c-1.1,0.4-2.3,1-2.7,3.1c0,0.1-0.1,0.6-1.2,5.8c0,0.1,0,0.3,0,0.4c0,0.9,0.7,1.6,1.6,1.6
		c0.8,0,1.4-0.5,1.6-1.3l1.6-5.3c0.1-0.4,0.2-0.6,0.8-0.8l2.2-0.7l-1.2,6.2c-0.1,0.4-0.2,0.8-0.2,1.2l0,0l-3.1,16.6
		c0,0.1,0,0.2,0,0.3c0,0.9,0.7,1.6,1.6,1.6c0.8,0,1.4-0.6,1.6-1.3l2.9-12.1c0.7,0.6,1.1,1,1.3,1.9L21-64.5c0.2,0.7,0.8,1.2,1.5,1.2
		c0.9,0,1.6-0.7,1.6-1.6c0-0.1,0-0.3-0.1-0.4c0,0,0,0,0,0l-2.6-12.1c-0.3-1.2-0.3-2.4-0.1-3.6l0.8-4.1l0.1,0.2
		c0.4,0.9,0.9,1.6,1.9,2l5.5,1.8c0.8,0.3,1.7-0.2,2-1C31.9-82.9,31.5-83.7,30.7-84.1z"/>
</g>
<g>
	<g id="walking_4_">
		<path fill="none" stroke="#666666" stroke-miterlimit="10" d="M-49.2-95c-1.9,0-3.2-1.5-3.2-3.8s1.2-3.8,3.2-3.8
			c1.9,0,3.2,1.5,3.2,3.8S-47.3-95-49.2-95z"/>
		<path fill="none" stroke="#666666" stroke-miterlimit="10" d="M-39.5-84.1l-4-1.8c-0.4-0.2-0.7-0.5-1.2-1.4l-1.5-3.5
			c-0.8-1.6-2.1-2.2-2.1-2.2c-1-0.4-2.1-0.6-3.3-0.6c-2,0-3.5,0.6-3.5,0.6l-3.5,1.2c-1.1,0.4-2.3,1-2.7,3.1c0,0.1-0.1,0.6-1.2,5.8
			c0,0.1,0,0.3,0,0.4c0,0.9,0.7,1.6,1.6,1.6c0.8,0,1.4-0.5,1.6-1.3l1.6-5.3c0.1-0.4,0.2-0.6,0.8-0.8l2.2-0.7l-1.2,6.2
			c-0.1,0.4-0.2,0.8-0.2,1.2l0,0l-3.1,16.6c0,0.1,0,0.2,0,0.3c0,0.9,0.7,1.6,1.6,1.6c0.8,0,1.4-0.6,1.6-1.3l2.9-12.1
			c0.7,0.6,1.1,1,1.3,1.9l2.8,10.3c0.2,0.7,0.8,1.2,1.5,1.2c0.9,0,1.6-0.7,1.6-1.6c0-0.1,0-0.3-0.1-0.4c0,0,0,0,0,0l-2.6-12.1
			c-0.3-1.2-0.3-2.4-0.1-3.6l0.8-4.1l0.1,0.2c0.4,0.9,0.9,1.6,1.9,2l5.5,1.8c0.8,0.3,1.7-0.2,2-1C-38.3-82.9-38.7-83.7-39.5-84.1z"
			/>
	</g>
	<g>
		<defs>
			<rect id="SVGID_1_" x="-64.4" y="-68.9" width="25.9" height="9.3"/>
		</defs>
		<clipPath id="SVGID_2_">
			<use xlink:href="#SVGID_1_"  overflow="visible"/>
		</clipPath>
		<g id="walking_2_" clip-path="url(#SVGID_2_)">
			<path fill="#666666" d="M-49.3-94.8c-1.9,0-3.2-1.5-3.2-3.8c0-2.3,1.2-3.8,3.2-3.8c1.9,0,3.2,1.5,3.2,3.8
				C-46.1-96.3-47.4-94.8-49.3-94.8z"/>
			<path fill="#666666" d="M-39.6-84l-4-1.8c-0.4-0.2-0.7-0.5-1.2-1.4l-1.5-3.5c-0.8-1.6-2.1-2.2-2.1-2.2c-1-0.4-2.1-0.6-3.3-0.6
				c-2,0-3.5,0.6-3.5,0.6l-3.5,1.2c-1.1,0.4-2.3,1-2.7,3.1c0,0.1-0.1,0.6-1.2,5.8c0,0.1,0,0.3,0,0.4c0,0.9,0.7,1.6,1.6,1.6
				c0.8,0,1.4-0.5,1.6-1.3l1.6-5.3c0.1-0.4,0.2-0.6,0.8-0.8l2.2-0.7l-1.2,6.2c-0.1,0.4-0.2,0.8-0.2,1.2l0,0L-59.4-65
				c0,0.1,0,0.2,0,0.3c0,0.9,0.7,1.6,1.6,1.6c0.8,0,1.4-0.6,1.6-1.3l2.9-12.1c0.7,0.6,1.1,1,1.3,1.9l2.8,10.3
				c0.2,0.7,0.8,1.2,1.5,1.2c0.9,0,1.6-0.7,1.6-1.6c0-0.1,0-0.3-0.1-0.4c0,0,0,0,0,0l-2.6-12.1c-0.3-1.2-0.3-2.4-0.1-3.6l0.8-4.1
				l0.1,0.2c0.4,0.9,0.9,1.6,1.9,2l5.5,1.8c0.8,0.3,1.7-0.2,2-1C-38.4-82.8-38.8-83.6-39.6-84z"/>
		</g>
	</g>
</g>
<g id="jogging_1_">
	<path fill="#666666" d="M33.6-35.4l-3.8-0.5c-0.9-0.1-1.3-0.4-1.8-1.1l-3.4-4.6c0,0,0,0,0,0c0,0-0.1-0.1-0.1-0.1c0,0,0,0,0,0
		c0,0,0,0,0,0c-0.2-0.1-4.1-2-8.6,0.8l-2.6,1.7c-1.7,1.1-2.4,2.5-2.4,4.5v6c0,0.9,0.7,1.6,1.6,1.6c0.8,0,1.5-0.6,1.6-1.4
		c0-0.2,0.6-4.8,0.6-6c0.1-0.8,0.1-1.1,0.9-1.6c0.5-0.3,1.1-0.7,1.7-1.1v5.6c0,0.8,0.2,1.7,0.4,2.4l-3.3,5.3c0,0-0.4,0.6-1,0.6
		l-7.4,0.6c-0.8,0.1-1.3,0.8-1.3,1.6c0,0.9,0.7,1.6,1.6,1.6h8c1.2,0,2-0.4,3-1.4l3.3-3.4l7.8,11.6c0.3,0.5,0.8,0.8,1.4,0.8
		c0.9,0,1.6-0.7,1.6-1.6c0-0.3-0.1-0.6-0.3-0.9c-0.5-0.8-3.4-5.7-4.5-7.4c-1.1-1.8-1.6-2.6-1.6-4.8v-8.1l1.4,1.7c0,0,0,0,0,0
		c0,0,0,0,0,0c0.5,0.5,1.1,0.6,1.7,0.6l5.4,0c0.9,0,1.6-0.7,1.6-1.6C34.9-34.6,34.4-35.3,33.6-35.4z"/>
	<path fill="#666666" d="M21.6-43.7c-1.9,0-3.2-1.5-3.2-3.8s1.2-3.8,3.2-3.8c1.9,0,3.2,1.5,3.2,3.8S23.5-43.7,21.6-43.7z"/>
</g>
<g>
	<g id="jogging_4_">
		<path fill="none" stroke="#666666" stroke-miterlimit="10" d="M-37.5-33.9l-3.8-0.5c-0.9-0.1-1.3-0.4-1.8-1.1l-3.4-4.6
			c0,0,0,0,0,0c0,0-0.1-0.1-0.1-0.1c0,0,0,0,0,0c0,0,0,0,0,0c-0.2-0.1-4.1-2-8.6,0.8l-2.6,1.7c-1.7,1.1-2.4,2.5-2.4,4.5v6
			c0,0.9,0.7,1.6,1.6,1.6c0.8,0,1.5-0.6,1.6-1.4c0-0.2,0.6-4.8,0.6-6c0.1-0.8,0.1-1.1,0.9-1.6c0.5-0.3,1.1-0.7,1.7-1.1v5.6
			c0,0.8,0.2,1.7,0.4,2.4l-3.3,5.3c0,0-0.4,0.6-1,0.6l-7.4,0.6c-0.8,0.1-1.3,0.8-1.3,1.6c0,0.9,0.7,1.6,1.6,1.6h8c1.2,0,2-0.4,3-1.4
			l3.3-3.4l7.8,11.6c0.3,0.5,0.8,0.8,1.4,0.8c0.9,0,1.6-0.7,1.6-1.6c0-0.3-0.1-0.6-0.3-0.9c-0.5-0.8-3.4-5.7-4.5-7.4
			c-1.1-1.8-1.6-2.6-1.6-4.8v-8.1l1.4,1.7c0,0,0,0,0,0c0,0,0,0,0,0c0.5,0.5,1.1,0.6,1.7,0.6l5.4,0c0.9,0,1.6-0.7,1.6-1.6
			C-36.2-33.1-36.7-33.7-37.5-33.9z"/>
		<path fill="none" stroke="#666666" stroke-miterlimit="10" d="M-49.5-42.2c-1.9,0-3.2-1.5-3.2-3.8s1.2-3.8,3.2-3.8
			c1.9,0,3.2,1.5,3.2,3.8S-47.6-42.2-49.5-42.2z"/>
	</g>
	<g>
		<path fill="#666666" d="M-43.2-17.5c1.2,2,2.5,4.2,2.8,4.7c0.2,0.3,0.3,0.5,0.3,0.8c0,0.9-0.7,1.6-1.6,1.6c-0.5,0-1-0.2-1.4-0.7
			l-4.3-6.3H-43.2z"/>
	</g>
</g>
<g id="cycling_4_">
	<path fill="#666666" d="M8.2,39.3c-4.5,0-8.2-3.7-8.2-8.2s3.7-8.2,8.2-8.2s8.2,3.7,8.2,8.2S12.8,39.3,8.2,39.3z M8.2,24.1
		c-3.8,0-7,3.1-7,7s3.1,7,7,7c3.8,0,7-3.1,7-7S12.1,24.1,8.2,24.1z"/>
	<path fill="#666666" d="M31.1,39.3c-4.5,0-8.2-3.7-8.2-8.2s3.7-8.2,8.2-8.2s8.2,3.7,8.2,8.2S35.6,39.3,31.1,39.3z M31.1,24.1
		c-3.8,0-7,3.1-7,7s3.1,7,7,7c3.8,0,7-3.1,7-7S34.9,24.1,31.1,24.1z"/>
	<path fill="#666666" d="M27.6,14.8C27.6,14.8,27.6,14.8,27.6,14.8C27.6,14.8,27.6,14.8,27.6,14.8l-3.9-5.4c0,0,0,0,0-0.1
		c-0.9-1.1-2.3-1.8-3.7-1.8c-1.6,0-3.1,0.8-4,2.1l-3.2,5.1c-0.1,0.2-0.3,0.3-0.8,0.4l-5.4,0.6c-0.9,0.1-1.5,0.8-1.5,1.6
		c0,0.9,0.7,1.6,1.6,1.6l5.7,0c1.7,0,2.5-0.4,3.4-1.8l1.9-3l4,5.5l-2.5,3.5L19,23.4c-0.7,0.9-1.3,1.7-1.3,3.2v7.4
		c0,0.9,0.7,1.6,1.6,1.6c0.8,0,1.5-0.6,1.6-1.5l0.6-7.3c0-0.4,0.1-0.6,0.5-1l5.4-5.3C29,18.9,29,16.8,27.6,14.8z"/>
	<path fill="#666666" d="M15.3,7.6L15.3,7.6c-1.2,0-2.3-0.7-3.1-2.1c-1.3-2-1-3.9,0.6-5c1.6-1.1,3.5-0.4,4.8,1.5c1.3,2,1,3.9-0.6,5
		C16.4,7.4,15.9,7.6,15.3,7.6z"/>
</g>
<g>
	<g id="cycling_1_">
		<path fill="none" stroke="#666666" stroke-miterlimit="10" d="M-62.7,40.5c-4.5,0-8.2-3.7-8.2-8.2s3.7-8.2,8.2-8.2
			s8.2,3.7,8.2,8.2S-58.2,40.5-62.7,40.5z M-62.7,25.3c-3.8,0-7,3.1-7,7s3.1,7,7,7c3.8,0,7-3.1,7-7S-58.9,25.3-62.7,25.3z"/>
		<path fill="none" stroke="#666666" stroke-miterlimit="10" d="M-39.9,40.5c-4.5,0-8.2-3.7-8.2-8.2s3.7-8.2,8.2-8.2
			s8.2,3.7,8.2,8.2S-35.4,40.5-39.9,40.5z M-39.9,25.3c-3.8,0-7,3.1-7,7s3.1,7,7,7c3.8,0,7-3.1,7-7S-36.1,25.3-39.9,25.3z"/>
		<path fill="none" stroke="#666666" stroke-miterlimit="10" d="M-43.4,16C-43.4,16-43.4,16-43.4,16C-43.4,16-43.4,16-43.4,16
			l-3.9-5.4c0,0,0,0,0-0.1c-0.9-1.1-2.3-1.8-3.7-1.8c-1.6,0-3.1,0.8-4,2.1l-3.2,5.1c-0.1,0.2-0.3,0.3-0.8,0.4l-5.4,0.6
			c-0.9,0.1-1.5,0.8-1.5,1.6c0,0.9,0.7,1.6,1.6,1.6l5.7,0c1.7,0,2.5-0.4,3.4-1.8l1.9-3l4,5.5l-2.5,3.5l-0.1,0.2
			c-0.7,0.9-1.3,1.7-1.3,3.2v7.4c0,0.9,0.7,1.6,1.6,1.6c0.8,0,1.5-0.6,1.6-1.5l0.6-7.3c0-0.4,0.1-0.6,0.5-1l5.4-5.3
			C-42,20.1-42,18.1-43.4,16z"/>
		<path fill="none" stroke="#666666" stroke-miterlimit="10" d="M-55.7,8.8L-55.7,8.8c-1.2,0-2.3-0.7-3.1-2.1c-1.3-2-1-3.9,0.6-5
			c1.6-1.1,3.5-0.4,4.8,1.5c1.3,2,1,3.9-0.6,5C-54.6,8.6-55.1,8.8-55.7,8.8z"/>
	</g>
	<g>
		<path fill="#666666" d="M-54.7,32.3C-54.7,32.3-54.7,32.3-54.7,32.3c0,4.6-3.7,8.3-8.2,8.3c-4.5,0-8.2-4-8.2-8.6
			c0-0.1,0-0.5,0-0.5h1.3c0,0,0,0.4,0,0.5c0,3.8,3.1,7.1,7,7.1c3.8,0,7-2.9,7-6.8c0-0.1,0-0.1,0-0.1"/>
		<path fill="#666666" d="M-50.1,31.9l-0.2,3.2c-0.1,0.9-0.8,1.6-1.6,1.6c-0.9,0-1.6-0.7-1.6-1.5v-3.7"/>
		<path fill="#666666" d="M-31.9,32.3C-31.9,32.3-31.8,32.3-31.9,32.3c0,4.6-3.7,8.3-8.2,8.3c-4.5,0-8.2-4-8.2-8.6
			c0-0.1,0-0.5,0-0.5h1.3c0,0,0,0.4,0,0.5c0,3.8,3.1,7.1,7,7.1c3.8,0,7-2.9,7-6.8c0-0.1,0-0.1,0-0.1"/>
	</g>
</g>
<g id="heart_3_">
	<path fill="#666666" d="M19.7,137.5c-0.2,0-0.3-0.1-0.5-0.2l-13.9-14c-1.8-1.8-2.8-4.2-2.8-6.7c0-2.5,1-4.9,2.8-6.7
		c1.8-1.8,4.2-2.8,6.7-2.8c2.5,0,4.9,1,6.7,2.8l0.9,0.8l0.9-0.8c1.8-1.8,4.2-2.8,6.7-2.8c2.5,0,4.9,1,6.7,2.8
		c1.8,1.8,2.8,4.2,2.8,6.7c0,2.5-1,4.9-2.8,6.7l-13.9,14C20,137.4,19.8,137.5,19.7,137.5z"/>
</g>
<g>
	<g id="heart_1_">
		<path fill="none" stroke="#666666" stroke-miterlimit="10" d="M-51.4,138.1c-0.2,0-0.3-0.1-0.5-0.2l-13.9-14
			c-1.8-1.8-2.8-4.2-2.8-6.7c0-2.5,1-4.9,2.8-6.7c1.8-1.8,4.2-2.8,6.7-2.8c2.5,0,4.9,1,6.7,2.8l0.9,0.8l0.9-0.8
			c1.8-1.8,4.2-2.8,6.7-2.8c2.5,0,4.9,1,6.7,2.8c1.8,1.8,2.8,4.2,2.8,6.7s-1,4.9-2.8,6.7l-13.9,14C-51.1,138-51.2,138.1-51.4,138.1z
			"/>
	</g>
	<path fill="#666666" d="M-60.1,129.5l8,8.2c0.1,0.1,0.3,0.3,0.5,0.3s0.3-0.2,0.5-0.3l8-8.2H-60.1z"/>
</g>
<g id="weight_x5F_lifting_3_">
	<path fill="#666666" d="M23.5,174.9c0-1.5,0.3-2.1,1.4-3.3l9.5-9.9c0.3-0.3,0.5-0.7,0.5-1.1s-0.2-0.8-0.5-1.1
		c-0.6-0.6-1.7-0.6-2.2,0l-9.7,8.8c-0.6,0.6-1.3,0.9-2.3,0.9l-0.6,0c-0.6,0-1.2,0.2-1.8,0.4L7.1,159.4c-0.6-0.6-1.6-0.6-2.2,0
		c-0.6,0.6-0.6,1.6,0,2.2l11,11.5v5.5l-5.2,0.6c-1.5,0.2-2.5,1.2-2.5,2.5v9.8c0,0.9,0.7,1.6,1.6,1.6c0.8,0,1.5-0.6,1.6-1.5
		c0.5-7.6,0.6-8,0.6-8c0-0.4,0.1-0.6,0.7-0.6h7c0.1,0,0.3,0,0.4,0l9.6,9.7c0.3,0.3,0.7,0.5,1.1,0.5h0c0.4,0,0.8-0.2,1.1-0.5
		c0.3-0.3,0.5-0.7,0.5-1.1c0-0.4-0.2-0.8-0.4-1.1l-8.6-10.1c0.1-0.4,0.2-0.8,0.2-1.2V174.9z"/>
	<path fill="#666666" d="M19,167.8c-1.9,0-3.2-1.5-3.2-3.8s1.2-3.8,3.2-3.8c1.9,0,3.2,1.5,3.2,3.8S21,167.8,19,167.8z"/>
	<path fill="#666666" d="M39.3,157.7h-0.6v-1.9c0-0.4-0.3-0.6-0.6-0.6c-0.4,0-0.6,0.3-0.6,0.6v-1.3c0-0.4-0.3-0.6-0.6-0.6
		c-0.4,0-0.6,0.3-0.6,0.6v3.2h-33v-3.2c0-0.4-0.3-0.6-0.6-0.6c-0.4,0-0.6,0.3-0.6,0.6v1.3c0-0.4-0.3-0.6-0.6-0.6
		c-0.4,0-0.6,0.3-0.6,0.6v1.9H0c-0.4,0-0.6,0.3-0.6,0.6c0,0.4,0.3,0.6,0.6,0.6h0.6v1.9c0,0.4,0.3,0.6,0.6,0.6c0.4,0,0.6-0.3,0.6-0.6
		v1.3c0,0.4,0.3,0.6,0.6,0.6c0.4,0,0.6-0.3,0.6-0.6v-3.2h33v3.2c0,0.4,0.3,0.6,0.6,0.6c0.4,0,0.6-0.3,0.6-0.6v-1.3
		c0,0.4,0.3,0.6,0.6,0.6c0.4,0,0.6-0.3,0.6-0.6v-1.9h0.6c0.4,0,0.6-0.3,0.6-0.6C40,158,39.7,157.7,39.3,157.7z"/>
</g>
<g>
	<g id="weight_x5F_lifting_1_">
		<path fill="none" stroke="#666666" stroke-miterlimit="10" d="M-47.6,175.1c0-1.5,0.3-2.1,1.4-3.3l9.5-9.9
			c0.3-0.3,0.5-0.7,0.5-1.1s-0.2-0.8-0.5-1.1c-0.6-0.6-1.7-0.6-2.2,0l-9.7,8.8c-0.6,0.6-1.3,0.9-2.3,0.9l-0.6,0
			c-0.6,0-1.2,0.2-1.8,0.4l-10.7-10.1c-0.6-0.6-1.6-0.6-2.2,0c-0.6,0.6-0.6,1.6,0,2.2l11,11.5v5.5l-5.2,0.6
			c-1.5,0.2-2.5,1.2-2.5,2.5v9.8c0,0.9,0.7,1.6,1.6,1.6c0.8,0,1.5-0.6,1.6-1.5c0.5-7.6,0.6-8,0.6-8c0-0.4,0.1-0.6,0.7-0.6h7
			c0.1,0,0.3,0,0.4,0l9.6,9.7c0.3,0.3,0.7,0.5,1.1,0.5c0,0,0,0,0,0c0.4,0,0.8-0.2,1.1-0.5c0.3-0.3,0.5-0.7,0.5-1.1
			c0-0.4-0.2-0.8-0.4-1.1l-8.6-10.1c0.1-0.4,0.2-0.8,0.2-1.2V175.1z"/>
		<path fill="none" stroke="#666666" stroke-miterlimit="10" d="M-52,168c-1.9,0-3.2-1.5-3.2-3.8s1.2-3.8,3.2-3.8
			c1.9,0,3.2,1.5,3.2,3.8S-50.1,168-52,168z"/>
		<path fill="none" stroke="#666666" stroke-miterlimit="10" d="M-31.8,157.9h-0.6V156c0-0.4-0.3-0.6-0.6-0.6
			c-0.4,0-0.6,0.3-0.6,0.6v-1.3c0-0.4-0.3-0.6-0.6-0.6c-0.4,0-0.6,0.3-0.6,0.6v3.2h-33v-3.2c0-0.4-0.3-0.6-0.6-0.6
			c-0.4,0-0.6,0.3-0.6,0.6v1.3c0-0.4-0.3-0.6-0.6-0.6c-0.4,0-0.6,0.3-0.6,0.6v1.9h-0.6c-0.4,0-0.6,0.3-0.6,0.6
			c0,0.4,0.3,0.6,0.6,0.6h0.6v1.9c0,0.4,0.3,0.6,0.6,0.6c0.4,0,0.6-0.3,0.6-0.6v1.3c0,0.4,0.3,0.6,0.6,0.6c0.4,0,0.6-0.3,0.6-0.6
			v-3.2h33v3.2c0,0.4,0.3,0.6,0.6,0.6c0.4,0,0.6-0.3,0.6-0.6V161c0,0.4,0.3,0.6,0.6,0.6c0.4,0,0.6-0.3,0.6-0.6v-1.9h0.6
			c0.4,0,0.6-0.3,0.6-0.6C-31.1,158.1-31.4,157.9-31.8,157.9z"/>
	</g>
	<g>
		<path fill="#666666" d="M-41.5,193.3c0.3,0.3,1,0.3,1,0.3v0c1,0,0.9-0.2,1.2-0.5c0.3-0.3,0.5-0.7,0.5-1.1c0-0.4-0.1-0.7-0.4-0.9
			l-1.5-1.6h-4.7L-41.5,193.3z"/>
		<path fill="#666666" d="M-61.1,193.6c0.8,0,1.4-0.5,1.5-1.4c0.1-1.1,0.1-1.8,0.1-2.8h-3.1v2.6C-62.5,192.9-62,193.6-61.1,193.6z"
			/>
	</g>
</g>
<g id="star_x5F_jumps_4_">
	<path fill="#666666" d="M19.7,213.4c-1.9,0-3.2-1.5-3.2-3.8s1.2-3.8,3.2-3.8c1.9,0,3.2,1.5,3.2,3.8S21.6,213.4,19.7,213.4z"/>
	<path fill="#666666" d="M27.6,243.8c-0.7,0-1.3-0.4-1.5-1l-5.3-13.3c0-0.1-0.3-0.9-1.1-0.9c-0.8,0-1.1,0.7-1.1,0.8l-5.3,13.3
		c-0.2,0.6-0.8,1.1-1.5,1.1c-0.9,0-1.6-0.7-1.6-1.6c0-0.2,0-0.4,0.1-0.5l4.6-12.7c0.3-0.8,0.4-1.3,0.4-2.3v-8.3l-11.1-0.6
		c0,0,0,0,0,0c-0.8,0-1.6-0.7-1.6-1.6c0-0.9,0.7-1.6,1.6-1.6h31.1c0.9,0,1.6,0.7,1.6,1.6c0,0.9-0.7,1.6-1.6,1.6l-11.1,0.6l0,8.3
		c0,0.9,0.1,1.5,0.4,2.3l4.6,12.8c0.1,0.2,0.1,0.3,0.1,0.5C29.2,243.1,28.5,243.8,27.6,243.8z"/>
</g>
<g>
	<g id="star_x5F_jumps_1_">
		<path fill="none" stroke="#666666" stroke-miterlimit="10" d="M-51.4,213.4c-1.9,0-3.2-1.5-3.2-3.8s1.2-3.8,3.2-3.8
			c1.9,0,3.2,1.5,3.2,3.8S-49.5,213.4-51.4,213.4z"/>
		<path fill="none" stroke="#666666" stroke-miterlimit="10" d="M-43.5,243.8c-0.7,0-1.3-0.4-1.5-1l-5.3-13.3c0-0.1-0.3-0.9-1.1-0.9
			c-0.8,0-1.1,0.7-1.1,0.8l-5.3,13.3c-0.2,0.6-0.8,1.1-1.5,1.1c-0.9,0-1.6-0.7-1.6-1.6c0-0.2,0-0.4,0.1-0.5l4.6-12.7
			c0.3-0.8,0.4-1.3,0.4-2.3v-8.3l-11.1-0.6c0,0,0,0,0,0c-0.8,0-1.6-0.7-1.6-1.6c0-0.9,0.7-1.6,1.6-1.6h31.1c0.9,0,1.6,0.7,1.6,1.6
			c0,0.9-0.7,1.6-1.6,1.6l-11.1,0.6l0,8.3c0,0.9,0.1,1.5,0.4,2.3l4.6,12.8c0.1,0.2,0.1,0.3,0.1,0.5
			C-41.9,243.1-42.6,243.8-43.5,243.8z"/>
	</g>
	<g>
		<path fill="#666666" d="M-45,242.7c0.2,0.6,0.8,1.1,1.5,1.1c0.9,0,1.6-0.7,1.6-1.6c0-0.1,0-0.4-0.1-0.6l-1.5-4.2H-47L-45,242.7z"
			/>
		<path fill="#666666" d="M-59.4,243.8c0.7,0,1.3-0.6,1.5-1.2l2-5.2h-3.6l-1.4,4.1c-0.1,0.2-0.1,0.4-0.1,0.6
			C-61,243.1-60.3,243.8-59.4,243.8z"/>
	</g>
</g>
<g id="football_3_">
	<path fill="#666666" d="M31.2,56.5c-9.1,0-15.7,2.1-20.1,6.5c-4.4,4.4-6.5,11-6.5,20.1c0,1.2,1,2.2,2.2,2.2
		c9.1,0,15.7-2.1,20.1-6.5c4.4-4.4,6.5-11,6.5-20.1C33.4,57.5,32.4,56.5,31.2,56.5z M25,70.2c-0.1,0.1-0.2,0.2-0.4,0.2
		c-0.1,0-0.3-0.1-0.4-0.2l-1.8-1.8l-1.4,1.4l1.8,1.8c0.2,0.2,0.2,0.6,0,0.8c-0.1,0.1-0.2,0.2-0.4,0.2c-0.1,0-0.3-0.1-0.4-0.2
		l-1.8-1.8l-1.4,1.4l1.8,1.8c0.2,0.2,0.2,0.6,0,0.8c-0.1,0.1-0.2,0.2-0.4,0.2c-0.1,0-0.3-0.1-0.4-0.2l-1.8-1.8l-1.4,1.4l1.8,1.8
		c0.2,0.2,0.2,0.6,0,0.8C18.2,77,18.1,77,17.9,77c-0.1,0-0.3-0.1-0.4-0.2l-1.8-1.8l-1.3,1.3c-0.1,0.1-0.2,0.2-0.4,0.2
		c-0.1,0-0.3-0.1-0.4-0.2c-0.2-0.2-0.2-0.6,0-0.8l1.3-1.3l-1.8-1.8c-0.2-0.2-0.2-0.6,0-0.8c0.2-0.2,0.6-0.2,0.8,0l1.8,1.8l1.4-1.4
		l-1.8-1.8c-0.2-0.2-0.2-0.6,0-0.8c0.2-0.2,0.6-0.2,0.8,0l1.8,1.8l1.4-1.4L17.5,68c-0.2-0.2-0.2-0.6,0-0.8c0.2-0.2,0.6-0.2,0.8,0
		l1.8,1.8l1.4-1.4l-1.8-1.8c-0.2-0.2-0.2-0.6,0-0.8c0.2-0.2,0.6-0.2,0.8,0l1.8,1.8l1.3-1.3c0.2-0.2,0.6-0.2,0.8,0
		c0.2,0.2,0.2,0.6,0,0.8l-1.3,1.3l1.8,1.8C25.2,69.7,25.2,70,25,70.2z"/>
</g>
<g>
	<g id="football_1_">
		<path fill="none" stroke="#666666" stroke-miterlimit="10" d="M-39.2,57.4c-9.1,0-15.7,2.1-20.1,6.5c-4.4,4.4-6.5,11-6.5,20.1
			c0,1.2,1,2.2,2.2,2.2c9.1,0,15.7-2.1,20.1-6.5c4.4-4.4,6.5-11,6.5-20.1C-37,58.4-38,57.4-39.2,57.4z M-45.5,71.1
			c-0.1,0.1-0.2,0.2-0.4,0.2c-0.1,0-0.3-0.1-0.4-0.2l-1.8-1.8l-1.4,1.4l1.8,1.8c0.2,0.2,0.2,0.6,0,0.8c-0.1,0.1-0.2,0.2-0.4,0.2
			c-0.1,0-0.3-0.1-0.4-0.2l-1.8-1.8l-1.4,1.4l1.8,1.8c0.2,0.2,0.2,0.6,0,0.8c-0.1,0.1-0.2,0.2-0.4,0.2c-0.1,0-0.3-0.1-0.4-0.2
			l-1.8-1.8l-1.4,1.4l1.8,1.8c0.2,0.2,0.2,0.6,0,0.8c-0.1,0.1-0.2,0.2-0.4,0.2c-0.1,0-0.3-0.1-0.4-0.2l-1.8-1.8l-1.3,1.3
			c-0.1,0.1-0.2,0.2-0.4,0.2c-0.1,0-0.3-0.1-0.4-0.2c-0.2-0.2-0.2-0.6,0-0.8l1.3-1.3l-1.8-1.8c-0.2-0.2-0.2-0.6,0-0.8
			c0.2-0.2,0.6-0.2,0.8,0l1.8,1.8l1.4-1.4l-1.8-1.8c-0.2-0.2-0.2-0.6,0-0.8c0.2-0.2,0.6-0.2,0.8,0l1.8,1.8l1.4-1.4l-1.8-1.8
			c-0.2-0.2-0.2-0.6,0-0.8c0.2-0.2,0.6-0.2,0.8,0l1.8,1.8l1.4-1.4l-1.8-1.8c-0.2-0.2-0.2-0.6,0-0.8c0.2-0.2,0.6-0.2,0.8,0l1.8,1.8
			l1.3-1.3c0.2-0.2,0.6-0.2,0.8,0c0.2,0.2,0.2,0.6,0,0.8l-1.3,1.3l1.8,1.8C-45.3,70.5-45.3,70.9-45.5,71.1z"/>
	</g>
	<path fill="#666666" d="M-65.2,79.5c-0.1,1-0.2,3-0.2,4.6c0,1.2,1,2.2,2.2,2.2c9.1,0,15.7-2.1,20.1-6.5c0.1-0.1,0.3-0.3,0.4-0.3
		H-65.2z"/>
</g>
</svg>
