<?xml version="1.0" encoding="utf-8"?>
<!-- Generator: Adobe Illustrator 19.1.0, SVG Export Plug-In . SVG Version: 6.00 Build 0)  -->
<svg version="1.1" id="Layer_1" xmlns="http://www.w3.org/2000/svg" xmlns:xlink="http://www.w3.org/1999/xlink" x="0px" y="0px"
	 viewBox="0 0 40.3 40.3" enable-background="new 0 0 40.3 40.3" xml:space="preserve">
<g id="TsTfYo.tif">
	
		<image overflow="visible" width="1692" height="860" id="Layer_0_1_" xlink:href="785D81D2B071B897.png"  transform="matrix(0.4024 0 0 0.4024 132.7654 -100.2295)">
	</image>
</g>
<g id="walking_1_">
	<path fill="#666666" d="M92.4-95.7c-1.9,0-3.2-1.5-3.2-3.8c0-2.3,1.2-3.8,3.2-3.8c1.9,0,3.2,1.5,3.2,3.8
		C95.6-97.2,94.3-95.7,92.4-95.7z"/>
	<path fill="#666666" d="M102.2-84.8l-4-1.8c-0.4-0.2-0.7-0.5-1.2-1.4l-1.5-3.5c-0.8-1.6-2.1-2.2-2.1-2.2c-1-0.4-2.1-0.6-3.3-0.6
		c-2,0-3.5,0.6-3.5,0.6L83-92.6c-1.1,0.4-2.3,1-2.7,3.1c0,0.1-0.1,0.6-1.2,5.8c0,0.1,0,0.3,0,0.4c0,0.9,0.7,1.6,1.6,1.6
		c0.8,0,1.4-0.5,1.6-1.3l1.6-5.3c0.1-0.4,0.2-0.6,0.8-0.8l2.2-0.7l-1.2,6.2c-0.1,0.4-0.2,0.8-0.2,1.2l0,0l-3.1,16.6
		c0,0.1,0,0.2,0,0.3c0,0.9,0.7,1.6,1.6,1.6c0.8,0,1.4-0.6,1.6-1.3l2.9-12.1c0.7,0.6,1.1,1,1.3,1.9l2.8,10.3c0.2,0.7,0.8,1.2,1.5,1.2
		c0.9,0,1.6-0.7,1.6-1.6c0-0.1,0-0.3-0.1-0.4c0,0,0,0,0,0L93-78.1c-0.3-1.2-0.3-2.4-0.1-3.6l0.8-4.1l0.1,0.2c0.4,0.9,0.9,1.6,1.9,2
		l5.5,1.8c0.8,0.3,1.7-0.2,2-1C103.4-83.6,103-84.4,102.2-84.8z"/>
</g>
<g>
	<g id="walking_4_">
		<path fill="none" stroke="#666666" stroke-miterlimit="10" d="M22.3-95.7c-1.9,0-3.2-1.5-3.2-3.8c0-2.3,1.2-3.8,3.2-3.8
			c1.9,0,3.2,1.5,3.2,3.8C25.4-97.2,24.2-95.7,22.3-95.7z"/>
		<path fill="none" stroke="#666666" stroke-miterlimit="10" d="M32-84.8l-4-1.8c-0.4-0.2-0.7-0.5-1.2-1.4l-1.5-3.5
			c-0.8-1.6-2.1-2.2-2.1-2.2c-1-0.4-2.1-0.6-3.3-0.6c-2,0-3.5,0.6-3.5,0.6l-3.5,1.2c-1.1,0.4-2.3,1-2.7,3.1c0,0.1-0.1,0.6-1.2,5.8
			c0,0.1,0,0.3,0,0.4c0,0.9,0.7,1.6,1.6,1.6c0.8,0,1.4-0.5,1.6-1.3l1.6-5.3c0.1-0.4,0.2-0.6,0.8-0.8l2.2-0.7l-1.2,6.2
			c-0.1,0.4-0.2,0.8-0.2,1.2l0,0l-3.1,16.6c0,0.1,0,0.2,0,0.3c0,0.9,0.7,1.6,1.6,1.6c0.8,0,1.4-0.6,1.6-1.3l2.9-12.1
			c0.7,0.6,1.1,1,1.3,1.9l2.8,10.3c0.2,0.7,0.8,1.2,1.5,1.2c0.9,0,1.6-0.7,1.6-1.6c0-0.1,0-0.3-0.1-0.4c0,0,0,0,0,0l-2.6-12.1
			c-0.3-1.2-0.3-2.4-0.1-3.6l0.8-4.1l0.1,0.2c0.4,0.9,0.9,1.6,1.9,2l5.5,1.8c0.8,0.3,1.7-0.2,2-1C33.2-83.6,32.8-84.4,32-84.8z"/>
	</g>
	<g>
		<defs>
			<rect id="SVGID_1_" x="7.1" y="-69.6" width="25.9" height="9.3"/>
		</defs>
		<clipPath id="SVGID_2_">
			<use xlink:href="#SVGID_1_"  overflow="visible"/>
		</clipPath>
		<g id="walking_2_" clip-path="url(#SVGID_2_)">
			<path fill="#666666" d="M22.2-95.5c-1.9,0-3.2-1.5-3.2-3.8c0-2.3,1.2-3.8,3.2-3.8c1.9,0,3.2,1.5,3.2,3.8
				C25.3-97,24.1-95.5,22.2-95.5z"/>
			<path fill="#666666" d="M31.9-84.7l-4-1.8c-0.4-0.2-0.7-0.5-1.2-1.4l-1.5-3.5c-0.8-1.6-2.1-2.2-2.1-2.2c-1-0.4-2.1-0.6-3.3-0.6
				c-2,0-3.5,0.6-3.5,0.6l-3.5,1.2c-1.1,0.4-2.3,1-2.7,3.1c0,0.1-0.1,0.6-1.2,5.8c0,0.1,0,0.3,0,0.4c0,0.9,0.7,1.6,1.6,1.6
				c0.8,0,1.4-0.5,1.6-1.3l1.6-5.3c0.1-0.4,0.2-0.6,0.8-0.8l2.2-0.7l-1.2,6.2c-0.1,0.4-0.2,0.8-0.2,1.2l0,0L12-65.7
				c0,0.1,0,0.2,0,0.3c0,0.9,0.7,1.6,1.6,1.6c0.8,0,1.4-0.6,1.6-1.3l2.9-12.1c0.7,0.6,1.1,1,1.3,1.9l2.8,10.3
				c0.2,0.7,0.8,1.2,1.5,1.2c0.9,0,1.6-0.7,1.6-1.6c0-0.1,0-0.3-0.1-0.4c0,0,0,0,0,0l-2.6-12.1c-0.3-1.2-0.3-2.4-0.1-3.6l0.8-4.1
				l0.1,0.2c0.4,0.9,0.9,1.6,1.9,2l5.5,1.8c0.8,0.3,1.7-0.2,2-1C33.1-83.5,32.7-84.3,31.9-84.7z"/>
		</g>
	</g>
</g>
<g id="jogging_1_">
	<path fill="#666666" d="M105.1-36.1l-3.8-0.5c-0.9-0.1-1.3-0.4-1.8-1.1l-3.4-4.6c0,0,0,0,0,0c0,0-0.1-0.1-0.1-0.1c0,0,0,0,0,0
		c0,0,0,0,0,0c-0.2-0.1-4.1-2-8.6,0.8l-2.6,1.7c-1.7,1.1-2.4,2.5-2.4,4.5v6c0,0.9,0.7,1.6,1.6,1.6c0.8,0,1.5-0.6,1.6-1.4
		c0-0.2,0.6-4.8,0.6-6c0.1-0.8,0.1-1.1,0.9-1.6c0.5-0.3,1.1-0.7,1.7-1.1v5.6c0,0.8,0.2,1.7,0.4,2.4l-3.3,5.3c0,0-0.4,0.6-1,0.6
		l-7.4,0.6c-0.8,0.1-1.3,0.8-1.3,1.6c0,0.9,0.7,1.6,1.6,1.6h8c1.2,0,2-0.4,3-1.4l3.3-3.4l7.8,11.6c0.3,0.5,0.8,0.8,1.4,0.8
		c0.9,0,1.6-0.7,1.6-1.6c0-0.3-0.1-0.6-0.3-0.9c-0.5-0.8-3.4-5.7-4.5-7.4c-1.1-1.8-1.6-2.6-1.6-4.8v-8.1l1.4,1.7c0,0,0,0,0,0
		c0,0,0,0,0,0c0.5,0.5,1.1,0.6,1.7,0.6l5.4,0c0.9,0,1.6-0.7,1.6-1.6C106.4-35.3,105.8-36,105.1-36.1z"/>
	<path fill="#666666" d="M93.1-44.4c-1.9,0-3.2-1.5-3.2-3.8c0-2.3,1.2-3.8,3.2-3.8c1.9,0,3.2,1.5,3.2,3.8
		C96.2-45.9,95-44.4,93.1-44.4z"/>
</g>
<g>
	<g id="jogging_4_">
		<path fill="none" stroke="#666666" stroke-miterlimit="10" d="M34-34.6l-3.8-0.5c-0.9-0.1-1.3-0.4-1.8-1.1L25-40.7c0,0,0,0,0,0
			c0,0-0.1-0.1-0.1-0.1c0,0,0,0,0,0c0,0,0,0,0,0c-0.2-0.1-4.1-2-8.6,0.8l-2.6,1.7c-1.7,1.1-2.4,2.5-2.4,4.5v6c0,0.9,0.7,1.6,1.6,1.6
			c0.8,0,1.5-0.6,1.6-1.4c0-0.2,0.6-4.8,0.6-6c0.1-0.8,0.1-1.1,0.9-1.6c0.5-0.3,1.1-0.7,1.7-1.1v5.6c0,0.8,0.2,1.7,0.4,2.4l-3.3,5.3
			c0,0-0.4,0.6-1,0.6l-7.4,0.6c-0.8,0.1-1.3,0.8-1.3,1.6c0,0.9,0.7,1.6,1.6,1.6h8c1.2,0,2-0.4,3-1.4l3.3-3.4l7.8,11.6
			c0.3,0.5,0.8,0.8,1.4,0.8c0.9,0,1.6-0.7,1.6-1.6c0-0.3-0.1-0.6-0.3-0.9c-0.5-0.8-3.4-5.7-4.5-7.4c-1.1-1.8-1.6-2.6-1.6-4.8v-8.1
			l1.4,1.7c0,0,0,0,0,0c0,0,0,0,0,0c0.5,0.5,1.1,0.6,1.7,0.6l5.4,0c0.9,0,1.6-0.7,1.6-1.6C35.3-33.8,34.8-34.4,34-34.6z"/>
		<path fill="none" stroke="#666666" stroke-miterlimit="10" d="M22-42.9c-1.9,0-3.2-1.5-3.2-3.8c0-2.3,1.2-3.8,3.2-3.8
			c1.9,0,3.2,1.5,3.2,3.8C25.1-44.4,23.9-42.9,22-42.9z"/>
	</g>
	<g>
		<path fill="#666666" d="M28.3-18.2c1.2,2,2.5,4.2,2.8,4.7c0.2,0.3,0.3,0.5,0.3,0.8c0,0.9-0.7,1.6-1.6,1.6c-0.5,0-1-0.2-1.4-0.7
			l-4.3-6.3H28.3z"/>
	</g>
</g>
<g id="cycling_4_">
	<path fill="#666666" d="M79.7,38.6c-4.5,0-8.2-3.7-8.2-8.2s3.7-8.2,8.2-8.2s8.2,3.7,8.2,8.2S84.3,38.6,79.7,38.6z M79.7,23.4
		c-3.8,0-7,3.1-7,7s3.1,7,7,7c3.8,0,7-3.1,7-7S83.6,23.4,79.7,23.4z"/>
	<path fill="#666666" d="M102.6,38.6c-4.5,0-8.2-3.7-8.2-8.2s3.7-8.2,8.2-8.2s8.2,3.7,8.2,8.2S107.1,38.6,102.6,38.6z M102.6,23.4
		c-3.8,0-7,3.1-7,7s3.1,7,7,7c3.8,0,7-3.1,7-7S106.4,23.4,102.6,23.4z"/>
	<path fill="#666666" d="M99.1,14.1C99.1,14.1,99.1,14.1,99.1,14.1C99.1,14.1,99.1,14.1,99.1,14.1l-3.9-5.4c0,0,0,0,0-0.1
		c-0.9-1.1-2.3-1.8-3.7-1.8c-1.6,0-3.1,0.8-4,2.1l-3.2,5.1c-0.1,0.2-0.3,0.3-0.8,0.4L78,15.1c-0.9,0.1-1.5,0.8-1.5,1.6
		c0,0.9,0.7,1.6,1.6,1.6l5.7,0c1.7,0,2.5-0.4,3.4-1.8l1.9-3l4,5.5l-2.5,3.5l-0.1,0.2c-0.7,0.9-1.3,1.7-1.3,3.2v7.4
		c0,0.9,0.7,1.6,1.6,1.6c0.8,0,1.5-0.6,1.6-1.5L93,26c0-0.4,0.1-0.6,0.5-1l5.4-5.3C100.4,18.2,100.5,16.1,99.1,14.1z"/>
	<path fill="#666666" d="M86.8,6.9L86.8,6.9c-1.2,0-2.3-0.7-3.1-2.1c-1.3-2-1-3.9,0.6-5c1.6-1.1,3.5-0.4,4.8,1.5c1.3,2,1,3.9-0.6,5
		C87.9,6.7,87.4,6.9,86.8,6.9z"/>
</g>
<g>
	<g id="cycling_1_">
		<path fill="none" stroke="#666666" stroke-miterlimit="10" d="M8.7,39.8c-4.5,0-8.2-3.7-8.2-8.2s3.7-8.2,8.2-8.2S17,27,17,31.6
			S13.3,39.8,8.7,39.8z M8.7,24.6c-3.8,0-7,3.1-7,7s3.1,7,7,7c3.8,0,7-3.1,7-7S12.6,24.6,8.7,24.6z"/>
		<path fill="none" stroke="#666666" stroke-miterlimit="10" d="M31.6,39.8c-4.5,0-8.2-3.7-8.2-8.2s3.7-8.2,8.2-8.2s8.2,3.7,8.2,8.2
			S36.1,39.8,31.6,39.8z M31.6,24.6c-3.8,0-7,3.1-7,7s3.1,7,7,7c3.8,0,7-3.1,7-7S35.4,24.6,31.6,24.6z"/>
		<path fill="none" stroke="#666666" stroke-miterlimit="10" d="M28.1,15.3C28.1,15.3,28.1,15.3,28.1,15.3
			C28.1,15.3,28.1,15.3,28.1,15.3l-3.9-5.4c0,0,0,0,0-0.1c-0.9-1.1-2.3-1.8-3.7-1.8c-1.6,0-3.1,0.8-4,2.1l-3.2,5.1
			c-0.1,0.2-0.3,0.3-0.8,0.4l-5.4,0.6c-0.9,0.1-1.5,0.8-1.5,1.6c0,0.9,0.7,1.6,1.6,1.6l5.7,0c1.7,0,2.5-0.4,3.4-1.8l1.9-3l4,5.5
			l-2.5,3.5l-0.1,0.2c-0.7,0.9-1.3,1.7-1.3,3.2v7.4c0,0.9,0.7,1.6,1.6,1.6c0.8,0,1.5-0.6,1.6-1.5l0.6-7.3c0-0.4,0.1-0.6,0.5-1
			l5.4-5.3C29.5,19.4,29.5,17.3,28.1,15.3z"/>
		<path fill="none" stroke="#666666" stroke-miterlimit="10" d="M15.8,8.1L15.8,8.1c-1.2,0-2.3-0.7-3.1-2.1c-1.3-2-1-3.9,0.6-5
			C15,0,16.9,0.6,18.1,2.6c1.3,2,1,3.9-0.6,5C16.9,7.9,16.4,8.1,15.8,8.1z"/>
	</g>
	<g>
		<path fill="#666666" d="M16.8,31.6C16.8,31.6,16.8,31.6,16.8,31.6c0,4.6-3.7,8.3-8.2,8.3c-4.5,0-8.2-4-8.2-8.6c0-0.1,0-0.5,0-0.5
			h1.3c0,0,0,0.4,0,0.5c0,3.8,3.1,7.1,7,7.1c3.8,0,7-2.9,7-6.8c0-0.1,0-0.1,0-0.1"/>
		<path fill="#666666" d="M21.3,31.2l-0.2,3.2c-0.1,0.9-0.8,1.6-1.6,1.6c-0.9,0-1.6-0.7-1.6-1.5v-3.7"/>
		<path fill="#666666" d="M39.6,31.6C39.6,31.6,39.6,31.6,39.6,31.6c0,4.6-3.7,8.3-8.2,8.3c-4.5,0-8.2-4-8.2-8.6c0-0.1,0-0.5,0-0.5
			h1.3c0,0,0,0.4,0,0.5c0,3.8,3.1,7.1,7,7.1c3.8,0,7-2.9,7-6.8c0-0.1,0-0.1,0-0.1"/>
	</g>
</g>
<g id="heart_3_">
	<path fill="#666666" d="M91.2,136.8c-0.2,0-0.3-0.1-0.5-0.2l-13.9-14c-1.8-1.8-2.8-4.2-2.8-6.7c0-2.5,1-4.9,2.8-6.7
		c1.8-1.8,4.2-2.8,6.7-2.8c2.5,0,4.9,1,6.7,2.8l0.9,0.8l0.9-0.8c1.8-1.8,4.2-2.8,6.7-2.8c2.5,0,4.9,1,6.7,2.8
		c1.8,1.8,2.8,4.2,2.8,6.7s-1,4.9-2.8,6.7l-13.9,14C91.5,136.7,91.3,136.8,91.2,136.8z"/>
</g>
<g>
	<g id="heart_1_">
		<path fill="none" stroke="#666666" stroke-miterlimit="10" d="M20.1,137.4c-0.2,0-0.3-0.1-0.5-0.2l-13.9-14
			c-1.8-1.8-2.8-4.2-2.8-6.7c0-2.5,1-4.9,2.8-6.7c1.8-1.8,4.2-2.8,6.7-2.8c2.5,0,4.9,1,6.7,2.8l0.9,0.8l0.9-0.8
			c1.8-1.8,4.2-2.8,6.7-2.8c2.5,0,4.9,1,6.7,2.8c1.8,1.8,2.8,4.2,2.8,6.7c0,2.5-1,4.9-2.8,6.7l-13.9,14
			C20.4,137.3,20.2,137.4,20.1,137.4z"/>
	</g>
	<path fill="#666666" d="M11.4,128.8l8,8.2c0.1,0.1,0.3,0.3,0.5,0.3c0.2,0,0.3-0.2,0.5-0.3l8-8.2H11.4z"/>
</g>
<g id="weight_x5F_lifting_3_">
	<path fill="#666666" d="M95,174.2c0-1.5,0.3-2.1,1.4-3.3l9.5-9.9c0.3-0.3,0.5-0.7,0.5-1.1s-0.2-0.8-0.5-1.1c-0.6-0.6-1.7-0.6-2.2,0
		l-9.7,8.8c-0.6,0.6-1.3,0.9-2.3,0.9l-0.6,0c-0.6,0-1.2,0.2-1.8,0.4l-10.7-10.1c-0.6-0.6-1.6-0.6-2.2,0c-0.6,0.6-0.6,1.6,0,2.2
		l11,11.5v5.5l-5.2,0.6c-1.5,0.2-2.5,1.2-2.5,2.5v9.8c0,0.9,0.7,1.6,1.6,1.6c0.8,0,1.5-0.6,1.6-1.5c0.5-7.6,0.6-8,0.6-8
		c0-0.4,0.1-0.6,0.7-0.6h7c0.1,0,0.3,0,0.4,0l9.6,9.7c0.3,0.3,0.7,0.5,1.1,0.5h0c0.4,0,0.8-0.2,1.1-0.5c0.3-0.3,0.5-0.7,0.5-1.1
		c0-0.4-0.2-0.8-0.4-1.1l-8.6-10.1c0.1-0.4,0.2-0.8,0.2-1.2V174.2z"/>
	<path fill="#666666" d="M90.5,167.1c-1.9,0-3.2-1.5-3.2-3.8c0-2.3,1.2-3.8,3.2-3.8c1.9,0,3.2,1.5,3.2,3.8
		C93.7,165.6,92.4,167.1,90.5,167.1z"/>
	<path fill="#666666" d="M110.8,157h-0.6v-1.9c0-0.4-0.3-0.6-0.6-0.6c-0.4,0-0.6,0.3-0.6,0.6v-1.3c0-0.4-0.3-0.6-0.6-0.6
		c-0.4,0-0.6,0.3-0.6,0.6v3.2h-33v-3.2c0-0.4-0.3-0.6-0.6-0.6c-0.4,0-0.6,0.3-0.6,0.6v1.3c0-0.4-0.3-0.6-0.6-0.6
		c-0.4,0-0.6,0.3-0.6,0.6v1.9h-0.6c-0.4,0-0.6,0.3-0.6,0.6c0,0.4,0.3,0.6,0.6,0.6h0.6v1.9c0,0.4,0.3,0.6,0.6,0.6
		c0.4,0,0.6-0.3,0.6-0.6v1.3c0,0.4,0.3,0.6,0.6,0.6c0.4,0,0.6-0.3,0.6-0.6v-3.2h33v3.2c0,0.4,0.3,0.6,0.6,0.6c0.4,0,0.6-0.3,0.6-0.6
		v-1.3c0,0.4,0.3,0.6,0.6,0.6c0.4,0,0.6-0.3,0.6-0.6v-1.9h0.6c0.4,0,0.6-0.3,0.6-0.6C111.4,157.2,111.2,157,110.8,157z"/>
</g>
<g>
	<g id="weight_x5F_lifting_1_">
		<path fill="none" stroke="#666666" stroke-miterlimit="10" d="M23.9,174.4c0-1.5,0.3-2.1,1.4-3.3l9.5-9.9c0.3-0.3,0.5-0.7,0.5-1.1
			s-0.2-0.8-0.5-1.1c-0.6-0.6-1.7-0.6-2.2,0l-9.7,8.8c-0.6,0.6-1.3,0.9-2.3,0.9l-0.6,0c-0.6,0-1.2,0.2-1.8,0.4L7.6,158.9
			c-0.6-0.6-1.6-0.6-2.2,0c-0.6,0.6-0.6,1.6,0,2.2l11,11.5v5.5l-5.2,0.6c-1.5,0.2-2.5,1.2-2.5,2.5v9.8c0,0.9,0.7,1.6,1.6,1.6
			c0.8,0,1.5-0.6,1.6-1.5c0.5-7.6,0.6-8,0.6-8c0-0.4,0.1-0.6,0.7-0.6h7c0.1,0,0.3,0,0.4,0l9.6,9.7c0.3,0.3,0.7,0.5,1.1,0.5
			c0,0,0,0,0,0c0.4,0,0.8-0.2,1.1-0.5c0.3-0.3,0.5-0.7,0.5-1.1c0-0.4-0.2-0.8-0.4-1.1l-8.6-10.1c0.1-0.4,0.2-0.8,0.2-1.2V174.4z"/>
		<path fill="none" stroke="#666666" stroke-miterlimit="10" d="M19.4,167.3c-1.9,0-3.2-1.5-3.2-3.8s1.2-3.8,3.2-3.8
			c1.9,0,3.2,1.5,3.2,3.8S21.4,167.3,19.4,167.3z"/>
		<path fill="none" stroke="#666666" stroke-miterlimit="10" d="M39.7,157.2h-0.6v-1.9c0-0.4-0.3-0.6-0.6-0.6
			c-0.4,0-0.6,0.3-0.6,0.6V154c0-0.4-0.3-0.6-0.6-0.6c-0.4,0-0.6,0.3-0.6,0.6v3.2h-33V154c0-0.4-0.3-0.6-0.6-0.6
			c-0.4,0-0.6,0.3-0.6,0.6v1.3c0-0.4-0.3-0.6-0.6-0.6c-0.4,0-0.6,0.3-0.6,0.6v1.9H0.4c-0.4,0-0.6,0.3-0.6,0.6c0,0.4,0.3,0.6,0.6,0.6
			H1v1.9c0,0.4,0.3,0.6,0.6,0.6c0.4,0,0.6-0.3,0.6-0.6v1.3c0,0.4,0.3,0.6,0.6,0.6c0.4,0,0.6-0.3,0.6-0.6v-3.2h33v3.2
			c0,0.4,0.3,0.6,0.6,0.6c0.4,0,0.6-0.3,0.6-0.6v-1.3c0,0.4,0.3,0.6,0.6,0.6c0.4,0,0.6-0.3,0.6-0.6v-1.9h0.6c0.4,0,0.6-0.3,0.6-0.6
			C40.4,157.4,40.1,157.2,39.7,157.2z"/>
	</g>
	<g>
		<path fill="#666666" d="M29.9,192.6c0.3,0.3,1,0.3,1,0.3v0c1,0,0.9-0.2,1.2-0.5c0.3-0.3,0.5-0.7,0.5-1.1c0-0.4-0.1-0.7-0.4-0.9
			l-1.5-1.6h-4.7L29.9,192.6z"/>
		<path fill="#666666" d="M10.4,192.9c0.8,0,1.4-0.5,1.5-1.4c0.1-1.1,0.1-1.8,0.1-2.8H9v2.6C9,192.2,9.5,192.9,10.4,192.9z"/>
	</g>
</g>
<g id="star_x5F_jumps_4_">
	<path fill="#666666" d="M91.2,212.7c-1.9,0-3.2-1.5-3.2-3.8s1.2-3.8,3.2-3.8c1.9,0,3.2,1.5,3.2,3.8S93.1,212.7,91.2,212.7z"/>
	<path fill="#666666" d="M99.1,243.1c-0.7,0-1.3-0.4-1.5-1l-5.3-13.3c0-0.1-0.3-0.9-1.1-0.9c-0.8,0-1.1,0.7-1.1,0.8l-5.3,13.3
		c-0.2,0.6-0.8,1.1-1.5,1.1c-0.9,0-1.6-0.7-1.6-1.6c0-0.2,0-0.4,0.1-0.5l4.6-12.7c0.3-0.8,0.4-1.3,0.4-2.3v-8.3l-11.1-0.6
		c0,0,0,0,0,0c-0.8,0-1.6-0.7-1.6-1.6c0-0.9,0.7-1.6,1.6-1.6h31.1c0.9,0,1.6,0.7,1.6,1.6c0,0.9-0.7,1.6-1.6,1.6l-11.1,0.6l0,8.3
		c0,0.9,0.1,1.5,0.4,2.3l4.6,12.8c0.1,0.2,0.1,0.3,0.1,0.5C100.7,242.4,100,243.1,99.1,243.1z"/>
</g>
<g>
	<g id="star_x5F_jumps_1_">
		<path fill="none" stroke="#666666" stroke-miterlimit="10" d="M20.1,212.7c-1.9,0-3.2-1.5-3.2-3.8c0-2.3,1.2-3.8,3.2-3.8
			c1.9,0,3.2,1.5,3.2,3.8C23.2,211.2,22,212.7,20.1,212.7z"/>
		<path fill="none" stroke="#666666" stroke-miterlimit="10" d="M28,243.1c-0.7,0-1.3-0.4-1.5-1l-5.3-13.3c0-0.1-0.3-0.9-1.1-0.9
			c-0.8,0-1.1,0.7-1.1,0.8l-5.3,13.3c-0.2,0.6-0.8,1.1-1.5,1.1c-0.9,0-1.6-0.7-1.6-1.6c0-0.2,0-0.4,0.1-0.5l4.6-12.7
			c0.3-0.8,0.4-1.3,0.4-2.3v-8.3l-11.1-0.6c0,0,0,0,0,0c-0.8,0-1.6-0.7-1.6-1.6c0-0.9,0.7-1.6,1.6-1.6h31.1c0.9,0,1.6,0.7,1.6,1.6
			c0,0.9-0.7,1.6-1.6,1.6l-11.1,0.6l0,8.3c0,0.9,0.1,1.5,0.4,2.3l4.6,12.8c0.1,0.2,0.1,0.3,0.1,0.5C29.6,242.4,28.9,243.1,28,243.1z
			"/>
	</g>
	<g>
		<path fill="#666666" d="M26.5,242c0.2,0.6,0.8,1.1,1.5,1.1c0.9,0,1.6-0.7,1.6-1.6c0-0.1,0-0.4-0.1-0.6l-1.5-4.2h-3.6L26.5,242z"/>
		<path fill="#666666" d="M12.1,243.1c0.7,0,1.3-0.6,1.5-1.2l2-5.2h-3.6l-1.4,4.1c-0.1,0.2-0.1,0.4-0.1,0.6
			C10.5,242.4,11.2,243.1,12.1,243.1z"/>
	</g>
</g>
<g id="football_3_">
	<path fill="#666666" d="M102.7,55.8c-9.1,0-15.7,2.1-20.1,6.5c-4.4,4.4-6.5,11-6.5,20.1c0,1.2,1,2.2,2.2,2.2
		c9.1,0,15.7-2.1,20.1-6.5c4.4-4.4,6.5-11,6.5-20.1C104.9,56.8,103.9,55.8,102.7,55.8z M96.4,69.5c-0.1,0.1-0.2,0.2-0.4,0.2
		c-0.1,0-0.3-0.1-0.4-0.2l-1.8-1.8l-1.4,1.4l1.8,1.8c0.2,0.2,0.2,0.6,0,0.8c-0.1,0.1-0.2,0.2-0.4,0.2c-0.1,0-0.3-0.1-0.4-0.2
		l-1.8-1.8l-1.4,1.4l1.8,1.8c0.2,0.2,0.2,0.6,0,0.8c-0.1,0.1-0.2,0.2-0.4,0.2c-0.1,0-0.3-0.1-0.4-0.2l-1.8-1.8L88,73.6l1.8,1.8
		c0.2,0.2,0.2,0.6,0,0.8c-0.1,0.1-0.2,0.2-0.4,0.2c-0.1,0-0.3-0.1-0.4-0.2l-1.8-1.8l-1.3,1.3c-0.1,0.1-0.2,0.2-0.4,0.2
		c-0.1,0-0.3-0.1-0.4-0.2c-0.2-0.2-0.2-0.6,0-0.8l1.3-1.3l-1.8-1.8c-0.2-0.2-0.2-0.6,0-0.8c0.2-0.2,0.6-0.2,0.8,0l1.8,1.8l1.4-1.4
		l-1.8-1.8c-0.2-0.2-0.2-0.6,0-0.8c0.2-0.2,0.6-0.2,0.8,0l1.8,1.8l1.4-1.4L89,67.3c-0.2-0.2-0.2-0.6,0-0.8c0.2-0.2,0.6-0.2,0.8,0
		l1.8,1.8l1.4-1.4l-1.8-1.8c-0.2-0.2-0.2-0.6,0-0.8c0.2-0.2,0.6-0.2,0.8,0l1.8,1.8l1.3-1.3c0.2-0.2,0.6-0.2,0.8,0
		c0.2,0.2,0.2,0.6,0,0.8l-1.3,1.3l1.8,1.8C96.7,69,96.7,69.3,96.4,69.5z"/>
</g>
<g>
	<g id="football_1_">
		<path fill="none" stroke="#666666" stroke-miterlimit="10" d="M32.3,56.7c-9.1,0-15.7,2.1-20.1,6.5c-4.4,4.4-6.5,11-6.5,20.1
			c0,1.2,1,2.2,2.2,2.2c9.1,0,15.7-2.1,20.1-6.5c4.4-4.4,6.5-11,6.5-20.1C34.5,57.7,33.5,56.7,32.3,56.7z M26,70.4
			c-0.1,0.1-0.2,0.2-0.4,0.2c-0.1,0-0.3-0.1-0.4-0.2l-1.8-1.8L22,70l1.8,1.8c0.2,0.2,0.2,0.6,0,0.8c-0.1,0.1-0.2,0.2-0.4,0.2
			c-0.1,0-0.3-0.1-0.4-0.2l-1.8-1.8l-1.4,1.4l1.8,1.8c0.2,0.2,0.2,0.6,0,0.8c-0.1,0.1-0.2,0.2-0.4,0.2c-0.1,0-0.3-0.1-0.4-0.2L19,73
			l-1.4,1.4l1.8,1.8c0.2,0.2,0.2,0.6,0,0.8c-0.1,0.1-0.2,0.2-0.4,0.2c-0.1,0-0.3-0.1-0.4-0.2l-1.8-1.8l-1.3,1.3
			c-0.1,0.1-0.2,0.2-0.4,0.2c-0.1,0-0.3-0.1-0.4-0.2c-0.2-0.2-0.2-0.6,0-0.8l1.3-1.3l-1.8-1.8c-0.2-0.2-0.2-0.6,0-0.8
			c0.2-0.2,0.6-0.2,0.8,0l1.8,1.8l1.4-1.4l-1.8-1.8c-0.2-0.2-0.2-0.6,0-0.8c0.2-0.2,0.6-0.2,0.8,0l1.8,1.8l1.4-1.4l-1.8-1.8
			c-0.2-0.2-0.2-0.6,0-0.8c0.2-0.2,0.6-0.2,0.8,0l1.8,1.8l1.4-1.4L20.8,66c-0.2-0.2-0.2-0.6,0-0.8c0.2-0.2,0.6-0.2,0.8,0l1.8,1.8
			l1.3-1.3c0.2-0.2,0.6-0.2,0.8,0c0.2,0.2,0.2,0.6,0,0.8l-1.3,1.3l1.8,1.8C26.2,69.8,26.2,70.2,26,70.4z"/>
	</g>
	<path fill="#666666" d="M6.3,78.8c-0.1,1-0.2,3-0.2,4.6c0,1.2,1,2.2,2.2,2.2c9.1,0,15.7-2.1,20.1-6.5c0.1-0.1,0.3-0.3,0.4-0.3H6.3z
		"/>
</g>
</svg>
