<?xml version="1.0" encoding="utf-8"?>
<!-- Generator: Adobe Illustrator 19.1.0, SVG Export Plug-In . SVG Version: 6.00 Build 0)  -->
<svg version="1.1" id="Layer_1" xmlns="http://www.w3.org/2000/svg" xmlns:xlink="http://www.w3.org/1999/xlink" x="0px" y="0px"
	 viewBox="0 0 31.4 40.3" enable-background="new 0 0 31.4 40.3" xml:space="preserve">
<g id="TsTfYo.tif">
	
		<image overflow="visible" width="1692" height="860" id="Layer_0_1_" xlink:href="A581521D5575153E.png"  transform="matrix(0.4024 0 0 0.4024 128.4159 -49.2507)">
	</image>
</g>
<g id="walking_1_">
	<path fill="#666666" d="M88.1-44.7c-1.9,0-3.2-1.5-3.2-3.8c0-2.3,1.2-3.8,3.2-3.8c1.9,0,3.2,1.5,3.2,3.8
		C91.2-46.2,90-44.7,88.1-44.7z"/>
	<path fill="#666666" d="M97.8-33.8l-4-1.8c-0.4-0.2-0.7-0.5-1.2-1.4l-1.5-3.5c-0.8-1.6-2.1-2.2-2.1-2.2c-1-0.4-2.1-0.6-3.3-0.6
		c-2,0-3.5,0.6-3.5,0.6l-3.5,1.2c-1.1,0.4-2.3,1-2.7,3.1c0,0.1-0.1,0.6-1.2,5.8c0,0.1,0,0.3,0,0.4c0,0.9,0.7,1.6,1.6,1.6
		c0.8,0,1.4-0.5,1.6-1.3l1.6-5.3c0.1-0.4,0.2-0.6,0.8-0.8l2.2-0.7l-1.2,6.2c-0.1,0.4-0.2,0.8-0.2,1.2l0,0l-3.1,16.6
		c0,0.1,0,0.2,0,0.3c0,0.9,0.7,1.6,1.6,1.6c0.8,0,1.4-0.6,1.6-1.3L84-26.4c0.7,0.6,1.1,1,1.3,1.9l2.8,10.3c0.2,0.7,0.8,1.2,1.5,1.2
		c0.9,0,1.6-0.7,1.6-1.6c0-0.1,0-0.3-0.1-0.4c0,0,0,0,0,0l-2.6-12.1c-0.3-1.2-0.3-2.4-0.1-3.6l0.8-4.1l0.1,0.2
		c0.4,0.9,0.9,1.6,1.9,2l5.5,1.8c0.8,0.3,1.7-0.2,2-1C99-32.6,98.6-33.4,97.8-33.8z"/>
</g>
<g>
	<g id="walking_4_">
		<path fill="none" stroke="#666666" stroke-miterlimit="10" d="M17.9-44.7c-1.9,0-3.2-1.5-3.2-3.8c0-2.3,1.2-3.8,3.2-3.8
			c1.9,0,3.2,1.5,3.2,3.8C21.1-46.2,19.8-44.7,17.9-44.7z"/>
		<path fill="none" stroke="#666666" stroke-miterlimit="10" d="M27.7-33.8l-4-1.8c-0.4-0.2-0.7-0.5-1.2-1.4l-1.5-3.5
			c-0.8-1.6-2.1-2.2-2.1-2.2c-1-0.4-2.1-0.6-3.3-0.6c-2,0-3.5,0.6-3.5,0.6l-3.5,1.2c-1.1,0.4-2.3,1-2.7,3.1c0,0.1-0.1,0.6-1.2,5.8
			c0,0.1,0,0.3,0,0.4c0,0.9,0.7,1.6,1.6,1.6c0.8,0,1.4-0.5,1.6-1.3l1.6-5.3c0.1-0.4,0.2-0.6,0.8-0.8l2.2-0.7l-1.2,6.2
			c-0.1,0.4-0.2,0.8-0.2,1.2l0,0L7.8-14.9c0,0.1,0,0.2,0,0.3c0,0.9,0.7,1.6,1.6,1.6c0.8,0,1.4-0.6,1.6-1.3l2.9-12.1
			c0.7,0.6,1.1,1,1.3,1.9L18-14.2c0.2,0.7,0.8,1.2,1.5,1.2c0.9,0,1.6-0.7,1.6-1.6c0-0.1,0-0.3-0.1-0.4c0,0,0,0,0,0l-2.6-12.1
			c-0.3-1.2-0.3-2.4-0.1-3.6l0.8-4.1l0.1,0.2c0.4,0.9,0.9,1.6,1.9,2l5.5,1.8c0.8,0.3,1.7-0.2,2-1C28.9-32.6,28.5-33.4,27.7-33.8z"/>
	</g>
	<g>
		<defs>
			<rect id="SVGID_1_" x="2.7" y="-18.6" width="25.9" height="9.3"/>
		</defs>
		<clipPath id="SVGID_2_">
			<use xlink:href="#SVGID_1_"  overflow="visible"/>
		</clipPath>
		<g id="walking_2_" clip-path="url(#SVGID_2_)">
			<path fill="#666666" d="M17.8-44.6c-1.9,0-3.2-1.5-3.2-3.8s1.2-3.8,3.2-3.8c1.9,0,3.2,1.5,3.2,3.8S19.8-44.6,17.8-44.6z"/>
			<path fill="#666666" d="M27.6-33.7l-4-1.8c-0.4-0.2-0.7-0.5-1.2-1.4l-1.5-3.5c-0.8-1.6-2.1-2.2-2.1-2.2c-1-0.4-2.1-0.6-3.3-0.6
				c-2,0-3.5,0.6-3.5,0.6l-3.5,1.2c-1.1,0.4-2.3,1-2.7,3.1c0,0.1-0.1,0.6-1.2,5.8c0,0.1,0,0.3,0,0.4c0,0.9,0.7,1.6,1.6,1.6
				c0.8,0,1.4-0.5,1.6-1.3l1.6-5.3c0.1-0.4,0.2-0.6,0.8-0.8l2.2-0.7l-1.2,6.2c-0.1,0.4-0.2,0.8-0.2,1.2l0,0L7.7-14.7
				c0,0.1,0,0.2,0,0.3c0,0.9,0.7,1.6,1.6,1.6c0.8,0,1.4-0.6,1.6-1.3l2.9-12.1c0.7,0.6,1.1,1,1.3,1.9l2.8,10.3
				c0.2,0.7,0.8,1.2,1.5,1.2c0.9,0,1.6-0.7,1.6-1.6c0-0.1,0-0.3-0.1-0.4c0,0,0,0,0,0L18.4-27c-0.3-1.2-0.3-2.4-0.1-3.6l0.8-4.1
				l0.1,0.2c0.4,0.9,0.9,1.6,1.9,2l5.5,1.8c0.8,0.3,1.7-0.2,2-1C28.8-32.5,28.4-33.3,27.6-33.7z"/>
		</g>
	</g>
</g>
<g id="jogging_1_">
	<path fill="#666666" d="M100.7,14.9l-3.8-0.5c-0.9-0.1-1.3-0.4-1.8-1.1l-3.4-4.6c0,0,0,0,0,0c0,0-0.1-0.1-0.1-0.1c0,0,0,0,0,0
		c0,0,0,0,0,0c-0.2-0.1-4.1-2-8.6,0.8l-2.6,1.7c-1.7,1.1-2.4,2.5-2.4,4.5v6c0,0.9,0.7,1.6,1.6,1.6c0.8,0,1.5-0.6,1.6-1.4
		c0-0.2,0.6-4.8,0.6-6c0.1-0.8,0.1-1.1,0.9-1.6c0.5-0.3,1.1-0.7,1.7-1.1v5.6c0,0.8,0.2,1.7,0.4,2.4l-3.3,5.3c0,0-0.4,0.6-1,0.6
		l-7.4,0.6c-0.8,0.1-1.3,0.8-1.3,1.6c0,0.9,0.7,1.6,1.6,1.6h8c1.2,0,2-0.4,3-1.4l3.3-3.4l7.8,11.6c0.3,0.5,0.8,0.8,1.4,0.8
		c0.9,0,1.6-0.7,1.6-1.6c0-0.3-0.1-0.6-0.3-0.9c-0.5-0.8-3.4-5.7-4.5-7.4c-1.1-1.8-1.6-2.6-1.6-4.8v-8.1l1.4,1.7c0,0,0,0,0,0
		c0,0,0,0,0,0c0.5,0.5,1.1,0.6,1.7,0.6l5.4,0c0.9,0,1.6-0.7,1.6-1.6C102,15.7,101.5,15,100.7,14.9z"/>
	<path fill="#666666" d="M88.7,6.6c-1.9,0-3.2-1.5-3.2-3.8S86.8-1,88.7-1c1.9,0,3.2,1.5,3.2,3.8S90.6,6.6,88.7,6.6z"/>
</g>
<g>
	<g id="jogging_4_">
		<path fill="none" stroke="#666666" stroke-miterlimit="10" d="M29.6,16.4l-3.8-0.5c-0.9-0.1-1.3-0.4-1.8-1.1l-3.4-4.6c0,0,0,0,0,0
			c0,0-0.1-0.1-0.1-0.1c0,0,0,0,0,0c0,0,0,0,0,0c-0.2-0.1-4.1-2-8.6,0.8l-2.6,1.7c-1.7,1.1-2.4,2.5-2.4,4.5v6c0,0.9,0.7,1.6,1.6,1.6
			c0.8,0,1.5-0.6,1.6-1.4c0-0.2,0.6-4.8,0.6-6c0.1-0.8,0.1-1.1,0.9-1.6c0.5-0.3,1.1-0.7,1.7-1.1v5.6c0,0.8,0.2,1.7,0.4,2.4l-3.3,5.3
			c0,0-0.4,0.6-1,0.6l-7.4,0.6c-0.8,0.1-1.3,0.8-1.3,1.6c0,0.9,0.7,1.6,1.6,1.6h8c1.2,0,2-0.4,3-1.4l3.3-3.4L24.2,39
			c0.3,0.5,0.8,0.8,1.4,0.8c0.9,0,1.6-0.7,1.6-1.6c0-0.3-0.1-0.6-0.3-0.9c-0.5-0.8-3.4-5.7-4.5-7.4c-1.1-1.8-1.6-2.6-1.6-4.8v-8.1
			l1.4,1.7c0,0,0,0,0,0c0,0,0,0,0,0c0.5,0.5,1.1,0.6,1.7,0.6l5.4,0c0.9,0,1.6-0.7,1.6-1.6C30.9,17.2,30.4,16.5,29.6,16.4z"/>
		<path fill="none" stroke="#666666" stroke-miterlimit="10" d="M17.6,8.1c-1.9,0-3.2-1.5-3.2-3.8s1.2-3.8,3.2-3.8
			c1.9,0,3.2,1.5,3.2,3.8S19.6,8.1,17.6,8.1z"/>
	</g>
	<g>
		<path fill="#666666" d="M24,32.7c1.2,2,2.5,4.2,2.8,4.7c0.2,0.3,0.3,0.5,0.3,0.8c0,0.9-0.7,1.6-1.6,1.6c-0.5,0-1-0.2-1.4-0.7
			l-4.3-6.3H24z"/>
	</g>
</g>
<g id="cycling_4_">
	<path fill="#666666" d="M75.4,89.6c-4.5,0-8.2-3.7-8.2-8.2c0-4.5,3.7-8.2,8.2-8.2c4.5,0,8.2,3.7,8.2,8.2
		C83.6,85.9,79.9,89.6,75.4,89.6z M75.4,74.4c-3.8,0-7,3.1-7,7c0,3.8,3.1,7,7,7c3.8,0,7-3.1,7-7C82.4,77.5,79.2,74.4,75.4,74.4z"/>
	<path fill="#666666" d="M98.2,89.6c-4.5,0-8.2-3.7-8.2-8.2c0-4.5,3.7-8.2,8.2-8.2c4.5,0,8.2,3.7,8.2,8.2
		C106.5,85.9,102.8,89.6,98.2,89.6z M98.2,74.4c-3.8,0-7,3.1-7,7c0,3.8,3.1,7,7,7c3.8,0,7-3.1,7-7C105.2,77.5,102.1,74.4,98.2,74.4z
		"/>
	<path fill="#666666" d="M94.8,65.1C94.8,65.1,94.8,65.1,94.8,65.1C94.8,65.1,94.8,65.1,94.8,65.1l-3.9-5.4c0,0,0,0,0-0.1
		c-0.9-1.1-2.3-1.8-3.7-1.8c-1.6,0-3.1,0.8-4,2.1l-3.2,5.1c-0.1,0.2-0.3,0.3-0.8,0.4l-5.4,0.6c-0.9,0.1-1.5,0.8-1.5,1.6
		c0,0.9,0.7,1.6,1.6,1.6l5.7,0c1.7,0,2.5-0.4,3.4-1.8l1.9-3l4,5.5l-2.5,3.5l-0.1,0.2c-0.7,0.9-1.3,1.7-1.3,3.2v7.4
		c0,0.9,0.7,1.6,1.6,1.6c0.8,0,1.5-0.6,1.6-1.5l0.6-7.3c0-0.4,0.1-0.6,0.5-1l5.4-5.3C96.1,69.1,96.2,67.1,94.8,65.1z"/>
	<path fill="#666666" d="M82.4,57.9L82.4,57.9c-1.2,0-2.3-0.7-3.1-2.1c-1.3-2-1-3.9,0.6-5c1.6-1.1,3.5-0.4,4.8,1.5
		c1.3,2,1,3.9-0.6,5C83.6,57.7,83,57.9,82.4,57.9z"/>
</g>
<g>
	<g id="cycling_1_">
		<path fill="none" stroke="#666666" stroke-miterlimit="10" d="M4.4,90.8c-4.5,0-8.2-3.7-8.2-8.2c0-4.5,3.7-8.2,8.2-8.2
			s8.2,3.7,8.2,8.2C12.6,87.1,8.9,90.8,4.4,90.8z M4.4,75.6c-3.8,0-7,3.1-7,7c0,3.8,3.1,7,7,7c3.8,0,7-3.1,7-7
			C11.4,78.7,8.2,75.6,4.4,75.6z"/>
		<path fill="none" stroke="#666666" stroke-miterlimit="10" d="M27.2,90.8c-4.5,0-8.2-3.7-8.2-8.2c0-4.5,3.7-8.2,8.2-8.2
			s8.2,3.7,8.2,8.2C35.5,87.1,31.8,90.8,27.2,90.8z M27.2,75.6c-3.8,0-7,3.1-7,7c0,3.8,3.1,7,7,7c3.8,0,7-3.1,7-7
			C34.2,78.7,31.1,75.6,27.2,75.6z"/>
		<path fill="none" stroke="#666666" stroke-miterlimit="10" d="M23.8,66.3C23.8,66.3,23.8,66.3,23.8,66.3
			C23.8,66.3,23.8,66.3,23.8,66.3l-3.9-5.4c0,0,0,0,0-0.1c-0.9-1.1-2.3-1.8-3.7-1.8c-1.6,0-3.1,0.8-4,2.1l-3.2,5.1
			c-0.1,0.2-0.3,0.3-0.8,0.4l-5.4,0.6c-0.9,0.1-1.5,0.8-1.5,1.6c0,0.9,0.7,1.6,1.6,1.6l5.7,0c1.7,0,2.5-0.4,3.4-1.8l1.9-3l4,5.5
			l-2.5,3.5l-0.1,0.2c-0.7,0.9-1.3,1.7-1.3,3.2v7.4c0,0.9,0.7,1.6,1.6,1.6c0.8,0,1.5-0.6,1.6-1.5l0.6-7.3c0-0.4,0.1-0.6,0.5-1
			l5.4-5.3C25.1,70.4,25.2,68.3,23.8,66.3z"/>
		<path fill="none" stroke="#666666" stroke-miterlimit="10" d="M11.5,59.1L11.5,59.1c-1.2,0-2.3-0.7-3.1-2.1c-1.3-2-1-3.9,0.6-5
			c1.6-1.1,3.5-0.4,4.8,1.5c1.3,2,1,3.9-0.6,5C12.6,58.9,12,59.1,11.5,59.1z"/>
	</g>
	<g>
		<path fill="#666666" d="M12.5,82.6C12.5,82.6,12.5,82.6,12.5,82.6c0,4.6-3.7,8.3-8.2,8.3c-4.5,0-8.2-4-8.2-8.6c0-0.1,0-0.5,0-0.5
			h1.3c0,0,0,0.4,0,0.5c0,3.8,3.1,7.1,7,7.1c3.8,0,7-2.9,7-6.8c0-0.1,0-0.1,0-0.1"/>
		<path fill="#666666" d="M17,82.1l-0.2,3.2c-0.1,0.9-0.8,1.6-1.6,1.6c-0.9,0-1.6-0.7-1.6-1.5v-3.7"/>
		<path fill="#666666" d="M35.3,82.6C35.3,82.6,35.3,82.6,35.3,82.6c0,4.6-3.7,8.3-8.2,8.3c-4.5,0-8.2-4-8.2-8.6c0-0.1,0-0.5,0-0.5
			h1.3c0,0,0,0.4,0,0.5c0,3.8,3.1,7.1,7,7.1c3.8,0,7-2.9,7-6.8c0-0.1,0-0.1,0-0.1"/>
	</g>
</g>
<g id="heart_3_">
	<path fill="#666666" d="M86.8,187.7c-0.2,0-0.3-0.1-0.5-0.2l-13.9-14c-1.8-1.8-2.8-4.2-2.8-6.7c0-2.5,1-4.9,2.8-6.7
		c1.8-1.8,4.2-2.8,6.7-2.8c2.5,0,4.9,1,6.7,2.8l0.9,0.8l0.9-0.8c1.8-1.8,4.2-2.8,6.7-2.8c2.5,0,4.9,1,6.7,2.8
		c1.8,1.8,2.8,4.2,2.8,6.7s-1,4.9-2.8,6.7l-13.9,14C87.1,187.7,87,187.7,86.8,187.7z"/>
</g>
<g>
	<g id="heart_1_">
		<path fill="none" stroke="#666666" stroke-miterlimit="10" d="M15.7,188.3c-0.2,0-0.3-0.1-0.5-0.2l-13.9-14
			c-1.8-1.8-2.8-4.2-2.8-6.7c0-2.5,1-4.9,2.8-6.7c1.8-1.8,4.2-2.8,6.7-2.8c2.5,0,4.9,1,6.7,2.8l0.9,0.8l0.9-0.8
			c1.8-1.8,4.2-2.8,6.7-2.8c2.5,0,4.9,1,6.7,2.8c1.8,1.8,2.8,4.2,2.8,6.7c0,2.5-1,4.9-2.8,6.7l-13.9,14
			C16.1,188.3,15.9,188.3,15.7,188.3z"/>
	</g>
	<path fill="#666666" d="M7,179.7l8,8.2c0.1,0.1,0.3,0.3,0.5,0.3c0.2,0,0.3-0.2,0.5-0.3l8-8.2H7z"/>
</g>
<g id="weight_x5F_lifting_3_">
	<path fill="#666666" d="M90.6,225.2c0-1.5,0.3-2.1,1.4-3.3l9.5-9.9c0.3-0.3,0.5-0.7,0.5-1.1c0-0.4-0.2-0.8-0.5-1.1
		c-0.6-0.6-1.7-0.6-2.2,0l-9.7,8.8c-0.6,0.6-1.3,0.9-2.3,0.9l-0.6,0c-0.6,0-1.2,0.2-1.8,0.4l-10.7-10.1c-0.6-0.6-1.6-0.6-2.2,0
		c-0.6,0.6-0.6,1.6,0,2.2l11,11.5v5.5l-5.2,0.6c-1.5,0.2-2.5,1.2-2.5,2.5v9.8c0,0.9,0.7,1.6,1.6,1.6c0.8,0,1.5-0.6,1.6-1.5
		c0.5-7.6,0.6-8,0.6-8c0-0.4,0.1-0.6,0.7-0.6h7c0.1,0,0.3,0,0.4,0l9.6,9.7c0.3,0.3,0.7,0.5,1.1,0.5h0c0.4,0,0.8-0.2,1.1-0.5
		c0.3-0.3,0.5-0.7,0.5-1.1c0-0.4-0.2-0.8-0.4-1.1l-8.6-10.1c0.1-0.4,0.2-0.8,0.2-1.2V225.2z"/>
	<path fill="#666666" d="M86.2,218.1c-1.9,0-3.2-1.5-3.2-3.8c0-2.3,1.2-3.8,3.2-3.8c1.9,0,3.2,1.5,3.2,3.8
		C89.3,216.6,88.1,218.1,86.2,218.1z"/>
	<path fill="#666666" d="M106.5,207.9h-0.6V206c0-0.4-0.3-0.6-0.6-0.6c-0.4,0-0.6,0.3-0.6,0.6v-1.3c0-0.4-0.3-0.6-0.6-0.6
		c-0.4,0-0.6,0.3-0.6,0.6v3.2h-33v-3.2c0-0.4-0.3-0.6-0.6-0.6c-0.4,0-0.6,0.3-0.6,0.6v1.3c0-0.4-0.3-0.6-0.6-0.6
		c-0.4,0-0.6,0.3-0.6,0.6v1.9h-0.6c-0.4,0-0.6,0.3-0.6,0.6s0.3,0.6,0.6,0.6h0.6v1.9c0,0.4,0.3,0.6,0.6,0.6c0.4,0,0.6-0.3,0.6-0.6
		v1.3c0,0.4,0.3,0.6,0.6,0.6c0.4,0,0.6-0.3,0.6-0.6v-3.2h33v3.2c0,0.4,0.3,0.6,0.6,0.6c0.4,0,0.6-0.3,0.6-0.6v-1.3
		c0,0.4,0.3,0.6,0.6,0.6c0.4,0,0.6-0.3,0.6-0.6v-1.9h0.6c0.4,0,0.6-0.3,0.6-0.6S106.8,207.9,106.5,207.9z"/>
</g>
<g>
	<g id="weight_x5F_lifting_1_">
		<path fill="none" stroke="#666666" stroke-miterlimit="10" d="M19.5,225.4c0-1.5,0.3-2.1,1.4-3.3l9.5-9.9c0.3-0.3,0.5-0.7,0.5-1.1
			c0-0.4-0.2-0.8-0.5-1.1c-0.6-0.6-1.7-0.6-2.2,0l-9.7,8.8c-0.6,0.6-1.3,0.9-2.3,0.9l-0.6,0c-0.6,0-1.2,0.2-1.8,0.4L3.2,209.9
			c-0.6-0.6-1.6-0.6-2.2,0c-0.6,0.6-0.6,1.6,0,2.2l11,11.5v5.5l-5.2,0.6c-1.5,0.2-2.5,1.2-2.5,2.5v9.8c0,0.9,0.7,1.6,1.6,1.6
			c0.8,0,1.5-0.6,1.6-1.5c0.5-7.6,0.6-8,0.6-8c0-0.4,0.1-0.6,0.7-0.6h7c0.1,0,0.3,0,0.4,0l9.6,9.7c0.3,0.3,0.7,0.5,1.1,0.5
			c0,0,0,0,0,0c0.4,0,0.8-0.2,1.1-0.5c0.3-0.3,0.5-0.7,0.5-1.1c0-0.4-0.2-0.8-0.4-1.1l-8.6-10.1c0.1-0.4,0.2-0.8,0.2-1.2V225.4z"/>
		<path fill="none" stroke="#666666" stroke-miterlimit="10" d="M15.1,218.3c-1.9,0-3.2-1.5-3.2-3.8c0-2.3,1.2-3.8,3.2-3.8
			c1.9,0,3.2,1.5,3.2,3.8C18.3,216.8,17,218.3,15.1,218.3z"/>
		<path fill="none" stroke="#666666" stroke-miterlimit="10" d="M35.4,208.1h-0.6v-1.9c0-0.4-0.3-0.6-0.6-0.6
			c-0.4,0-0.6,0.3-0.6,0.6V205c0-0.4-0.3-0.6-0.6-0.6c-0.4,0-0.6,0.3-0.6,0.6v3.2h-33V205c0-0.4-0.3-0.6-0.6-0.6
			c-0.4,0-0.6,0.3-0.6,0.6v1.3c0-0.4-0.3-0.6-0.6-0.6c-0.4,0-0.6,0.3-0.6,0.6v1.9h-0.6c-0.4,0-0.6,0.3-0.6,0.6
			c0,0.4,0.3,0.6,0.6,0.6h0.6v1.9c0,0.4,0.3,0.6,0.6,0.6c0.4,0,0.6-0.3,0.6-0.6v1.3c0,0.4,0.3,0.6,0.6,0.6c0.4,0,0.6-0.3,0.6-0.6
			v-3.2h33v3.2c0,0.4,0.3,0.6,0.6,0.6c0.4,0,0.6-0.3,0.6-0.6v-1.3c0,0.4,0.3,0.6,0.6,0.6c0.4,0,0.6-0.3,0.6-0.6v-1.9h0.6
			c0.4,0,0.6-0.3,0.6-0.6C36,208.4,35.7,208.1,35.4,208.1z"/>
	</g>
	<g>
		<path fill="#666666" d="M25.6,243.6c0.3,0.3,1,0.3,1,0.3v0c1,0,0.9-0.2,1.2-0.5c0.3-0.3,0.5-0.7,0.5-1.1c0-0.4-0.1-0.7-0.4-0.9
			l-1.5-1.6h-4.7L25.6,243.6z"/>
		<path fill="#666666" d="M6,243.9c0.8,0,1.4-0.5,1.5-1.4c0.1-1.1,0.1-1.8,0.1-2.8H4.6v2.6C4.6,243.2,5.2,243.9,6,243.9z"/>
	</g>
</g>
<g id="star_x5F_jumps_4_">
	<path fill="#666666" d="M86.8,263.7c-1.9,0-3.2-1.5-3.2-3.8c0-2.3,1.2-3.8,3.2-3.8c1.9,0,3.2,1.5,3.2,3.8
		C90,262.2,88.7,263.7,86.8,263.7z"/>
	<path fill="#666666" d="M94.7,294.1c-0.7,0-1.3-0.4-1.5-1l-5.3-13.3c0-0.1-0.3-0.9-1.1-0.9c-0.8,0-1.1,0.7-1.1,0.8L80.4,293
		c-0.2,0.6-0.8,1.1-1.5,1.1c-0.9,0-1.6-0.7-1.6-1.6c0-0.2,0-0.4,0.1-0.5l4.6-12.7c0.3-0.8,0.4-1.3,0.4-2.3v-8.3l-11.1-0.6
		c0,0,0,0,0,0c-0.8,0-1.6-0.7-1.6-1.6c0-0.9,0.7-1.6,1.6-1.6h31.1c0.9,0,1.6,0.7,1.6,1.6s-0.7,1.6-1.6,1.6l-11.1,0.6l0,8.3
		c0,0.9,0.1,1.5,0.4,2.3l4.6,12.8c0.1,0.2,0.1,0.3,0.1,0.5C96.3,293.4,95.6,294.1,94.7,294.1z"/>
</g>
<g>
	<g id="star_x5F_jumps_1_">
		<path fill="none" stroke="#666666" stroke-miterlimit="10" d="M15.7,263.7c-1.9,0-3.2-1.5-3.2-3.8c0-2.3,1.2-3.8,3.2-3.8
			c1.9,0,3.2,1.5,3.2,3.8C18.9,262.2,17.6,263.7,15.7,263.7z"/>
		<path fill="none" stroke="#666666" stroke-miterlimit="10" d="M23.7,294.1c-0.7,0-1.3-0.4-1.5-1l-5.3-13.3c0-0.1-0.3-0.9-1.1-0.9
			c-0.8,0-1.1,0.7-1.1,0.8L9.3,293c-0.2,0.6-0.8,1.1-1.5,1.1c-0.9,0-1.6-0.7-1.6-1.6c0-0.2,0-0.4,0.1-0.5l4.6-12.7
			c0.3-0.8,0.4-1.3,0.4-2.3v-8.3l-11.1-0.6c0,0,0,0,0,0c-0.8,0-1.6-0.7-1.6-1.6c0-0.9,0.7-1.6,1.6-1.6h31.1c0.9,0,1.6,0.7,1.6,1.6
			s-0.7,1.6-1.6,1.6l-11.1,0.6l0,8.3c0,0.9,0.1,1.5,0.4,2.3l4.6,12.8c0.1,0.2,0.1,0.3,0.1,0.5C25.2,293.4,24.5,294.1,23.7,294.1z"/>
	</g>
	<g>
		<path fill="#666666" d="M22.1,293c0.2,0.6,0.8,1.1,1.5,1.1c0.9,0,1.6-0.7,1.6-1.6c0-0.1,0-0.4-0.1-0.6l-1.5-4.2h-3.6L22.1,293z"/>
		<path fill="#666666" d="M7.8,294.1c0.7,0,1.3-0.6,1.5-1.2l2-5.2H7.7l-1.4,4.1c-0.1,0.2-0.1,0.4-0.1,0.6
			C6.2,293.3,6.9,294.1,7.8,294.1z"/>
	</g>
</g>
<g id="football_3_">
	<path fill="#666666" d="M98.4,106.8c-9.1,0-15.7,2.1-20.1,6.5c-4.4,4.4-6.5,11-6.5,20.1c0,1.2,1,2.2,2.2,2.2
		c9.1,0,15.7-2.1,20.1-6.5c4.4-4.4,6.5-11,6.5-20.1C100.6,107.8,99.6,106.8,98.4,106.8z M92.1,120.5c-0.1,0.1-0.2,0.2-0.4,0.2
		c-0.1,0-0.3-0.1-0.4-0.2l-1.8-1.8l-1.4,1.4l1.8,1.8c0.2,0.2,0.2,0.6,0,0.8c-0.1,0.1-0.2,0.2-0.4,0.2c-0.1,0-0.3-0.1-0.4-0.2
		l-1.8-1.8l-1.4,1.4l1.8,1.8c0.2,0.2,0.2,0.6,0,0.8c-0.1,0.1-0.2,0.2-0.4,0.2c-0.1,0-0.3-0.1-0.4-0.2l-1.8-1.8l-1.4,1.4l1.8,1.8
		c0.2,0.2,0.2,0.6,0,0.8c-0.1,0.1-0.2,0.2-0.4,0.2c-0.1,0-0.3-0.1-0.4-0.2l-1.8-1.8l-1.3,1.3c-0.1,0.1-0.2,0.2-0.4,0.2
		c-0.1,0-0.3-0.1-0.4-0.2c-0.2-0.2-0.2-0.6,0-0.8l1.3-1.3l-1.8-1.8c-0.2-0.2-0.2-0.6,0-0.8c0.2-0.2,0.6-0.2,0.8,0l1.8,1.8l1.4-1.4
		l-1.8-1.8c-0.2-0.2-0.2-0.6,0-0.8c0.2-0.2,0.6-0.2,0.8,0l1.8,1.8l1.4-1.4l-1.8-1.8c-0.2-0.2-0.2-0.6,0-0.8c0.2-0.2,0.6-0.2,0.8,0
		l1.8,1.8l1.4-1.4l-1.8-1.8c-0.2-0.2-0.2-0.6,0-0.8c0.2-0.2,0.6-0.2,0.8,0l1.8,1.8l1.3-1.3c0.2-0.2,0.6-0.2,0.8,0
		c0.2,0.2,0.2,0.6,0,0.8l-1.3,1.3l1.8,1.8C92.3,119.9,92.3,120.3,92.1,120.5z"/>
</g>
<g>
	<g id="football_1_">
		<path fill="none" stroke="#666666" stroke-miterlimit="10" d="M27.9,107.7c-9.1,0-15.7,2.1-20.1,6.5c-4.4,4.4-6.5,11-6.5,20.1
			c0,1.2,1,2.2,2.2,2.2c9.1,0,15.7-2.1,20.1-6.5c4.4-4.4,6.5-11,6.5-20.1C30.1,108.7,29.1,107.7,27.9,107.7z M21.7,121.4
			c-0.1,0.1-0.2,0.2-0.4,0.2c-0.1,0-0.3-0.1-0.4-0.2l-1.8-1.8l-1.4,1.4l1.8,1.8c0.2,0.2,0.2,0.6,0,0.8c-0.1,0.1-0.2,0.2-0.4,0.2
			c-0.1,0-0.3-0.1-0.4-0.2l-1.8-1.8l-1.4,1.4l1.8,1.8c0.2,0.2,0.2,0.6,0,0.8c-0.1,0.1-0.2,0.2-0.4,0.2c-0.1,0-0.3-0.1-0.4-0.2
			l-1.8-1.8l-1.4,1.4l1.8,1.8c0.2,0.2,0.2,0.6,0,0.8c-0.1,0.1-0.2,0.2-0.4,0.2c-0.1,0-0.3-0.1-0.4-0.2l-1.8-1.8l-1.3,1.3
			c-0.1,0.1-0.2,0.2-0.4,0.2c-0.1,0-0.3-0.1-0.4-0.2c-0.2-0.2-0.2-0.6,0-0.8l1.3-1.3l-1.8-1.8c-0.2-0.2-0.2-0.6,0-0.8
			c0.2-0.2,0.6-0.2,0.8,0l1.8,1.8l1.4-1.4l-1.8-1.8c-0.2-0.2-0.2-0.6,0-0.8c0.2-0.2,0.6-0.2,0.8,0l1.8,1.8L16,121l-1.8-1.8
			c-0.2-0.2-0.2-0.6,0-0.8c0.2-0.2,0.6-0.2,0.8,0l1.8,1.8l1.4-1.4l-1.8-1.8c-0.2-0.2-0.2-0.6,0-0.8c0.2-0.2,0.6-0.2,0.8,0L19,118
			l1.3-1.3c0.2-0.2,0.6-0.2,0.8,0c0.2,0.2,0.2,0.6,0,0.8l-1.3,1.3l1.8,1.8C21.9,120.8,21.9,121.2,21.7,121.4z"/>
	</g>
	<path fill="#666666" d="M2,129.7c-0.1,1-0.2,3-0.2,4.6c0,1.2,1,2.2,2.2,2.2c9.1,0,15.7-2.1,20.1-6.5c0.1-0.1,0.3-0.3,0.4-0.3H2z"/>
</g>
</svg>
