<?xml version="1.0" encoding="utf-8"?>
<!-- Generator: Adobe Illustrator 19.1.0, SVG Export Plug-In . SVG Version: 6.00 Build 0)  -->
<svg version="1.1" id="Layer_1" xmlns="http://www.w3.org/2000/svg" xmlns:xlink="http://www.w3.org/1999/xlink" x="0px" y="0px"
	 viewBox="0 0 28.8 28.8" enable-background="new 0 0 28.8 28.8" xml:space="preserve">
<g id="TsTfYo.tif">
	
		<image overflow="visible" width="1692" height="860" id="Layer_0_1_" xlink:href="E9265CE6607CE0B8.png"  transform="matrix(0.4024 0 0 0.4024 56.6482 -156.0686)">
	</image>
</g>
<g id="walking_1_">
	<path fill="#666666" d="M16.3-151.5c-1.9,0-3.2-1.5-3.2-3.8c0-2.3,1.2-3.8,3.2-3.8c1.9,0,3.2,1.5,3.2,3.8
		C19.5-153,18.2-151.5,16.3-151.5z"/>
	<path fill="#666666" d="M26.1-140.6l-4-1.8c-0.4-0.2-0.7-0.5-1.2-1.4l-1.5-3.5c-0.8-1.6-2.1-2.2-2.1-2.2c-1-0.4-2.1-0.6-3.3-0.6
		c-2,0-3.5,0.6-3.5,0.6l-3.5,1.2c-1.1,0.4-2.3,1-2.7,3.1c0,0.1-0.1,0.6-1.2,5.8c0,0.1,0,0.3,0,0.4c0,0.9,0.7,1.6,1.6,1.6
		c0.8,0,1.4-0.5,1.6-1.3l1.6-5.3c0.1-0.4,0.2-0.6,0.8-0.8l2.2-0.7l-1.2,6.2c-0.1,0.4-0.2,0.8-0.2,1.2l0,0l-3.1,16.6
		c0,0.1,0,0.2,0,0.3c0,0.9,0.7,1.6,1.6,1.6c0.8,0,1.4-0.6,1.6-1.3l2.9-12.1c0.7,0.6,1.1,1,1.3,1.9l2.8,10.3c0.2,0.7,0.8,1.2,1.5,1.2
		c0.9,0,1.6-0.7,1.6-1.6c0-0.1,0-0.3-0.1-0.4c0,0,0,0,0,0l-2.6-12.1c-0.3-1.2-0.3-2.4-0.1-3.6l0.8-4.1l0.1,0.2
		c0.4,0.9,0.9,1.6,1.9,2l5.5,1.8c0.8,0.3,1.7-0.2,2-1C27.3-139.4,26.9-140.3,26.1-140.6z"/>
</g>
<g>
	<g id="walking_4_">
		<path fill="none" stroke="#666666" stroke-miterlimit="10" d="M-53.8-151.5c-1.9,0-3.2-1.5-3.2-3.8c0-2.3,1.2-3.8,3.2-3.8
			c1.9,0,3.2,1.5,3.2,3.8C-50.7-153-51.9-151.5-53.8-151.5z"/>
		<path fill="none" stroke="#666666" stroke-miterlimit="10" d="M-44.1-140.6l-4-1.8c-0.4-0.2-0.7-0.5-1.2-1.4l-1.5-3.5
			c-0.8-1.6-2.1-2.2-2.1-2.2c-1-0.4-2.1-0.6-3.3-0.6c-2,0-3.5,0.6-3.5,0.6l-3.5,1.2c-1.1,0.4-2.3,1-2.7,3.1c0,0.1-0.1,0.6-1.2,5.8
			c0,0.1,0,0.3,0,0.4c0,0.9,0.7,1.6,1.6,1.6c0.8,0,1.4-0.5,1.6-1.3l1.6-5.3c0.1-0.4,0.2-0.6,0.8-0.8l2.2-0.7l-1.2,6.2
			c-0.1,0.4-0.2,0.8-0.2,1.2l0,0l-3.1,16.6c0,0.1,0,0.2,0,0.3c0,0.9,0.7,1.6,1.6,1.6c0.8,0,1.4-0.6,1.6-1.3l2.9-12.1
			c0.7,0.6,1.1,1,1.3,1.9l2.8,10.3c0.2,0.7,0.8,1.2,1.5,1.2c0.9,0,1.6-0.7,1.6-1.6c0-0.1,0-0.3-0.1-0.4c0,0,0,0,0,0l-2.6-12.1
			c-0.3-1.2-0.3-2.4-0.1-3.6l0.8-4.1l0.1,0.2c0.4,0.9,0.9,1.6,1.9,2l5.5,1.8c0.8,0.3,1.7-0.2,2-1C-42.9-139.4-43.3-140.3-44.1-140.6
			z"/>
	</g>
	<g>
		<defs>
			<rect id="SVGID_1_" x="-69" y="-125.4" width="25.9" height="9.3"/>
		</defs>
		<clipPath id="SVGID_2_">
			<use xlink:href="#SVGID_1_"  overflow="visible"/>
		</clipPath>
		<g id="walking_2_" clip-path="url(#SVGID_2_)">
			<path fill="#666666" d="M-53.9-151.4c-1.9,0-3.2-1.5-3.2-3.8c0-2.3,1.2-3.8,3.2-3.8c1.9,0,3.2,1.5,3.2,3.8
				C-50.8-152.9-52-151.4-53.9-151.4z"/>
			<path fill="#666666" d="M-44.2-140.5l-4-1.8c-0.4-0.2-0.7-0.5-1.2-1.4l-1.5-3.5c-0.8-1.6-2.1-2.2-2.1-2.2c-1-0.4-2.1-0.6-3.3-0.6
				c-2,0-3.5,0.6-3.5,0.6l-3.5,1.2c-1.1,0.4-2.3,1-2.7,3.1c0,0.1-0.1,0.6-1.2,5.8c0,0.1,0,0.3,0,0.4c0,0.9,0.7,1.6,1.6,1.6
				c0.8,0,1.4-0.5,1.6-1.3l1.6-5.3c0.1-0.4,0.2-0.6,0.8-0.8l2.2-0.7l-1.2,6.2c-0.1,0.4-0.2,0.8-0.2,1.2l0,0l-3.1,16.6
				c0,0.1,0,0.2,0,0.3c0,0.9,0.7,1.6,1.6,1.6c0.8,0,1.4-0.6,1.6-1.3l2.9-12.1c0.7,0.6,1.1,1,1.3,1.9l2.8,10.3
				c0.2,0.7,0.8,1.2,1.5,1.2c0.9,0,1.6-0.7,1.6-1.6c0-0.1,0-0.3-0.1-0.4c0,0,0,0,0,0l-2.6-12.1c-0.3-1.2-0.3-2.4-0.1-3.6l0.8-4.1
				l0.1,0.2c0.4,0.9,0.9,1.6,1.9,2l5.5,1.8c0.8,0.3,1.7-0.2,2-1C-43-139.3-43.4-140.1-44.2-140.5z"/>
		</g>
	</g>
</g>
<g id="jogging_1_">
	<path fill="#666666" d="M28.9-92l-3.8-0.5c-0.9-0.1-1.3-0.4-1.8-1.1L20-98.1c0,0,0,0,0,0c0,0-0.1-0.1-0.1-0.1c0,0,0,0,0,0
		c0,0,0,0,0,0c-0.2-0.1-4.1-2-8.6,0.8l-2.6,1.7c-1.7,1.1-2.4,2.5-2.4,4.5v6c0,0.9,0.7,1.6,1.6,1.6c0.8,0,1.5-0.6,1.6-1.4
		c0-0.2,0.6-4.8,0.6-6c0.1-0.8,0.1-1.1,0.9-1.6c0.5-0.3,1.1-0.7,1.7-1.1v5.6c0,0.8,0.2,1.7,0.4,2.4l-3.3,5.3c0,0-0.4,0.6-1,0.6
		l-7.4,0.6c-0.8,0.1-1.3,0.8-1.3,1.6c0,0.9,0.7,1.6,1.6,1.6h8c1.2,0,2-0.4,3-1.4l3.3-3.4l7.8,11.6c0.3,0.5,0.8,0.8,1.4,0.8
		c0.9,0,1.6-0.7,1.6-1.6c0-0.3-0.1-0.6-0.3-0.9c-0.5-0.8-3.4-5.7-4.5-7.4c-1.1-1.8-1.6-2.6-1.6-4.8v-8.1l1.4,1.7c0,0,0,0,0,0
		c0,0,0,0,0,0c0.5,0.5,1.1,0.6,1.7,0.6l5.4,0c0.9,0,1.6-0.7,1.6-1.6C30.3-91.1,29.7-91.8,28.9-92z"/>
	<path fill="#666666" d="M16.9-100.2c-1.9,0-3.2-1.5-3.2-3.8c0-2.3,1.2-3.8,3.2-3.8c1.9,0,3.2,1.5,3.2,3.8
		C20.1-101.7,18.9-100.2,16.9-100.2z"/>
</g>
<g>
	<g id="jogging_4_">
		<path fill="none" stroke="#666666" stroke-miterlimit="10" d="M-42.1-90.4l-3.8-0.5c-0.9-0.1-1.3-0.4-1.8-1.1l-3.4-4.6
			c0,0,0,0,0,0c0,0-0.1-0.1-0.1-0.1c0,0,0,0,0,0c0,0,0,0,0,0c-0.2-0.1-4.1-2-8.6,0.8l-2.6,1.7c-1.7,1.1-2.4,2.5-2.4,4.5v6
			c0,0.9,0.7,1.6,1.6,1.6c0.8,0,1.5-0.6,1.6-1.4c0-0.2,0.6-4.8,0.6-6c0.1-0.8,0.1-1.1,0.9-1.6c0.5-0.3,1.1-0.7,1.7-1.1v5.6
			c0,0.8,0.2,1.7,0.4,2.4l-3.3,5.3c0,0-0.4,0.6-1,0.6l-7.4,0.6c-0.8,0.1-1.3,0.8-1.3,1.6c0,0.9,0.7,1.6,1.6,1.6h8c1.2,0,2-0.4,3-1.4
			l3.3-3.4l7.8,11.6c0.3,0.5,0.8,0.8,1.4,0.8c0.9,0,1.6-0.7,1.6-1.6c0-0.3-0.1-0.6-0.3-0.9c-0.5-0.8-3.4-5.7-4.5-7.4
			c-1.1-1.8-1.6-2.6-1.6-4.8v-8.1l1.4,1.7c0,0,0,0,0,0c0,0,0,0,0,0c0.5,0.5,1.1,0.6,1.7,0.6l5.4,0c0.9,0,1.6-0.7,1.6-1.6
			C-40.8-89.6-41.4-90.3-42.1-90.4z"/>
		<path fill="none" stroke="#666666" stroke-miterlimit="10" d="M-54.1-98.7c-1.9,0-3.2-1.5-3.2-3.8s1.2-3.8,3.2-3.8
			c1.9,0,3.2,1.5,3.2,3.8S-52.2-98.7-54.1-98.7z"/>
	</g>
	<g>
		<path fill="#666666" d="M-47.8-74.1c1.2,2,2.5,4.2,2.8,4.7c0.2,0.3,0.3,0.5,0.3,0.8c0,0.9-0.7,1.6-1.6,1.6c-0.5,0-1-0.2-1.4-0.7
			l-4.3-6.3H-47.8z"/>
	</g>
</g>
<g id="cycling_4_">
	<path fill="#666666" d="M3.6-17.2c-4.5,0-8.2-3.7-8.2-8.2s3.7-8.2,8.2-8.2s8.2,3.7,8.2,8.2S8.2-17.2,3.6-17.2z M3.6-32.5
		c-3.8,0-7,3.1-7,7s3.1,7,7,7c3.8,0,7-3.1,7-7S7.5-32.5,3.6-32.5z"/>
	<path fill="#666666" d="M26.5-17.2c-4.5,0-8.2-3.7-8.2-8.2s3.7-8.2,8.2-8.2s8.2,3.7,8.2,8.2S31-17.2,26.5-17.2z M26.5-32.5
		c-3.8,0-7,3.1-7,7s3.1,7,7,7c3.8,0,7-3.1,7-7S30.3-32.5,26.5-32.5z"/>
	<path fill="#666666" d="M23-41.7C23-41.7,23-41.7,23-41.7C23-41.7,23-41.7,23-41.7l-3.9-5.4c0,0,0,0,0-0.1
		c-0.9-1.1-2.3-1.8-3.7-1.8c-1.6,0-3.1,0.8-4,2.1l-3.2,5.1c-0.1,0.2-0.3,0.3-0.8,0.4l-5.4,0.6c-0.9,0.1-1.5,0.8-1.5,1.6
		c0,0.9,0.7,1.6,1.6,1.6l5.7,0c1.7,0,2.5-0.4,3.4-1.8l1.9-3l4,5.5l-2.5,3.5l-0.1,0.2c-0.7,0.9-1.3,1.7-1.3,3.2v7.4
		c0,0.9,0.7,1.6,1.6,1.6c0.8,0,1.5-0.6,1.6-1.5l0.6-7.3c0-0.4,0.1-0.6,0.5-1l5.4-5.3C24.3-37.7,24.4-39.7,23-41.7z"/>
	<path fill="#666666" d="M10.7-48.9L10.7-48.9c-1.2,0-2.3-0.7-3.1-2.1c-1.3-2-1-3.9,0.6-5c1.6-1.1,3.5-0.4,4.8,1.5
		c1.3,2,1,3.9-0.6,5C11.8-49.1,11.2-48.9,10.7-48.9z"/>
</g>
<g>
	<g id="cycling_1_">
		<path fill="none" stroke="#666666" stroke-miterlimit="10" d="M-67.4-16c-4.5,0-8.2-3.7-8.2-8.2s3.7-8.2,8.2-8.2
			c4.5,0,8.2,3.7,8.2,8.2S-62.8-16-67.4-16z M-67.4-31.2c-3.8,0-7,3.1-7,7s3.1,7,7,7c3.8,0,7-3.1,7-7S-63.5-31.2-67.4-31.2z"/>
		<path fill="none" stroke="#666666" stroke-miterlimit="10" d="M-44.5-16c-4.5,0-8.2-3.7-8.2-8.2s3.7-8.2,8.2-8.2s8.2,3.7,8.2,8.2
			S-40-16-44.5-16z M-44.5-31.2c-3.8,0-7,3.1-7,7s3.1,7,7,7c3.8,0,7-3.1,7-7S-40.7-31.2-44.5-31.2z"/>
		<path fill="none" stroke="#666666" stroke-miterlimit="10" d="M-48-40.5C-48-40.5-48-40.5-48-40.5C-48-40.5-48-40.5-48-40.5
			l-3.9-5.4c0,0,0,0,0-0.1c-0.9-1.1-2.3-1.8-3.7-1.8c-1.6,0-3.1,0.8-4,2.1l-3.2,5.1c-0.1,0.2-0.3,0.3-0.8,0.4l-5.4,0.6
			c-0.9,0.1-1.5,0.8-1.5,1.6c0,0.9,0.7,1.6,1.6,1.6l5.7,0c1.7,0,2.5-0.4,3.4-1.8l1.9-3l4,5.5l-2.5,3.5l-0.1,0.2
			c-0.7,0.9-1.3,1.7-1.3,3.2v7.4c0,0.9,0.7,1.6,1.6,1.6c0.8,0,1.5-0.6,1.6-1.5l0.6-7.3c0-0.4,0.1-0.6,0.5-1l5.4-5.3
			C-46.7-36.5-46.6-38.5-48-40.5z"/>
		<path fill="none" stroke="#666666" stroke-miterlimit="10" d="M-60.3-47.7L-60.3-47.7c-1.2,0-2.3-0.7-3.1-2.1c-1.3-2-1-3.9,0.6-5
			c1.6-1.1,3.5-0.4,4.8,1.5c1.3,2,1,3.9-0.6,5C-59.2-47.9-59.7-47.7-60.3-47.7z"/>
	</g>
	<g>
		<path fill="#666666" d="M-59.3-24.3C-59.3-24.3-59.3-24.2-59.3-24.3c0,4.6-3.7,8.3-8.2,8.3c-4.5,0-8.2-4-8.2-8.6
			c0-0.1,0-0.5,0-0.5h1.3c0,0,0,0.4,0,0.5c0,3.8,3.1,7.1,7,7.1c3.8,0,7-2.9,7-6.8c0-0.1,0-0.1,0-0.1"/>
		<path fill="#666666" d="M-54.8-24.7l-0.2,3.2c-0.1,0.9-0.8,1.6-1.6,1.6c-0.9,0-1.6-0.7-1.6-1.5v-3.7"/>
		<path fill="#666666" d="M-36.5-24.3C-36.5-24.3-36.5-24.2-36.5-24.3c0,4.6-3.7,8.3-8.2,8.3c-4.5,0-8.2-4-8.2-8.6
			c0-0.1,0-0.5,0-0.5h1.3c0,0,0,0.4,0,0.5c0,3.8,3.1,7.1,7,7.1c3.8,0,7-2.9,7-6.8c0-0.1,0-0.1,0-0.1"/>
	</g>
</g>
<g id="heart_3_">
	<path fill="#666666" d="M15,80.9c-0.2,0-0.3-0.1-0.5-0.2l-13.9-14c-1.8-1.8-2.8-4.2-2.8-6.7c0-2.5,1-4.9,2.8-6.7
		c1.8-1.8,4.2-2.8,6.7-2.8c2.5,0,4.9,1,6.7,2.8l0.9,0.8l0.9-0.8c1.8-1.8,4.2-2.8,6.7-2.8c2.5,0,4.9,1,6.7,2.8
		c1.8,1.8,2.8,4.2,2.8,6.7s-1,4.9-2.8,6.7l-13.9,14C15.4,80.8,15.2,80.9,15,80.9z"/>
</g>
<g>
	<g id="heart_1_">
		<path fill="none" stroke="#666666" stroke-miterlimit="10" d="M-56,81.5c-0.2,0-0.3-0.1-0.5-0.2l-13.9-14
			c-1.8-1.8-2.8-4.2-2.8-6.7c0-2.5,1-4.9,2.8-6.7c1.8-1.8,4.2-2.8,6.7-2.8c2.5,0,4.9,1,6.7,2.8l0.9,0.8l0.9-0.8
			c1.8-1.8,4.2-2.8,6.7-2.8c2.5,0,4.9,1,6.7,2.8c1.8,1.8,2.8,4.2,2.8,6.7c0,2.5-1,4.9-2.8,6.7l-13.9,14
			C-55.7,81.5-55.9,81.5-56,81.5z"/>
	</g>
	<path fill="#666666" d="M-64.7,72.9l8,8.2c0.1,0.1,0.3,0.3,0.5,0.3s0.3-0.2,0.5-0.3l8-8.2H-64.7z"/>
</g>
<g id="weight_x5F_lifting_3_">
	<path fill="#666666" d="M18.8,118.4c0-1.5,0.3-2.1,1.4-3.3l9.5-9.9c0.3-0.3,0.5-0.7,0.5-1.1c0-0.4-0.2-0.8-0.5-1.1
		c-0.6-0.6-1.7-0.6-2.2,0l-9.7,8.8c-0.6,0.6-1.3,0.9-2.3,0.9l-0.6,0c-0.6,0-1.2,0.2-1.8,0.4L2.5,102.9c-0.6-0.6-1.6-0.6-2.2,0
		c-0.6,0.6-0.6,1.6,0,2.2l11,11.5v5.5l-5.2,0.6c-1.5,0.2-2.5,1.2-2.5,2.5v9.8c0,0.9,0.7,1.6,1.6,1.6c0.8,0,1.5-0.6,1.6-1.5
		c0.5-7.6,0.6-8,0.6-8c0-0.4,0.1-0.6,0.7-0.6h7c0.1,0,0.3,0,0.4,0l9.6,9.7c0.3,0.3,0.7,0.5,1.1,0.5h0c0.4,0,0.8-0.2,1.1-0.5
		c0.3-0.3,0.5-0.7,0.5-1.1c0-0.4-0.2-0.8-0.4-1.1l-8.6-10.1c0.1-0.4,0.2-0.8,0.2-1.2V118.4z"/>
	<path fill="#666666" d="M14.4,111.3c-1.9,0-3.2-1.5-3.2-3.8s1.2-3.8,3.2-3.8c1.9,0,3.2,1.5,3.2,3.8S16.3,111.3,14.4,111.3z"/>
	<path fill="#666666" d="M34.7,101.1h-0.6v-1.9c0-0.4-0.3-0.6-0.6-0.6c-0.4,0-0.6,0.3-0.6,0.6v-1.3c0-0.4-0.3-0.6-0.6-0.6
		c-0.4,0-0.6,0.3-0.6,0.6v3.2h-33v-3.2c0-0.4-0.3-0.6-0.6-0.6c-0.4,0-0.6,0.3-0.6,0.6v1.3c0-0.4-0.3-0.6-0.6-0.6
		c-0.4,0-0.6,0.3-0.6,0.6v1.9h-0.6c-0.4,0-0.6,0.3-0.6,0.6c0,0.4,0.3,0.6,0.6,0.6H-4v1.9c0,0.4,0.3,0.6,0.6,0.6
		c0.4,0,0.6-0.3,0.6-0.6v1.3c0,0.4,0.3,0.6,0.6,0.6c0.4,0,0.6-0.3,0.6-0.6v-3.2h33v3.2c0,0.4,0.3,0.6,0.6,0.6c0.4,0,0.6-0.3,0.6-0.6
		v-1.3c0,0.4,0.3,0.6,0.6,0.6c0.4,0,0.6-0.3,0.6-0.6v-1.9h0.6c0.4,0,0.6-0.3,0.6-0.6C35.3,101.4,35,101.1,34.7,101.1z"/>
</g>
<g>
	<g id="weight_x5F_lifting_1_">
		<path fill="none" stroke="#666666" stroke-miterlimit="10" d="M-52.2,118.6c0-1.5,0.3-2.1,1.4-3.3l9.5-9.9
			c0.3-0.3,0.5-0.7,0.5-1.1c0-0.4-0.2-0.8-0.5-1.1c-0.6-0.6-1.7-0.6-2.2,0l-9.7,8.8c-0.6,0.6-1.3,0.9-2.3,0.9l-0.6,0
			c-0.6,0-1.2,0.2-1.8,0.4L-68.6,103c-0.6-0.6-1.6-0.6-2.2,0c-0.6,0.6-0.6,1.6,0,2.2l11,11.5v5.5l-5.2,0.6c-1.5,0.2-2.5,1.2-2.5,2.5
			v9.8c0,0.9,0.7,1.6,1.6,1.6c0.8,0,1.5-0.6,1.6-1.5c0.5-7.6,0.6-8,0.6-8c0-0.4,0.1-0.6,0.7-0.6h7c0.1,0,0.3,0,0.4,0l9.6,9.7
			c0.3,0.3,0.7,0.5,1.1,0.5c0,0,0,0,0,0c0.4,0,0.8-0.2,1.1-0.5c0.3-0.3,0.5-0.7,0.5-1.1c0-0.4-0.2-0.8-0.4-1.1l-8.6-10.1
			c0.1-0.4,0.2-0.8,0.2-1.2V118.6z"/>
		<path fill="none" stroke="#666666" stroke-miterlimit="10" d="M-56.7,111.5c-1.9,0-3.2-1.5-3.2-3.8c0-2.3,1.2-3.8,3.2-3.8
			c1.9,0,3.2,1.5,3.2,3.8C-53.5,110-54.8,111.5-56.7,111.5z"/>
		<path fill="none" stroke="#666666" stroke-miterlimit="10" d="M-36.4,101.3H-37v-1.9c0-0.4-0.3-0.6-0.6-0.6
			c-0.4,0-0.6,0.3-0.6,0.6v-1.3c0-0.4-0.3-0.6-0.6-0.6c-0.4,0-0.6,0.3-0.6,0.6v3.2h-33v-3.2c0-0.4-0.3-0.6-0.6-0.6
			c-0.4,0-0.6,0.3-0.6,0.6v1.3c0-0.4-0.3-0.6-0.6-0.6c-0.4,0-0.6,0.3-0.6,0.6v1.9h-0.6c-0.4,0-0.6,0.3-0.6,0.6
			c0,0.4,0.3,0.6,0.6,0.6h0.6v1.9c0,0.4,0.3,0.6,0.6,0.6c0.4,0,0.6-0.3,0.6-0.6v1.3c0,0.4,0.3,0.6,0.6,0.6c0.4,0,0.6-0.3,0.6-0.6
			v-3.2h33v3.2c0,0.4,0.3,0.6,0.6,0.6c0.4,0,0.6-0.3,0.6-0.6v-1.3c0,0.4,0.3,0.6,0.6,0.6c0.4,0,0.6-0.3,0.6-0.6v-1.9h0.6
			c0.4,0,0.6-0.3,0.6-0.6C-35.7,101.6-36,101.3-36.4,101.3z"/>
	</g>
	<g>
		<path fill="#666666" d="M-46.2,136.8c0.3,0.3,1,0.3,1,0.3v0c1,0,0.9-0.2,1.2-0.5c0.3-0.3,0.5-0.7,0.5-1.1c0-0.4-0.1-0.7-0.4-0.9
			l-1.5-1.6H-50L-46.2,136.8z"/>
		<path fill="#666666" d="M-65.7,137.1c0.8,0,1.4-0.5,1.5-1.4c0.1-1.1,0.1-1.8,0.1-2.8h-3.1v2.6C-67.2,136.4-66.6,137.1-65.7,137.1z
			"/>
	</g>
</g>
<g id="star_x5F_jumps_4_">
	<path fill="#666666" d="M15,156.9c-1.9,0-3.2-1.5-3.2-3.8c0-2.3,1.2-3.8,3.2-3.8c1.9,0,3.2,1.5,3.2,3.8
		C18.2,155.4,17,156.9,15,156.9z"/>
	<path fill="#666666" d="M23,187.3c-0.7,0-1.3-0.4-1.5-1l-5.3-13.3c0-0.1-0.3-0.9-1.1-0.9c-0.8,0-1.1,0.7-1.1,0.8l-5.3,13.3
		c-0.2,0.6-0.8,1.1-1.5,1.1c-0.9,0-1.6-0.7-1.6-1.6c0-0.2,0-0.4,0.1-0.5l4.6-12.7c0.3-0.8,0.4-1.3,0.4-2.3v-8.3l-11.1-0.6
		c0,0,0,0,0,0c-0.8,0-1.6-0.7-1.6-1.6c0-0.9,0.7-1.6,1.6-1.6h31.1c0.9,0,1.6,0.7,1.6,1.6c0,0.9-0.7,1.6-1.6,1.6l-11.1,0.6l0,8.3
		c0,0.9,0.1,1.5,0.4,2.3l4.6,12.8c0.1,0.2,0.1,0.3,0.1,0.5C24.5,186.6,23.8,187.3,23,187.3z"/>
</g>
<g>
	<g id="star_x5F_jumps_1_">
		<path fill="none" stroke="#666666" stroke-miterlimit="10" d="M-56,156.9c-1.9,0-3.2-1.5-3.2-3.8c0-2.3,1.2-3.8,3.2-3.8
			c1.9,0,3.2,1.5,3.2,3.8C-52.9,155.4-54.1,156.9-56,156.9z"/>
		<path fill="none" stroke="#666666" stroke-miterlimit="10" d="M-48.1,187.3c-0.7,0-1.3-0.4-1.5-1l-5.3-13.3c0-0.1-0.3-0.9-1.1-0.9
			c-0.8,0-1.1,0.7-1.1,0.8l-5.3,13.3c-0.2,0.6-0.8,1.1-1.5,1.1c-0.9,0-1.6-0.7-1.6-1.6c0-0.2,0-0.4,0.1-0.5l4.6-12.7
			c0.3-0.8,0.4-1.3,0.4-2.3v-8.3l-11.1-0.6c0,0,0,0,0,0c-0.8,0-1.6-0.7-1.6-1.6c0-0.9,0.7-1.6,1.6-1.6h31.1c0.9,0,1.6,0.7,1.6,1.6
			c0,0.9-0.7,1.6-1.6,1.6l-11.1,0.6l0,8.3c0,0.9,0.1,1.5,0.4,2.3l4.6,12.8c0.1,0.2,0.1,0.3,0.1,0.5
			C-46.5,186.6-47.2,187.3-48.1,187.3z"/>
	</g>
	<g>
		<path fill="#666666" d="M-49.6,186.1c0.2,0.6,0.8,1.1,1.5,1.1c0.9,0,1.6-0.7,1.6-1.6c0-0.1,0-0.4-0.1-0.6l-1.5-4.2h-3.6
			L-49.6,186.1z"/>
		<path fill="#666666" d="M-64,187.3c0.7,0,1.3-0.6,1.5-1.2l2-5.2h-3.6l-1.4,4.1c-0.1,0.2-0.1,0.4-0.1,0.6
			C-65.6,186.5-64.9,187.3-64,187.3z"/>
	</g>
</g>
<g id="football_3_">
	<path fill="#666666" d="M26.6,0C17.5,0,10.9,2.1,6.5,6.5C2.1,10.9,0,17.5,0,26.6c0,1.2,1,2.2,2.2,2.2c9.1,0,15.7-2.1,20.1-6.5
		c4.4-4.4,6.5-11,6.5-20.1C28.8,1,27.8,0,26.6,0z M20.3,13.7c-0.1,0.1-0.2,0.2-0.4,0.2c-0.1,0-0.3-0.1-0.4-0.2l-1.8-1.8l-1.4,1.4
		l1.8,1.8c0.2,0.2,0.2,0.6,0,0.8c-0.1,0.1-0.2,0.2-0.4,0.2c-0.1,0-0.3-0.1-0.4-0.2l-1.8-1.8l-1.4,1.4l1.8,1.8c0.2,0.2,0.2,0.6,0,0.8
		c-0.1,0.1-0.2,0.2-0.4,0.2c-0.1,0-0.3-0.1-0.4-0.2l-1.8-1.8l-1.4,1.4l1.8,1.8c0.2,0.2,0.2,0.6,0,0.8c-0.1,0.1-0.2,0.2-0.4,0.2
		c-0.1,0-0.3-0.1-0.4-0.2l-1.8-1.8l-1.3,1.3c-0.1,0.1-0.2,0.2-0.4,0.2c-0.1,0-0.3-0.1-0.4-0.2c-0.2-0.2-0.2-0.6,0-0.8l1.3-1.3
		l-1.8-1.8c-0.2-0.2-0.2-0.6,0-0.8c0.2-0.2,0.6-0.2,0.8,0l1.8,1.8l1.4-1.4l-1.8-1.8c-0.2-0.2-0.2-0.6,0-0.8c0.2-0.2,0.6-0.2,0.8,0
		l1.8,1.8l1.4-1.4l-1.8-1.8c-0.2-0.2-0.2-0.6,0-0.8c0.2-0.2,0.6-0.2,0.8,0l1.8,1.8l1.4-1.4l-1.8-1.8c-0.2-0.2-0.2-0.6,0-0.8
		c0.2-0.2,0.6-0.2,0.8,0l1.8,1.8L19,9c0.2-0.2,0.6-0.2,0.8,0c0.2,0.2,0.2,0.6,0,0.8l-1.3,1.3l1.8,1.8C20.5,13.1,20.5,13.5,20.3,13.7
		z"/>
</g>
<g>
	<g id="football_1_">
		<path fill="none" stroke="#666666" stroke-miterlimit="10" d="M-43.9,0.9C-53,0.9-59.5,3-63.9,7.4c-4.4,4.4-6.5,11-6.5,20.1
			c0,1.2,1,2.2,2.2,2.2c9.1,0,15.7-2.1,20.1-6.5c4.4-4.4,6.5-11,6.5-20.1C-41.6,1.9-42.6,0.9-43.9,0.9z M-50.1,14.6
			c-0.1,0.1-0.2,0.2-0.4,0.2c-0.1,0-0.3-0.1-0.4-0.2l-1.8-1.8l-1.4,1.4l1.8,1.8c0.2,0.2,0.2,0.6,0,0.8c-0.1,0.1-0.2,0.2-0.4,0.2
			c-0.1,0-0.3-0.1-0.4-0.2l-1.8-1.8l-1.4,1.4l1.8,1.8c0.2,0.2,0.2,0.6,0,0.8c-0.1,0.1-0.2,0.2-0.4,0.2c-0.1,0-0.3-0.1-0.4-0.2
			l-1.8-1.8l-1.4,1.4l1.8,1.8c0.2,0.2,0.2,0.6,0,0.8c-0.1,0.1-0.2,0.2-0.4,0.2c-0.1,0-0.3-0.1-0.4-0.2l-1.8-1.8l-1.3,1.3
			c-0.1,0.1-0.2,0.2-0.4,0.2c-0.1,0-0.3-0.1-0.4-0.2c-0.2-0.2-0.2-0.6,0-0.8l1.3-1.3l-1.8-1.8c-0.2-0.2-0.2-0.6,0-0.8
			c0.2-0.2,0.6-0.2,0.8,0l1.8,1.8l1.4-1.4l-1.8-1.8c-0.2-0.2-0.2-0.6,0-0.8c0.2-0.2,0.6-0.2,0.8,0l1.8,1.8l1.4-1.4l-1.8-1.8
			c-0.2-0.2-0.2-0.6,0-0.8c0.2-0.2,0.6-0.2,0.8,0l1.8,1.8l1.4-1.4l-1.8-1.8c-0.2-0.2-0.2-0.6,0-0.8c0.2-0.2,0.6-0.2,0.8,0l1.8,1.8
			l1.3-1.3c0.2-0.2,0.6-0.2,0.8,0c0.2,0.2,0.2,0.6,0,0.8l-1.3,1.3l1.8,1.8C-49.9,14-49.9,14.3-50.1,14.6z"/>
	</g>
	<path fill="#666666" d="M-69.8,22.9c-0.1,1-0.2,3-0.2,4.6c0,1.2,1,2.2,2.2,2.2c9.1,0,15.7-2.1,20.1-6.5c0.1-0.1,0.3-0.3,0.4-0.3
		H-69.8z"/>
</g>
</svg>
