<?xml version="1.0" encoding="utf-8"?>
<!-- Generator: Adobe Illustrator 19.1.0, SVG Export Plug-In . SVG Version: 6.00 Build 0)  -->
<svg version="1.1" id="Layer_1" xmlns="http://www.w3.org/2000/svg" xmlns:xlink="http://www.w3.org/1999/xlink" x="0px" y="0px"
	 viewBox="0 0 26.5 43.5" enable-background="new 0 0 26.5 43.5" xml:space="preserve">
<g id="TsTfYo.tif">
	
		<image overflow="visible" width="1692" height="860" id="Layer_0_1_" xlink:href="87FF0D5D0830A132.png"  transform="matrix(0.4024 0 0 0.4024 125.6733 3.5478)">
	</image>
</g>
<g id="walking_1_">
	<path fill="#666666" d="M85.3,8.1c-1.9,0-3.2-1.5-3.2-3.8s1.2-3.8,3.2-3.8c1.9,0,3.2,1.5,3.2,3.8S87.3,8.1,85.3,8.1z"/>
	<path fill="#666666" d="M95.1,19l-4-1.8c-0.4-0.2-0.7-0.5-1.2-1.4l-1.5-3.5c-0.8-1.6-2.1-2.2-2.1-2.2c-1-0.4-2.1-0.6-3.3-0.6
		c-2,0-3.5,0.6-3.5,0.6L76,11.2c-1.1,0.4-2.3,1-2.7,3.1c0,0.1-0.1,0.6-1.2,5.8c0,0.1,0,0.3,0,0.4c0,0.9,0.7,1.6,1.6,1.6
		c0.8,0,1.4-0.5,1.6-1.3l1.6-5.3c0.1-0.4,0.2-0.6,0.8-0.8l2.2-0.7l-1.2,6.2c-0.1,0.4-0.2,0.8-0.2,1.2l0,0l-3.1,16.6
		c0,0.1,0,0.2,0,0.3c0,0.9,0.7,1.6,1.6,1.6c0.8,0,1.4-0.6,1.6-1.3l2.9-12.1c0.7,0.6,1.1,1,1.3,1.9l2.8,10.3c0.2,0.7,0.8,1.2,1.5,1.2
		c0.9,0,1.6-0.7,1.6-1.6c0-0.1,0-0.3-0.1-0.4c0,0,0,0,0,0l-2.6-12.1c-0.3-1.2-0.3-2.4-0.1-3.6l0.8-4.1l0.1,0.2
		c0.4,0.9,0.9,1.6,1.9,2L94,22c0.8,0.3,1.7-0.2,2-1C96.3,20.2,95.9,19.4,95.1,19z"/>
</g>
<g>
	<g id="walking_4_">
		<path fill="none" stroke="#666666" stroke-miterlimit="10" d="M15.2,8.1c-1.9,0-3.2-1.5-3.2-3.8s1.2-3.8,3.2-3.8
			c1.9,0,3.2,1.5,3.2,3.8S17.1,8.1,15.2,8.1z"/>
		<path fill="none" stroke="#666666" stroke-miterlimit="10" d="M24.9,19l-4-1.8c-0.4-0.2-0.7-0.5-1.2-1.4l-1.5-3.5
			c-0.8-1.6-2.1-2.2-2.1-2.2c-1-0.4-2.1-0.6-3.3-0.6c-2,0-3.5,0.6-3.5,0.6l-3.5,1.2c-1.1,0.4-2.3,1-2.7,3.1c0,0.1-0.1,0.6-1.2,5.8
			c0,0.1,0,0.3,0,0.4c0,0.9,0.7,1.6,1.6,1.6c0.8,0,1.4-0.5,1.6-1.3l1.6-5.3c0.1-0.4,0.2-0.6,0.8-0.8L9.6,14l-1.2,6.2
			c-0.1,0.4-0.2,0.8-0.2,1.2l0,0L5.1,37.9c0,0.1,0,0.2,0,0.3c0,0.9,0.7,1.6,1.6,1.6c0.8,0,1.4-0.6,1.6-1.3l2.9-12.1
			c0.7,0.6,1.1,1,1.3,1.9l2.8,10.3c0.2,0.7,0.8,1.2,1.5,1.2c0.9,0,1.6-0.7,1.6-1.6c0-0.1,0-0.3-0.1-0.4c0,0,0,0,0,0l-2.6-12.1
			c-0.3-1.2-0.3-2.4-0.1-3.6l0.8-4.1l0.1,0.2c0.4,0.9,0.9,1.6,1.9,2l5.5,1.8c0.8,0.3,1.7-0.2,2-1C26.1,20.2,25.7,19.4,24.9,19z"/>
	</g>
	<g>
		<defs>
			<rect id="SVGID_1_" y="34.2" width="25.9" height="9.3"/>
		</defs>
		<clipPath id="SVGID_2_">
			<use xlink:href="#SVGID_1_"  overflow="visible"/>
		</clipPath>
		<g id="walking_2_" clip-path="url(#SVGID_2_)">
			<path fill="#666666" d="M15.1,8.2c-1.9,0-3.2-1.5-3.2-3.8s1.2-3.8,3.2-3.8c1.9,0,3.2,1.5,3.2,3.8S17,8.2,15.1,8.2z"/>
			<path fill="#666666" d="M24.8,19.1l-4-1.8c-0.4-0.2-0.7-0.5-1.2-1.4l-1.5-3.5c-0.8-1.6-2.1-2.2-2.1-2.2c-1-0.4-2.1-0.6-3.3-0.6
				c-2,0-3.5,0.6-3.5,0.6l-3.5,1.2c-1.1,0.4-2.3,1-2.7,3.1c0,0.1-0.1,0.6-1.2,5.8c0,0.1,0,0.3,0,0.4c0,0.9,0.7,1.6,1.6,1.6
				c0.8,0,1.4-0.5,1.6-1.3l1.6-5.3c0.1-0.4,0.2-0.6,0.8-0.8l2.2-0.7l-1.2,6.2c-0.1,0.4-0.2,0.8-0.2,1.2l0,0L5,38.1
				c0,0.1,0,0.2,0,0.3c0,0.9,0.7,1.6,1.6,1.6c0.8,0,1.4-0.6,1.6-1.3L11,26.5c0.7,0.6,1.1,1,1.3,1.9l2.8,10.3
				c0.2,0.7,0.8,1.2,1.5,1.2c0.9,0,1.6-0.7,1.6-1.6c0-0.1,0-0.3-0.1-0.4c0,0,0,0,0,0l-2.6-12.1c-0.3-1.2-0.3-2.4-0.1-3.6l0.8-4.1
				l0.1,0.2c0.4,0.9,0.9,1.6,1.9,2l5.5,1.8c0.8,0.3,1.7-0.2,2-1C26,20.3,25.6,19.5,24.8,19.1z"/>
		</g>
	</g>
</g>
<g id="jogging_1_">
	<path fill="#666666" d="M98,67.7l-3.8-0.5c-0.9-0.1-1.3-0.4-1.8-1.1L89,61.5c0,0,0,0,0,0c0,0-0.1-0.1-0.1-0.1c0,0,0,0,0,0
		c0,0,0,0,0,0c-0.2-0.1-4.1-2-8.6,0.8l-2.6,1.7c-1.7,1.1-2.4,2.5-2.4,4.5v6c0,0.9,0.7,1.6,1.6,1.6c0.8,0,1.5-0.6,1.6-1.4
		c0-0.2,0.6-4.8,0.6-6c0.1-0.8,0.1-1.1,0.9-1.6c0.5-0.3,1.1-0.7,1.7-1.1v5.6c0,0.8,0.2,1.7,0.4,2.4l-3.3,5.3c0,0-0.4,0.6-1,0.6
		l-7.4,0.6c-0.8,0.1-1.3,0.8-1.3,1.6c0,0.9,0.7,1.6,1.6,1.6h8c1.2,0,2-0.4,3-1.4l3.3-3.4l7.8,11.6c0.3,0.5,0.8,0.8,1.4,0.8
		c0.9,0,1.6-0.7,1.6-1.6c0-0.3-0.1-0.6-0.3-0.9c-0.5-0.8-3.4-5.7-4.5-7.4c-1.1-1.8-1.6-2.6-1.6-4.8v-8.1l1.4,1.7c0,0,0,0,0,0
		c0,0,0,0,0,0c0.5,0.5,1.1,0.6,1.7,0.6l5.4,0c0.9,0,1.6-0.7,1.6-1.6C99.3,68.5,98.8,67.8,98,67.7z"/>
	<path fill="#666666" d="M86,59.4c-1.9,0-3.2-1.5-3.2-3.8c0-2.3,1.2-3.8,3.2-3.8c1.9,0,3.2,1.5,3.2,3.8C89.1,57.9,87.9,59.4,86,59.4
		z"/>
</g>
<g>
	<g id="jogging_4_">
		<path fill="none" stroke="#666666" stroke-miterlimit="10" d="M26.9,69.2l-3.8-0.5c-0.9-0.1-1.3-0.4-1.8-1.1l-3.4-4.6c0,0,0,0,0,0
			c0,0-0.1-0.1-0.1-0.1c0,0,0,0,0,0c0,0,0,0,0,0c-0.2-0.1-4.1-2-8.6,0.8l-2.6,1.7c-1.7,1.1-2.4,2.5-2.4,4.5v6c0,0.9,0.7,1.6,1.6,1.6
			c0.8,0,1.5-0.6,1.6-1.4c0-0.2,0.6-4.8,0.6-6C8,69.2,8,68.9,8.8,68.5c0.5-0.3,1.1-0.7,1.7-1.1V73c0,0.8,0.2,1.7,0.4,2.4l-3.3,5.3
			c0,0-0.4,0.6-1,0.6l-7.4,0.6c-0.8,0.1-1.3,0.8-1.3,1.6c0,0.9,0.7,1.6,1.6,1.6h8c1.2,0,2-0.4,3-1.4l3.3-3.4l7.8,11.6
			c0.3,0.5,0.8,0.8,1.4,0.8c0.9,0,1.6-0.7,1.6-1.6c0-0.3-0.1-0.6-0.3-0.9c-0.5-0.8-3.4-5.7-4.5-7.4c-1.1-1.8-1.6-2.6-1.6-4.8v-8.1
			l1.4,1.7c0,0,0,0,0,0c0,0,0,0,0,0c0.5,0.5,1.1,0.6,1.7,0.6l5.4,0c0.9,0,1.6-0.7,1.6-1.6C28.2,70,27.7,69.3,26.9,69.2z"/>
		<path fill="none" stroke="#666666" stroke-miterlimit="10" d="M14.9,60.9c-1.9,0-3.2-1.5-3.2-3.8s1.2-3.8,3.2-3.8
			c1.9,0,3.2,1.5,3.2,3.8S16.8,60.9,14.9,60.9z"/>
	</g>
	<g>
		<path fill="#666666" d="M21.2,85.5c1.2,2,2.5,4.2,2.8,4.7c0.2,0.3,0.3,0.5,0.3,0.8c0,0.9-0.7,1.6-1.6,1.6c-0.5,0-1-0.2-1.4-0.7
			l-4.3-6.3H21.2z"/>
	</g>
</g>
<g id="cycling_4_">
	<path fill="#666666" d="M72.6,142.4c-4.5,0-8.2-3.7-8.2-8.2s3.7-8.2,8.2-8.2c4.5,0,8.2,3.7,8.2,8.2S77.2,142.4,72.6,142.4z
		 M72.6,127.2c-3.8,0-7,3.1-7,7s3.1,7,7,7c3.8,0,7-3.1,7-7S76.5,127.2,72.6,127.2z"/>
	<path fill="#666666" d="M95.5,142.4c-4.5,0-8.2-3.7-8.2-8.2s3.7-8.2,8.2-8.2s8.2,3.7,8.2,8.2S100,142.4,95.5,142.4z M95.5,127.2
		c-3.8,0-7,3.1-7,7s3.1,7,7,7c3.8,0,7-3.1,7-7S99.3,127.2,95.5,127.2z"/>
	<path fill="#666666" d="M92,117.9C92,117.9,92,117.9,92,117.9C92,117.9,92,117.9,92,117.9l-3.9-5.4c0,0,0,0,0-0.1
		c-0.9-1.1-2.3-1.8-3.7-1.8c-1.6,0-3.1,0.8-4,2.1l-3.2,5.1c-0.1,0.2-0.3,0.3-0.8,0.4l-5.4,0.6c-0.9,0.1-1.5,0.8-1.5,1.6
		c0,0.9,0.7,1.6,1.6,1.6l5.7,0c1.7,0,2.5-0.4,3.4-1.8l1.9-3l4,5.5l-2.5,3.5l-0.1,0.2c-0.7,0.9-1.3,1.7-1.3,3.2v7.4
		c0,0.9,0.7,1.6,1.6,1.6c0.8,0,1.5-0.6,1.6-1.5l0.6-7.3c0-0.4,0.1-0.6,0.5-1l5.4-5.3C93.3,121.9,93.4,119.9,92,117.9z"/>
	<path fill="#666666" d="M79.7,110.7L79.7,110.7c-1.2,0-2.3-0.7-3.1-2.1c-1.3-2-1-3.9,0.6-5c1.6-1.1,3.5-0.4,4.8,1.5
		c1.3,2,1,3.9-0.6,5C80.8,110.5,80.3,110.7,79.7,110.7z"/>
</g>
<g>
	<g id="cycling_1_">
		<path fill="none" stroke="#666666" stroke-miterlimit="10" d="M1.7,143.6c-4.5,0-8.2-3.7-8.2-8.2s3.7-8.2,8.2-8.2s8.2,3.7,8.2,8.2
			S6.2,143.6,1.7,143.6z M1.7,128.4c-3.8,0-7,3.1-7,7s3.1,7,7,7c3.8,0,7-3.1,7-7S5.5,128.4,1.7,128.4z"/>
		<path fill="none" stroke="#666666" stroke-miterlimit="10" d="M24.5,143.6c-4.5,0-8.2-3.7-8.2-8.2s3.7-8.2,8.2-8.2
			s8.2,3.7,8.2,8.2S29,143.6,24.5,143.6z M24.5,128.4c-3.8,0-7,3.1-7,7s3.1,7,7,7c3.8,0,7-3.1,7-7S28.3,128.4,24.5,128.4z"/>
		<path fill="none" stroke="#666666" stroke-miterlimit="10" d="M21,119.1C21,119.1,21,119.1,21,119.1C21,119.1,21,119.1,21,119.1
			l-3.9-5.4c0,0,0,0,0-0.1c-0.9-1.1-2.3-1.8-3.7-1.8c-1.6,0-3.1,0.8-4,2.1l-3.2,5.1c-0.1,0.2-0.3,0.3-0.8,0.4L0,120.1
			c-0.9,0.1-1.5,0.8-1.5,1.6c0,0.9,0.7,1.6,1.6,1.6l5.7,0c1.7,0,2.5-0.4,3.4-1.8l1.9-3l4,5.5l-2.5,3.5l-0.1,0.2
			c-0.7,0.9-1.3,1.7-1.3,3.2v7.4c0,0.9,0.7,1.6,1.6,1.6c0.8,0,1.5-0.6,1.6-1.5l0.6-7.3c0-0.4,0.1-0.6,0.5-1l5.4-5.3
			C22.4,123.2,22.4,121.1,21,119.1z"/>
		<path fill="none" stroke="#666666" stroke-miterlimit="10" d="M8.7,111.9L8.7,111.9c-1.2,0-2.3-0.7-3.1-2.1c-1.3-2-1-3.9,0.6-5
			c1.6-1.1,3.5-0.4,4.8,1.5c1.3,2,1,3.9-0.6,5C9.8,111.7,9.3,111.9,8.7,111.9z"/>
	</g>
	<g>
		<path fill="#666666" d="M9.7,135.4C9.7,135.4,9.7,135.4,9.7,135.4c0,4.6-3.7,8.3-8.2,8.3c-4.5,0-8.2-4-8.2-8.6c0-0.1,0-0.5,0-0.5
			h1.3c0,0,0,0.4,0,0.5c0,3.8,3.1,7.1,7,7.1c3.8,0,7-2.9,7-6.8c0-0.1,0-0.1,0-0.1"/>
		<path fill="#666666" d="M14.3,134.9l-0.2,3.2c-0.1,0.9-0.8,1.6-1.6,1.6c-0.9,0-1.6-0.7-1.6-1.5v-3.7"/>
		<path fill="#666666" d="M32.5,135.4C32.5,135.4,32.6,135.4,32.5,135.4c0,4.6-3.7,8.3-8.2,8.3c-4.5,0-8.2-4-8.2-8.6
			c0-0.1,0-0.5,0-0.5h1.3c0,0,0,0.4,0,0.5c0,3.8,3.1,7.1,7,7.1c3.8,0,7-2.9,7-6.8c0-0.1,0-0.1,0-0.1"/>
	</g>
</g>
<g id="heart_3_">
	<path fill="#666666" d="M84.1,240.5c-0.2,0-0.3-0.1-0.5-0.2l-13.9-14c-1.8-1.8-2.8-4.2-2.8-6.7c0-2.5,1-4.9,2.8-6.7
		c1.8-1.8,4.2-2.8,6.7-2.8c2.5,0,4.9,1,6.7,2.8l0.9,0.8l0.9-0.8c1.8-1.8,4.2-2.8,6.7-2.8c2.5,0,4.9,1,6.7,2.8
		c1.8,1.8,2.8,4.2,2.8,6.7s-1,4.9-2.8,6.7l-13.9,14C84.4,240.5,84.2,240.5,84.1,240.5z"/>
</g>
<g>
	<g id="heart_1_">
		<path fill="none" stroke="#666666" stroke-miterlimit="10" d="M13,241.1c-0.2,0-0.3-0.1-0.5-0.2l-13.9-14
			c-1.8-1.8-2.8-4.2-2.8-6.7c0-2.5,1-4.9,2.8-6.7c1.8-1.8,4.2-2.8,6.7-2.8c2.5,0,4.9,1,6.7,2.8l0.9,0.8l0.9-0.8
			c1.8-1.8,4.2-2.8,6.7-2.8c2.5,0,4.9,1,6.7,2.8c1.8,1.8,2.8,4.2,2.8,6.7s-1,4.9-2.8,6.7l-13.9,14C13.3,241.1,13.1,241.1,13,241.1z"
			/>
	</g>
	<path fill="#666666" d="M4.3,232.5l8,8.2c0.1,0.1,0.3,0.3,0.5,0.3c0.2,0,0.3-0.2,0.5-0.3l8-8.2H4.3z"/>
</g>
<g id="weight_x5F_lifting_3_">
	<path fill="#666666" d="M87.9,278c0-1.5,0.3-2.1,1.4-3.3l9.5-9.9c0.3-0.3,0.5-0.7,0.5-1.1c0-0.4-0.2-0.8-0.5-1.1
		c-0.6-0.6-1.7-0.6-2.2,0l-9.7,8.8c-0.6,0.6-1.3,0.9-2.3,0.9l-0.6,0c-0.6,0-1.2,0.2-1.8,0.4l-10.7-10.1c-0.6-0.6-1.6-0.6-2.2,0
		c-0.6,0.6-0.6,1.6,0,2.2l11,11.5v5.5l-5.2,0.6c-1.5,0.2-2.5,1.2-2.5,2.5v9.8c0,0.9,0.7,1.6,1.6,1.6c0.8,0,1.5-0.6,1.6-1.5
		c0.5-7.6,0.6-8,0.6-8c0-0.4,0.1-0.6,0.7-0.6h7c0.1,0,0.3,0,0.4,0l9.6,9.7c0.3,0.3,0.7,0.5,1.1,0.5h0c0.4,0,0.8-0.2,1.1-0.5
		c0.3-0.3,0.5-0.7,0.5-1.1c0-0.4-0.2-0.8-0.4-1.1l-8.6-10.1c0.1-0.4,0.2-0.8,0.2-1.2V278z"/>
	<path fill="#666666" d="M83.4,270.9c-1.9,0-3.2-1.5-3.2-3.8c0-2.3,1.2-3.8,3.2-3.8c1.9,0,3.2,1.5,3.2,3.8
		C86.6,269.4,85.4,270.9,83.4,270.9z"/>
	<path fill="#666666" d="M103.7,260.7h-0.6v-1.9c0-0.4-0.3-0.6-0.6-0.6c-0.4,0-0.6,0.3-0.6,0.6v-1.3c0-0.4-0.3-0.6-0.6-0.6
		c-0.4,0-0.6,0.3-0.6,0.6v3.2h-33v-3.2c0-0.4-0.3-0.6-0.6-0.6c-0.4,0-0.6,0.3-0.6,0.6v1.3c0-0.4-0.3-0.6-0.6-0.6
		c-0.4,0-0.6,0.3-0.6,0.6v1.9h-0.6c-0.4,0-0.6,0.3-0.6,0.6s0.3,0.6,0.6,0.6H65v1.9c0,0.4,0.3,0.6,0.6,0.6c0.4,0,0.6-0.3,0.6-0.6v1.3
		c0,0.4,0.3,0.6,0.6,0.6c0.4,0,0.6-0.3,0.6-0.6V262h33v3.2c0,0.4,0.3,0.6,0.6,0.6c0.4,0,0.6-0.3,0.6-0.6v-1.3c0,0.4,0.3,0.6,0.6,0.6
		c0.4,0,0.6-0.3,0.6-0.6V262h0.6c0.4,0,0.6-0.3,0.6-0.6S104.1,260.7,103.7,260.7z"/>
</g>
<g>
	<g id="weight_x5F_lifting_1_">
		<path fill="none" stroke="#666666" stroke-miterlimit="10" d="M16.8,278.2c0-1.5,0.3-2.1,1.4-3.3l9.5-9.9c0.3-0.3,0.5-0.7,0.5-1.1
			c0-0.4-0.2-0.8-0.5-1.1c-0.6-0.6-1.7-0.6-2.2,0l-9.7,8.8c-0.6,0.6-1.3,0.9-2.3,0.9l-0.6,0c-0.6,0-1.2,0.2-1.8,0.4L0.5,262.7
			c-0.6-0.6-1.6-0.6-2.2,0c-0.6,0.6-0.6,1.6,0,2.2l11,11.5v5.5L4,282.5c-1.5,0.2-2.5,1.2-2.5,2.5v9.8c0,0.9,0.7,1.6,1.6,1.6
			c0.8,0,1.5-0.6,1.6-1.5c0.5-7.6,0.6-8,0.6-8c0-0.4,0.1-0.6,0.7-0.6h7c0.1,0,0.3,0,0.4,0L23,296c0.3,0.3,0.7,0.5,1.1,0.5
			c0,0,0,0,0,0c0.4,0,0.8-0.2,1.1-0.5c0.3-0.3,0.5-0.7,0.5-1.1c0-0.4-0.2-0.8-0.4-1.1l-8.6-10.1c0.1-0.4,0.2-0.8,0.2-1.2V278.2z"/>
		<path fill="none" stroke="#666666" stroke-miterlimit="10" d="M12.3,271.1c-1.9,0-3.2-1.5-3.2-3.8c0-2.3,1.2-3.8,3.2-3.8
			c1.9,0,3.2,1.5,3.2,3.8C15.5,269.6,14.3,271.1,12.3,271.1z"/>
		<path fill="none" stroke="#666666" stroke-miterlimit="10" d="M32.6,260.9H32V259c0-0.4-0.3-0.6-0.6-0.6c-0.4,0-0.6,0.3-0.6,0.6
			v-1.3c0-0.4-0.3-0.6-0.6-0.6c-0.4,0-0.6,0.3-0.6,0.6v3.2h-33v-3.2c0-0.4-0.3-0.6-0.6-0.6c-0.4,0-0.6,0.3-0.6,0.6v1.3
			c0-0.4-0.3-0.6-0.6-0.6c-0.4,0-0.6,0.3-0.6,0.6v1.9h-0.6c-0.4,0-0.6,0.3-0.6,0.6c0,0.4,0.3,0.6,0.6,0.6H-6v1.9
			c0,0.4,0.3,0.6,0.6,0.6c0.4,0,0.6-0.3,0.6-0.6v1.3c0,0.4,0.3,0.6,0.6,0.6c0.4,0,0.6-0.3,0.6-0.6v-3.2h33v3.2
			c0,0.4,0.3,0.6,0.6,0.6c0.4,0,0.6-0.3,0.6-0.6v-1.3c0,0.4,0.3,0.6,0.6,0.6c0.4,0,0.6-0.3,0.6-0.6v-1.9h0.6c0.4,0,0.6-0.3,0.6-0.6
			C33.3,261.2,33,260.9,32.6,260.9z"/>
	</g>
	<g>
		<path fill="#666666" d="M22.9,296.4c0.3,0.3,1,0.3,1,0.3v0c1,0,0.9-0.2,1.2-0.5c0.3-0.3,0.5-0.7,0.5-1.1c0-0.4-0.1-0.7-0.4-0.9
			l-1.5-1.6H19L22.9,296.4z"/>
		<path fill="#666666" d="M3.3,296.7c0.8,0,1.4-0.5,1.5-1.4c0.1-1.1,0.1-1.8,0.1-2.8H1.9v2.6C1.9,296,2.4,296.7,3.3,296.7z"/>
	</g>
</g>
<g id="star_x5F_jumps_4_">
	<path fill="#666666" d="M84.1,316.5c-1.9,0-3.2-1.5-3.2-3.8c0-2.3,1.2-3.8,3.2-3.8c1.9,0,3.2,1.5,3.2,3.8
		C87.2,315,86,316.5,84.1,316.5z"/>
	<path fill="#666666" d="M92,346.9c-0.7,0-1.3-0.4-1.5-1l-5.3-13.3c0-0.1-0.3-0.9-1.1-0.9c-0.8,0-1.1,0.7-1.1,0.8l-5.3,13.3
		c-0.2,0.6-0.8,1.1-1.5,1.1c-0.9,0-1.6-0.7-1.6-1.6c0-0.2,0-0.4,0.1-0.5l4.6-12.7c0.3-0.8,0.4-1.3,0.4-2.3v-8.3l-11.1-0.6
		c0,0,0,0,0,0c-0.8,0-1.6-0.7-1.6-1.6c0-0.9,0.7-1.6,1.6-1.6h31.1c0.9,0,1.6,0.7,1.6,1.6c0,0.9-0.7,1.6-1.6,1.6l-11.1,0.6l0,8.3
		c0,0.9,0.1,1.5,0.4,2.3l4.6,12.8c0.1,0.2,0.1,0.3,0.1,0.5C93.6,346.2,92.9,346.9,92,346.9z"/>
</g>
<g>
	<g id="star_x5F_jumps_1_">
		<path fill="none" stroke="#666666" stroke-miterlimit="10" d="M13,316.5c-1.9,0-3.2-1.5-3.2-3.8c0-2.3,1.2-3.8,3.2-3.8
			c1.9,0,3.2,1.5,3.2,3.8C16.2,315,14.9,316.5,13,316.5z"/>
		<path fill="none" stroke="#666666" stroke-miterlimit="10" d="M20.9,346.9c-0.7,0-1.3-0.4-1.5-1l-5.3-13.3c0-0.1-0.3-0.9-1.1-0.9
			c-0.8,0-1.1,0.7-1.1,0.8l-5.3,13.3c-0.2,0.6-0.8,1.1-1.5,1.1c-0.9,0-1.6-0.7-1.6-1.6c0-0.2,0-0.4,0.1-0.5l4.6-12.7
			c0.3-0.8,0.4-1.3,0.4-2.3v-8.3l-11.1-0.6c0,0,0,0,0,0c-0.8,0-1.6-0.7-1.6-1.6c0-0.9,0.7-1.6,1.6-1.6h31.1c0.9,0,1.6,0.7,1.6,1.6
			c0,0.9-0.7,1.6-1.6,1.6l-11.1,0.6l0,8.3c0,0.9,0.1,1.5,0.4,2.3l4.6,12.8c0.1,0.2,0.1,0.3,0.1,0.5
			C22.5,346.2,21.8,346.9,20.9,346.9z"/>
	</g>
	<g>
		<path fill="#666666" d="M19.4,345.8c0.2,0.6,0.8,1.1,1.5,1.1c0.9,0,1.6-0.7,1.6-1.6c0-0.1,0-0.4-0.1-0.6l-1.5-4.2h-3.6L19.4,345.8
			z"/>
		<path fill="#666666" d="M5,346.9c0.7,0,1.3-0.6,1.5-1.2l2-5.2H5l-1.4,4.1c-0.1,0.2-0.1,0.4-0.1,0.6C3.4,346.1,4.1,346.9,5,346.9z"
			/>
	</g>
</g>
<g id="football_3_">
	<path fill="#666666" d="M95.6,159.6c-9.1,0-15.7,2.1-20.1,6.5c-4.4,4.4-6.5,11-6.5,20.1c0,1.2,1,2.2,2.2,2.2
		c9.1,0,15.7-2.1,20.1-6.5c4.4-4.4,6.5-11,6.5-20.1C97.8,160.6,96.8,159.6,95.6,159.6z M89.4,173.3c-0.1,0.1-0.2,0.2-0.4,0.2
		c-0.1,0-0.3-0.1-0.4-0.2l-1.8-1.8l-1.4,1.4l1.8,1.8c0.2,0.2,0.2,0.6,0,0.8c-0.1,0.1-0.2,0.2-0.4,0.2c-0.1,0-0.3-0.1-0.4-0.2
		l-1.8-1.8l-1.4,1.4l1.8,1.8c0.2,0.2,0.2,0.6,0,0.8c-0.1,0.1-0.2,0.2-0.4,0.2c-0.1,0-0.3-0.1-0.4-0.2l-1.8-1.8l-1.4,1.4l1.8,1.8
		c0.2,0.2,0.2,0.6,0,0.8c-0.1,0.1-0.2,0.2-0.4,0.2c-0.1,0-0.3-0.1-0.4-0.2l-1.8-1.8l-1.3,1.3c-0.1,0.1-0.2,0.2-0.4,0.2
		c-0.1,0-0.3-0.1-0.4-0.2c-0.2-0.2-0.2-0.6,0-0.8l1.3-1.3l-1.8-1.8c-0.2-0.2-0.2-0.6,0-0.8c0.2-0.2,0.6-0.2,0.8,0l1.8,1.8l1.4-1.4
		l-1.8-1.8c-0.2-0.2-0.2-0.6,0-0.8c0.2-0.2,0.6-0.2,0.8,0l1.8,1.8l1.4-1.4l-1.8-1.8c-0.2-0.2-0.2-0.6,0-0.8c0.2-0.2,0.6-0.2,0.8,0
		l1.8,1.8l1.4-1.4l-1.8-1.8c-0.2-0.2-0.2-0.6,0-0.8c0.2-0.2,0.6-0.2,0.8,0l1.8,1.8l1.3-1.3c0.2-0.2,0.6-0.2,0.8,0
		c0.2,0.2,0.2,0.6,0,0.8l-1.3,1.3l1.8,1.8C89.6,172.7,89.6,173.1,89.4,173.3z"/>
</g>
<g>
	<g id="football_1_">
		<path fill="none" stroke="#666666" stroke-miterlimit="10" d="M25.2,160.5c-9.1,0-15.7,2.1-20.1,6.5c-4.4,4.4-6.5,11-6.5,20.1
			c0,1.2,1,2.2,2.2,2.2c9.1,0,15.7-2.1,20.1-6.5c4.4-4.4,6.5-11,6.5-20.1C27.4,161.5,26.4,160.5,25.2,160.5z M18.9,174.2
			c-0.1,0.1-0.2,0.2-0.4,0.2c-0.1,0-0.3-0.1-0.4-0.2l-1.8-1.8l-1.4,1.4l1.8,1.8c0.2,0.2,0.2,0.6,0,0.8c-0.1,0.1-0.2,0.2-0.4,0.2
			c-0.1,0-0.3-0.1-0.4-0.2l-1.8-1.8l-1.4,1.4l1.8,1.8c0.2,0.2,0.2,0.6,0,0.8c-0.1,0.1-0.2,0.2-0.4,0.2c-0.1,0-0.3-0.1-0.4-0.2
			l-1.8-1.8l-1.4,1.4l1.8,1.8c0.2,0.2,0.2,0.6,0,0.8c-0.1,0.1-0.2,0.2-0.4,0.2c-0.1,0-0.3-0.1-0.4-0.2L9.7,179l-1.3,1.3
			c-0.1,0.1-0.2,0.2-0.4,0.2c-0.1,0-0.3-0.1-0.4-0.2c-0.2-0.2-0.2-0.6,0-0.8l1.3-1.3l-1.8-1.8c-0.2-0.2-0.2-0.6,0-0.8
			c0.2-0.2,0.6-0.2,0.8,0l1.8,1.8l1.4-1.4l-1.8-1.8c-0.2-0.2-0.2-0.6,0-0.8c0.2-0.2,0.6-0.2,0.8,0l1.8,1.8l1.4-1.4l-1.8-1.8
			c-0.2-0.2-0.2-0.6,0-0.8c0.2-0.2,0.6-0.2,0.8,0l1.8,1.8l1.4-1.4l-1.8-1.8c-0.2-0.2-0.2-0.6,0-0.8c0.2-0.2,0.6-0.2,0.8,0l1.8,1.8
			l1.3-1.3c0.2-0.2,0.6-0.2,0.8,0c0.2,0.2,0.2,0.6,0,0.8l-1.3,1.3l1.8,1.8C19.1,173.6,19.1,174,18.9,174.2z"/>
	</g>
	<path fill="#666666" d="M-0.8,182.5c-0.1,1-0.2,3-0.2,4.6c0,1.2,1,2.2,2.2,2.2c9.1,0,15.7-2.1,20.1-6.5c0.1-0.1,0.3-0.3,0.4-0.3
		H-0.8z"/>
</g>
</svg>
