<?xml version="1.0" encoding="utf-8"?>
<!-- Generator: Adobe Illustrator 19.2.0, SVG Export Plug-In . SVG Version: 6.00 Build 0)  -->
<svg version="1.1" id="Layer_1" xmlns="http://www.w3.org/2000/svg" xmlns:xlink="http://www.w3.org/1999/xlink" x="0px" y="0px"
	 viewBox="0 0 100 100" style="enable-background:new 0 0 100 100;" xml:space="preserve">
<style type="text/css">
	.st0{fill:#FFFFFF;}
</style>
<g id="sprinting_1_">
	<path class="st0" d="M84.5,27.8c-1.6,0-2.8-0.4-4.4-1.2c-4.4-2.8-4.8-8-1.6-13.3c3.2-5.2,8.5-6.8,12.5-4c4.4,2.8,4.8,8,1.6,13.3
		C90.5,25.7,87.7,27.8,84.5,27.8z"/>
	<path class="st0" d="M95.8,54.3l-12.9-1.6V37.4V37c0-0.4-1.2-5.2-6.4-10.1c-1.2-0.8-2-2-3.2-2.4c-0.8-0.4-1.6-0.8-2.8-1.2l0,0
		l-18.1-5.2c-3.2-0.8-6,0-8.5,2.8L32.2,33.8c-0.8,0.8-1.2,2-1.2,2.8c0,1.2,0.4,2,1.2,2.8c0.8,0.8,2,1.2,2.8,1.2c1.2,0,2-0.4,2.8-1.2
		l12.5-11.7l6.8,2L3.2,85.3c-0.8,0.8-1.2,2-1.2,2.8c0,1.2,0.4,2,1.2,2.8c0.8,0.8,2,1.2,2.8,1.2c1.2,0,2-0.4,2.8-1.2l12.9-12.1h23.7
		c3.6,0,6.8-2.8,6.8-6.8v-5.2c0-4,0.4-4.8,2.8-7.2l17.3-17.3v10.9c0,6,2.4,8.5,8.5,8.5H95c2.4,0,4-2,4-4
		C99.8,56.3,97.8,54.7,95.8,54.3z M43.1,60.3V70l-10.9,0.8L43.1,60.3z"/>
</g>
</svg>
