<svg xmlns="http://www.w3.org/2000/svg" width="10.156" height="21.874" viewBox="0 0 10.156 21.874">
  <defs>
    <style>
      .cls-1 {
        fill: white;
        fill-rule: evenodd;
      }
    </style>
  </defs>
  <path class="cls-1" d="M463.036,476.431a2.564,2.564,0,0,1-1.059-2.295v-2.554h-3.913v2.554a2.584,2.584,0,0,1-1.078,2.313,5.248,5.248,0,0,0-2.052,3.889v0.729h10.173v-0.729A5.274,5.274,0,0,0,463.036,476.431Zm-8.1,9.014h10.173V481.8H454.934v3.648Zm0,3.283a1.139,1.139,0,0,0,1.174,1.095h7.825a1.139,1.139,0,0,0,1.174-1.095v-2.554H454.934v2.554Zm7.043-20.429a0.379,0.379,0,0,0-.392-0.365h-3.13a0.378,0.378,0,0,0-.391.365v2.553h3.913V468.3Z" transform="translate(-454.938 -467.938)"/>
</svg>
