<svg xmlns="http://www.w3.org/2000/svg" width="12.75" height="18.626" viewBox="0 0 12.75 18.626">
  <defs>
    <style>
      .cls-1 {
        fill: white;
        fill-rule: evenodd;
      }
    </style>
  </defs>
  <path class="cls-1" d="M799.2,174.183a0.3,0.3,0,0,0-.269-0.171h-5.705l1.443-7.085a0.313,0.313,0,0,0-.175-0.349,0.3,0.3,0,0,0-.367.107l-7.6,11.189a0.32,0.32,0,0,0-.021.322,0.3,0.3,0,0,0,.268.167h5.7l-1.435,6.458a0.313,0.313,0,0,0,.168.352,0.294,0.294,0,0,0,.126.029,0.3,0.3,0,0,0,.242-0.126l7.6-10.568A0.317,0.317,0,0,0,799.2,174.183Z" transform="translate(-786.5 -166.562)"/>
</svg>
