<?xml version="1.0" encoding="utf-8"?>
<!-- Generator: Adobe Illustrator 19.2.0, SVG Export Plug-In . SVG Version: 6.00 Build 0)  -->
<svg version="1.1" id="Layer_1" xmlns="http://www.w3.org/2000/svg" xmlns:xlink="http://www.w3.org/1999/xlink" x="0px" y="0px"
	 viewBox="0 0 100 100" style="enable-background:new 0 0 100 100;" xml:space="preserve">
<style type="text/css">
	.st0{fill:#FFFFFF;}
</style>
<path class="st0" d="M79.8,66.3l14.7,12.7c0,0,0,0,0.5,0h0.5l2.5-3c0,0,0-0.5,0-1l-10.7-9.1l10.7-9.1c0,0,0.5-0.5,0-1l-2.5-3h-0.5
	c0,0,0,0-0.5,0L79.8,65.3C79.8,65.8,79.3,65.8,79.8,66.3C79.3,66.3,79.8,66.3,79.8,66.3z"/>
<g>
	<path class="st0" d="M67.1,69.9C67.1,69.9,67.6,69.9,67.1,69.9c1-1,1-1.5,1-2c-6.6-0.5-17.3-0.5-24.4,6.1
		c-5.1,4.6-7.6,11.7-8.6,21.3h11.2c0.5,0,1,0,1-0.5c0.5-0.5,0.5-1,0-1.5c0,0-1-2.5-1.5-4.1c-0.5-1,0-2,0.5-3c0.5-1,1.5-3.6,1.5-5.1
		l0,0c0.5,0,1,0,1.5,0c0.5,0,1,0,1.5,0.5c1.5,0.5,4.1,0.5,6.1,0.5c2,0,3.6-0.5,5.1-1c2.5-1,5.1-3.6,3-9.7
		C66.6,70.9,66.6,70.9,67.1,69.9z"/>
	<path class="st0" d="M73.7,51.6c-0.5-1.5-3.6-6.6-5.6-9.1c-1-1-0.5-2,0.5-3c1-1,1-3,0.5-6.6v-0.5C68.6,28.2,67.6,19.6,62,13
		S48.3,3.3,37.1,3.3c-10.7,0-20.3,5.6-24.4,9.1C11.2,14,8.2,17,6.1,21.1c-2.5,4.6-3.6,9.1-3,13.7C3.6,45,6.6,51.1,9.7,56.2
		c1,2,2.5,3.6,3.6,4.6c1.5,2,3,3,3.6,6.6c1,6.1-3,13.7-4.6,16.3c-2,3.6-9.7,9.1-9.7,9.1c-0.5,0.5-1,1-0.5,1.5c0,0.5,1,1,1.5,1l0,0
		H31c1-11.2,4.6-19.8,10.2-24.9c9.1-8.1,21.9-7.6,29-7.1c0-0.5-0.5-1-0.5-1.5c0-0.5-0.5-1-0.5-1.5c0,0,0-0.5,3.6-1.5
		c1.5-0.5,2-1.5,2.5-2C75.3,54.7,74.2,52.6,73.7,51.6z"/>
</g>
</svg>
