<?xml version="1.0" encoding="utf-8"?>
<!-- Generator: Adobe Illustrator 19.2.0, SVG Export Plug-In . SVG Version: 6.00 Build 0)  -->
<svg version="1.1" id="Layer_1" xmlns="http://www.w3.org/2000/svg" xmlns:xlink="http://www.w3.org/1999/xlink" x="0px" y="0px"
	 viewBox="0 0 100 100" style="enable-background:new 0 0 100 100;" xml:space="preserve">
<style type="text/css">
	.st0{fill:#FFFFFF;}
</style>
<g>
	<path class="st0" d="M69,4.9c1.7,0.4,3.4,0.8,4.6,1.3c2.1,0.4,2.1,0.8,1.7,2.9c-0.8,4.6-1.7,9.2-2.5,14.2c-0.4,2.9,0,5.4,1.3,8
		c0.8,1.7,1.7,3.4,2.5,5c1.7,3.8,2.1,7.5,0,11.3c-2.5,4.6-9.6,6.3-13.8,2.9c-1.3-0.8-2.1-2.1-3.4-2.9c-1.3-1.3-2.9-1.3-5-0.8
		c-1.3,0.4-2.5,1.3-3.8,1.7c-6.3,2.5-13-2.5-12.1-9.6c0.4-4.6,2.5-8.8,6.7-11.7c1.3-0.8,2.1-1.7,3.4-2.1c4.6-2.5,7.5-6.7,9.2-11.7
		c0.8-2.5,1.7-5,2.5-8c0.8-2.1,0.8-2.5,3.4-1.7C65.7,4,67.4,4.4,69,4.9z"/>
	<path class="st0" d="M67.8,72.3c-0.4,1.3-0.8,2.1-1.3,2.9c-0.8,6.3-1.3,12.1-1.7,18.4c-0.4,2.9,0,3.4-3.4,3.4c-2.9,0-5.9,0-8.8,0
		c-2.1,0-2.5,0-2.5-2.5c-0.4-5.9-0.8-11.7-1.3-17.6c-0.4-3.4-1.7-6.3-4.2-8.8c-2.1-1.7-3.4-3.8-4.2-6.7c-0.8-3.4,0.4-4.6,3.8-3.8
		c2.9,0.4,5.4,0,8-1.7c0.8-0.4,1.3-1.3,2.1-1.7c2.1-1.7,4.2-2.1,6.3-0.4c4.2,2.9,8,2.5,12.6,0.4c2.1-1.3,3.8,0,3.8,2.5
		c0,1.7-0.4,3.4-1.3,5c-0.4,1.3-0.8,2.5-0.4,3.8c0.4,0.8,0.4,2.1,0,2.9c-1.7,4.2-1.3,8.4-1.7,12.6c-0.4,4.6-0.8,9.2-1.3,13.4
		c0,2.1-1.7,2.9-3.4,2.1c-0.4,0-0.8-0.8-0.8-1.3c0-1.7,0-2.9,0-4.6c0-5.9,0-11.7-0.4-17.2C68.6,73.1,68.2,73.1,67.8,72.3z"/>
	<path class="st0" d="M34.7,39.6c0.4-2.9,1.3-5.4,2.9-8L33.4,25v8.4l-7.5-3.8l4.6,7.1l-8.4,0.8l7.5,3.4L23,46.3l8.4-1.3l-2.5,8
		l6.3-5.9l2.1,8l2.1-7.1C36.4,47.2,34.3,43.8,34.7,39.6z"/>
</g>
</svg>
