<?xml version="1.0" encoding="utf-8"?>
<!-- Generator: Adobe Illustrator 19.2.0, SVG Export Plug-In . SVG Version: 6.00 Build 0)  -->
<svg version="1.1" id="Layer_1" xmlns="http://www.w3.org/2000/svg" xmlns:xlink="http://www.w3.org/1999/xlink" x="0px" y="0px"
	 viewBox="0 0 100 100" style="enable-background:new 0 0 100 100;" xml:space="preserve">
<style type="text/css">
	.st0{fill:#FFFFFF;}
</style>
<g id="brain_3_">
	<path class="st0" d="M92.4,47.4c0-10.3-1.6-46.8-36.5-46.8c-45.7,0-39.7,40.3-39.7,45.2c0.5,4.4-4.9,9.3-7.1,12.5
		c-2.2,3.3,2.2,4.4,2.2,4.4h4.4c0,0,2.2,3.3,0.5,3.8c-1.6,1.1,0,4.4,1.1,4.4c0,0-1.1,2.7-0.5,3.8c0.5,1.1,2.7,2.7,2.7,4.9
		c0,1.6-1.6,4.4-0.5,6c1.1,1.6,2.7,2.7,8.2,2.7c6,0,10.9-1.1,13.1,1.6c1.6,2.7,1.6,9.3,1.6,9.3h42.4c0,0-7.6-12-4.9-21.2
		C81.5,68,92.4,57.7,92.4,47.4z M70.1,65.9c1.6,4.4-9.3-3.3-9.3-9.3s-7.6-13.1-13.1-11.4c-12,3.3-15.2-3.3-15.8-8.7
		c-0.5-4.4-11.4-7.1-11.4-7.1c1.1-7.6,4.4-12.5,7.1-15.2c6-6.5,15.8-10.3,28.8-10.3c9.3,0,16.3,2.7,21.8,8.2c6.5,7.1,10.9,18,7.1,25
		C81.5,43.6,61.4,44.7,70.1,65.9z"/>
</g>
</svg>
