<?xml version="1.0" encoding="utf-8"?>
<!-- Generator: Adobe Illustrator 18.1.0, SVG Export Plug-In . SVG Version: 6.00 Build 0)  -->
<svg version="1.1" id="Layer_1" xmlns="http://www.w3.org/2000/svg" xmlns:xlink="http://www.w3.org/1999/xlink" x="0px" y="0px"
	 viewBox="0 0 42.2 52.7" enable-background="new 0 0 42.2 52.7" xml:space="preserve">
<g>
	<path fill="#FFFFFF" d="M42.2,12.8C42.2,1.6,33.4,0,29.9,0c-3.5,0-5.3,1.6-8.7,1.6H21c-3.4,0-5.2-1.6-8.7-1.6C8.8,0,0,1.6,0,12.8
		c0,8.5,7.9,12,7.9,17.5c0,9-4.3,22.4,0.6,22.4c5.6,0,4.9-14.7,12.4-16.1h0.2v0l0,0v0h0.2c7.5,1.4,6.8,16.1,12.4,16.1
		c4.9,0,0.6-13.4,0.6-22.4C34.3,24.7,42.2,21.2,42.2,12.8z"/>
</g>
</svg>
