<?xml version="1.0" encoding="utf-8"?>
<!-- Generator: Adobe Illustrator 19.2.0, SVG Export Plug-In . SVG Version: 6.00 Build 0)  -->
<svg version="1.1" id="Layer_1" xmlns="http://www.w3.org/2000/svg" xmlns:xlink="http://www.w3.org/1999/xlink" x="0px" y="0px"
	 viewBox="0 0 100 100" style="enable-background:new 0 0 100 100;" xml:space="preserve">
<style type="text/css">
	.st0{fill:#FFFFFF;}
</style>
<path class="st0" d="M1.7,52.3h44c0,0,16.9-15.6,49.8-14.3c7.2,5.1,0,7.6,0,7.6s-26.1-3.4-48.9,10.1c-9.3,8-16.9,11.5-28.8,9.7
	C6.6,63.2,1.7,52.3,1.7,52.3z"/>
<path class="st0" d="M6.3,48.1h35c0,0-1.2-5.9-7.6-7.6c-6.4-1.7-8.8-6.4-13.1-3.9c-4.2,2.5-5.5-0.4-9.3,3
	C7.5,42.6,6.3,48.1,6.3,48.1z"/>
</svg>
