<?xml version="1.0" encoding="utf-8"?>
<!-- Generator: Adobe Illustrator 19.2.0, SVG Export Plug-In . SVG Version: 6.00 Build 0)  -->
<svg version="1.1" id="Layer_1" xmlns="http://www.w3.org/2000/svg" xmlns:xlink="http://www.w3.org/1999/xlink" x="0px" y="0px"
	 viewBox="0 0 100 100" style="enable-background:new 0 0 100 100;" xml:space="preserve">
<style type="text/css">
	.st0{fill:#FFFFFF;}
</style>
<g>
	<path class="st0" d="M64.5,14.2c0,7.7-5.9,13.6-13.6,13.6s-13.6-5.9-13.6-13.6S43.2,0.6,50.9,0.6C58.1,0.6,64.5,6.5,64.5,14.2"/>
	<path class="st0" d="M68.5,31.8c-2.3,0-9.1,0-15.9,0v12.7l3.2,0.9v-3.2c0-1.8,1.8-3.6,5-1.4c4.5,3.2,9.5,20.4,4.1,19.5
		c-2.7-0.5-4.1-1.4-6.8-1.8c-2.3,0-2.3-0.9-2.3-2.3c0-1.4,0-5.4,0-5.4v-2.3c-0.9-0.5-2.3-0.5-3.2-0.9v15.9c0,0,4.5-3.2,7.7-0.5
		c1.8,1.4,3.2,5.9-2.7,9.5c-1.4,0.9-9.1,2.7-11.8-1.8h-2.7c-1.4,0-2.3,0.9-2.3,2.3s0.9,2.3,2.3,2.3h16.3c2.7,0,4.5,2.3,4.5,4.5
		c0,2.7-2.3,4.5-4.5,4.5H42.3c-0.5,0-0.9,0.5-0.9,0.9s0.5,0.9,0.9,0.9H59c2.7,0,4.5,2.3,4.5,4.5c0,2.7-2.3,4.5-4.5,4.5H39.5
		c-0.9,0-1.8-0.9-1.8-1.8c0-0.9,0.9-1.8,1.8-1.8H59c0.5,0,0.9-0.5,0.9-0.9s-0.5-0.9-0.9-0.9H42.3c-2.7,0-4.5-2.3-4.5-4.5
		c0-2.7,2.3-4.5,4.5-4.5H59c0.5,0,0.9-0.5,0.9-0.9S59.5,79,59,79H42.7c-3.2,0-5.9-2.7-5.9-5.9c0-3.2,2.7-5.9,5.9-5.9h3.6l0,0h1.4
		c1.4,0,1.4-1.4,1.4-1.4V47.7c-0.9,0.5-2.3,0.5-3.2,0.9v1.8c0,0,0,4.1,0,5.4c0,1.4,0,2.3-2.3,2.3c-2.7,0-4.1,1.4-6.8,1.8
		c-5.4,0.5-0.5-16.3,4.1-19.5c3.2-2.3,5-0.5,5,1.4V45l3.2-0.9V31.8c-6.8,0-13.1,0-15.4,0c-9.5,0-18.1,7.7-18.1,17.2c0,5,0,39,0,42.1
		c0,3.2,2.7,5.9,5.9,5.9c3.2,0,5.9-2.7,5.9-5.9c0-3.6,0-38.1,0-38.1h5v46.2h37.1V53.1h5c0,0,0,34.4,0,38.1c0,3.2,2.7,5.9,5.9,5.9
		c3.2,0,5.9-2.7,5.9-5.9c0-3.2,0-37.1,0-42.1C86.2,39.5,78.5,31.8,68.5,31.8z"/>
</g>
</svg>
