<svg xmlns="http://www.w3.org/2000/svg" width="25.281" height="16.719" viewBox="0 0 25.281 16.719">
  <defs>
    <style>
      .cls-1 {
        fill: white;
        fill-rule: evenodd;
      }
    </style>
  </defs>
  <path class="cls-1" d="M884.342,390.6a4.431,4.431,0,0,0-1.508.268l-0.917-5.027,2.365,0.353a0.67,0.67,0,0,1,.545.759,0.778,0.778,0,0,1-.846.571,0.422,0.422,0,0,0-.477.372,0.437,0.437,0,0,0,.357.5,1.607,1.607,0,0,0,1.8-1.316,1.546,1.546,0,0,0-1.259-1.755l-2.949-.44a0.411,0.411,0,0,0-.365.132,0.453,0.453,0,0,0-.109.386l0.467,2.558H872.68l-1.162-3.055,1.332,0.4a0.414,0.414,0,0,0,.521-0.3,0.444,0.444,0,0,0-.289-0.544l-2.95-.88a0.421,0.421,0,0,0-.521.3,0.444,0.444,0,0,0,.29.545l0.594,0.177,1.431,3.761-1.576,2.73a4.436,4.436,0,0,0-2.019-.49,4.846,4.846,0,1,0,4.614,5.28h2.1a0.435,0.435,0,0,0,.322-0.125l6.319-6.47,0.357,1.958a4.88,4.88,0,0,0-2.336,4.2A4.639,4.639,0,1,0,884.342,390.6Zm-16.011,7.921a3.083,3.083,0,1,1,2.95-3.08A3.02,3.02,0,0,1,868.331,398.516ZM872.944,395a4.888,4.888,0,0,0-1.873-3.455l1.246-2.157L874.452,395h-1.508Zm2.287-.337-2.216-5.824h7.9Zm9.111,3.858a3.083,3.083,0,1,1,2.95-3.08A3.02,3.02,0,0,1,884.342,398.516Zm0-4.4a1.322,1.322,0,1,0,1.265,1.321A1.3,1.3,0,0,0,884.342,394.115Zm-16.011,0a1.322,1.322,0,1,0,1.264,1.321A1.3,1.3,0,0,0,868.331,394.115Z" transform="translate(-863.688 -383.562)"/>
</svg>
