<svg xmlns="http://www.w3.org/2000/svg" width="20.468" height="20.156" viewBox="0 0 20.468 20.156">
  <defs>
    <style>
      .cls-1 {
        fill: white;
        fill-rule: evenodd;
      }
    </style>
  </defs>
  <path id="smiley-super-happy_copy" data-name="smiley-super-happy copy" class="cls-1" d="M681.922,129.625A10.079,10.079,0,1,1,671.687,139.7,10.157,10.157,0,0,1,681.922,129.625Zm-4.251,12.589h8.515a0.9,0.9,0,0,1,.851.87,2.451,2.451,0,0,1-.74,1.53,7.113,7.113,0,0,1-8.738,0,2.451,2.451,0,0,1-.74-1.53,0.9,0.9,0,0,1,.852-0.87h0Zm0.829-5.87h0.094a1.25,1.25,0,0,1,0,2.5H678.5A1.25,1.25,0,0,1,678.5,136.344Zm6.812,0h0.063a1.25,1.25,0,0,1,0,2.5h-0.063A1.25,1.25,0,0,1,685.312,136.344Z" transform="translate(-671.688 -129.625)"/>
</svg>
