<?xml version="1.0" encoding="utf-8"?>
<!-- Generator: Adobe Illustrator 19.1.0, SVG Export Plug-In . SVG Version: 6.00 Build 0)  -->
<svg version="1.1" id="Layer_1" xmlns="http://www.w3.org/2000/svg" xmlns:xlink="http://www.w3.org/1999/xlink" x="0px" y="0px"
	 viewBox="-295 387 20 20" style="enable-background:new -295 387 20 20;" xml:space="preserve">
<style type="text/css">
	.st0{fill:#FFFFFF;}
</style>
<g>
	<g id="star_x5F_jumps_1_">
		<path class="st0" d="M-285,394.1c-0.7,0-1.1-0.5-1.1-1.3s0.4-1.3,1.1-1.3c0.7,0,1.1,0.5,1.1,1.3S-284.4,394.1-285,394.1z"/>
		<path class="st0" d="M-282.3,404.4c-0.2,0-0.4-0.1-0.5-0.4l-1.8-4.5c0,0-0.1-0.3-0.4-0.3c-0.3,0-0.4,0.3-0.4,0.3l-1.8,4.5
			c-0.1,0.2-0.3,0.4-0.5,0.4c-0.3,0-0.5-0.2-0.5-0.5c0-0.1,0-0.1,0-0.2l1.5-4.3c0.1-0.3,0.1-0.4,0.1-0.8v-2.8l-3.8-0.2c0,0,0,0,0,0
			c-0.3,0-0.5-0.2-0.5-0.5c0-0.3,0.2-0.5,0.5-0.5h10.5c0.3,0,0.5,0.2,0.5,0.5s-0.2,0.5-0.5,0.5l-3.8,0.2l0,2.8c0,0.3,0,0.5,0.1,0.8
			l1.5,4.3c0,0.1,0,0.1,0,0.2C-281.8,404.2-282,404.4-282.3,404.4z"/>
	</g>
	<g id="speedometer_1_">
		<path class="st0" d="M-275.1,397.9c0-2.7-1.1-5.2-2.9-7c0,0,0,0,0,0c0,0,0,0,0,0c-1.8-1.8-4.3-2.9-7-2.9s-5.2,1.1-7,2.9
			c0,0,0,0,0,0c0,0,0,0,0,0c-1.8,1.8-2.9,4.3-2.9,7c0,2.6,1,5,2.8,6.9c0.1,0.1,0.2,0.1,0.3,0.1c0,0,0,0,0,0c0.1,0,0.2,0,0.3-0.1
			l1.2-1.2c0.1-0.1,0.1-0.4,0-0.5c-0.1-0.1-0.4-0.1-0.5,0l-1,1c-1.4-1.6-2.2-3.6-2.3-5.7h1.1c0.2,0,0.4-0.2,0.4-0.4
			c0-0.2-0.2-0.4-0.4-0.4h-1.1c0.1-2.3,1-4.3,2.4-5.8l1,1c0.1,0.1,0.2,0.1,0.3,0.1c0.1,0,0.2,0,0.3-0.1c0.1-0.1,0.1-0.4,0-0.5l-1-1
			c1.6-1.4,3.6-2.3,5.8-2.4v1.1c0,0.2,0.2,0.4,0.4,0.4c0.2,0,0.4-0.2,0.4-0.4v-1.1c2.3,0.1,4.3,1,5.8,2.4l-1,1
			c-0.1,0.1-0.1,0.4,0,0.5c0.1,0.1,0.2,0.1,0.3,0.1s0.2,0,0.3-0.1l1-1c1.4,1.6,2.3,3.6,2.4,5.8h-1.1c-0.2,0-0.4,0.2-0.4,0.4
			c0,0.2,0.2,0.4,0.4,0.4h1.1c-0.1,2.1-0.9,4.1-2.3,5.7l-1-1c-0.1-0.1-0.4-0.1-0.5,0c-0.1,0.1-0.1,0.4,0,0.5l1.2,1.2c0,0,0,0,0,0
			c0,0,0,0,0,0c0,0,0.1,0,0.1,0.1c0,0,0,0,0,0c0,0,0.1,0,0.1,0c0,0,0.1,0,0.1,0c0,0,0,0,0,0c0,0,0.1,0,0.1-0.1c0,0,0,0,0,0
			c0,0,0,0,0,0C-276.1,402.9-275.1,400.5-275.1,397.9z"/>
	</g>
</g>
</svg>
