<svg xmlns="http://www.w3.org/2000/svg" width="18.531" height="18.625" viewBox="0 0 18.531 18.625">
  <defs>
    <style>
      .cls-1 {
        fill: white;
        fill-rule: evenodd;
      }
    </style>
  </defs>
  <path class="cls-1" d="M483.1,223.2l-4.157-2.348,4.157-2.348a0.31,0.31,0,0,0,.117-0.425l-2.164-3.763a0.308,0.308,0,0,0-.419-0.115l-4.176,2.358v-4.706a0.309,0.309,0,0,0-.309-0.31h-4.327a0.31,0.31,0,0,0-.309.31v4.706l-4.175-2.358a0.308,0.308,0,0,0-.419.115l-2.164,3.763a0.311,0.311,0,0,0,.116.425l4.157,2.348L464.87,223.2a0.311,0.311,0,0,0-.116.425l2.164,3.763a0.308,0.308,0,0,0,.419.115l4.175-2.359v4.707a0.31,0.31,0,0,0,.309.31h4.327a0.309,0.309,0,0,0,.309-0.31v-4.706l4.176,2.358a0.308,0.308,0,0,0,.419-0.115l2.164-3.763A0.31,0.31,0,0,0,483.1,223.2Z" transform="translate(-464.719 -211.531)"/>
</svg>
