<svg xmlns="http://www.w3.org/2000/svg" width="16" height="19.531" viewBox="0 0 16 19.531">
  <defs>
    <style>
      .cls-1 {
        fill: white;
        fill-rule: evenodd;
      }
    </style>
  </defs>
  <path class="cls-1" d="M573.022,142.6a3.978,3.978,0,0,0-2.673.738c-0.082.059-.147,0.1-0.208,0.138v-1.526a1.616,1.616,0,0,0-1.6-1.626h-1.92a0.326,0.326,0,0,0,0,.651h1.92a0.969,0.969,0,0,1,.96.975v1.526c-0.061-.036-0.125-0.079-0.208-0.138a3.972,3.972,0,0,0-2.672-.738c-2.648,0-4.8,2.772-4.8,6.178a12.1,12.1,0,0,0,1.533,5.453c1.055,1.907,2.363,3,3.588,3a2.633,2.633,0,0,0,2.247-.708,0.882,0.882,0,0,1,1.266,0,2.634,2.634,0,0,0,2.248.708c1.224,0,2.532-1.094,3.587-3a12.088,12.088,0,0,0,1.533-5.453C577.822,145.375,575.669,142.6,573.022,142.6Zm-1.921-.325a4.052,4.052,0,0,0,3.841-4.226,0.323,0.323,0,0,0-.32-0.326,4.053,4.053,0,0,0-3.841,4.227A0.322,0.322,0,0,0,571.1,142.278Z" transform="translate(-561.812 -137.719)"/>
</svg>
