<?xml version="1.0" encoding="utf-8"?>
<!-- Generator: Adobe Illustrator 19.2.0, SVG Export Plug-In . SVG Version: 6.00 Build 0)  -->
<svg version="1.1" id="Layer_1" xmlns="http://www.w3.org/2000/svg" xmlns:xlink="http://www.w3.org/1999/xlink" x="0px" y="0px"
	 viewBox="0 0 100 100" style="enable-background:new 0 0 100 100;" xml:space="preserve">
<style type="text/css">
	.st0{fill:#FFFFFF;}
</style>
<g>
	<g>
		<path class="st0" d="M42.9,56.5c0,0,0-25,0-29.9c0-5-2-12-12.6-4.2C10.9,36.6,2.9,65.1,2.3,87.1C1.6,109,16,93.7,24.7,88.2
			c9.1-5.8,17.9-6.6,17.9-13.9C42.6,69,42.9,56.5,42.9,56.5z"/>
		<path class="st0" d="M57.6,56.5c0,0,0-25,0-29.9c0-5,2-12,12.6-4.2c19.4,14.2,27.4,42.7,28,64.7c0.6,21.9-13.8,6.6-22.4,1.2
			C66.8,82.5,58,81.7,58,74.3C58,69,57.6,56.5,57.6,56.5z"/>
	</g>
	<g>
		<path class="st0" d="M53.7,41.2c0,1.9-1.5,3.4-3.4,3.4l0,0c-1.9,0-3.4-1.5-3.4-3.4v-37c0-1.9,1.5-3.4,3.4-3.4l0,0
			c1.9,0,3.4,1.5,3.4,3.4V41.2z"/>
		<path class="st0" d="M62.9,51C62.9,51,62.9,51,62.9,51L62.9,51c-2-1.6-8.1-5.9-12.4-5.9h-0.4c-4.3,0-10.4,4.2-12.4,5.9l-3-3.7
			c0.9-0.7,8.7-6.9,15.4-6.9h0.4c6.7,0,14.6,6.2,15.4,6.9L62.9,51z"/>
	</g>
</g>
</svg>
