<svg xmlns="http://www.w3.org/2000/svg" width="20.219" height="20.25" viewBox="0 0 20.219 20.25">
  <defs>
    <style>
      .cls-1 {
        fill: white;
        fill-rule: evenodd;
      }
    </style>
  </defs>
  <path class="cls-1" d="M553.327,572.943c-0.911-.375-1.608-0.714-1.609-1.357l0.133-3.552a5.863,5.863,0,0,0-3.413-5.336,2.464,2.464,0,0,0-4.908,0,5.863,5.863,0,0,0-3.413,5.348l0.132,3.527c0,0.656-.7,1-1.624,1.376a0.338,0.338,0,0,0,.128.651h14.462a0.333,0.333,0,0,0,.323-0.276A0.348,0.348,0,0,0,553.327,572.943Zm-5.656,1.362H544.3a0.337,0.337,0,0,0-.337.338c0,1.488.736,2.35,2.02,2.364h0.03c1.251,0,2-.884,2-2.364A0.337,0.337,0,0,0,547.671,574.3Zm-1.661,2.364h0Zm-6.92-12.159a0.337,0.337,0,0,0-.337-0.338h-1.769L539,562.04a0.338,0.338,0,0,0-.245-0.57H536.2a0.338,0.338,0,0,0,0,.676h1.769l-2.014,2.132a0.338,0.338,0,0,0,.245.57h2.552A0.337,0.337,0,0,0,539.09,564.51Zm4.767-7.093h0.977l-1.235,1.471a0.338,0.338,0,0,0,.258.556h1.7a0.338,0.338,0,0,0,0-.676h-0.978l1.236-1.471a0.339,0.339,0,0,0-.258-0.556h-1.7A0.338,0.338,0,0,0,543.857,557.417Zm11.91,5.4h-2.584l2.821-2.8a0.337,0.337,0,0,0-.237-0.577h-3.4a0.338,0.338,0,0,0,0,.675h2.583l-2.821,2.8a0.337,0.337,0,0,0,.238.577h3.4A0.338,0.338,0,0,0,555.767,562.821Z" transform="translate(-535.875 -556.75)"/>
</svg>
