<svg xmlns="http://www.w3.org/2000/svg" width="21.812" height="14.438" viewBox="0 0 21.812 14.438">
  <defs>
    <style>
      .cls-1 {
        fill: white;
        fill-rule: evenodd;
      }
    </style>
  </defs>
  <path class="cls-1" d="M445.2,349.672h-5.454V354H445.2a0.362,0.362,0,0,0,.363-0.361v-3.609A0.361,0.361,0,0,0,445.2,349.672Zm-19.271.36v3.609a0.363,0.363,0,0,0,.364.361h12.726v-4.33H426.3A0.362,0.362,0,0,0,425.932,350.032Zm-1.091-.36a0.361,0.361,0,0,0-.363.36v3.609a0.364,0.364,0,0,0,.727,0v-3.609A0.362,0.362,0,0,0,424.841,349.672Zm-0.363-4.331a2.671,2.671,0,0,1,2.545-2.526,2.773,2.773,0,0,0,2.909-2.887,0.364,0.364,0,0,0-.727,0,2.037,2.037,0,0,1-2.182,2.165,3.389,3.389,0,0,0-3.272,3.248v1.8a0.364,0.364,0,0,0,.727,0v-1.8Zm4-.722a2.772,2.772,0,0,0,2.909-2.886,0.364,0.364,0,0,0-.727,0,2.037,2.037,0,0,1-2.182,2.165,3.389,3.389,0,0,0-3.272,3.247,0.364,0.364,0,0,0,.727,0A2.671,2.671,0,0,1,428.477,344.619Z" transform="translate(-423.75 -339.562)"/>
</svg>
